<?xml version="1.0" encoding="UTF-8" standalone="no"?>
<!DOCTYPE svg PUBLIC "-//W3C//DTD SVG 1.1//EN"
 "http://www.w3.org/Graphics/SVG/1.1/DTD/svg11.dtd">
<!-- Generated by graphviz version 12.2.1 (0)
 -->
<!-- Title: flow Pages: 1 -->
<svg width="1359pt" height="1246pt"
 viewBox="0.00 0.00 1359.00 1246.25" xmlns="http://www.w3.org/2000/svg" xmlns:xlink="http://www.w3.org/1999/xlink">
<g id="graph0" class="graph" transform="scale(1 1) rotate(0) translate(4 1242.25)">
<title>flow</title>
<polygon fill="white" stroke="none" points="-4,4 -4,-1242.25 1355,-1242.25 1355,4 -4,4"/>
<text text-anchor="middle" x="675.5" y="-1223.8" font-family="Helvetica,sans-Serif" font-size="11.00">Backend caching train — 5 namespaces IN the recall pipeline (PROPOSED, 2026&#45;07&#45;06)</text>
<text text-anchor="middle" x="675.5" y="-1210.3" font-family="Helvetica,sans-Serif" font-size="11.00">warm PLAIN trace 17f93bcc (19.3 s, CE 3&#45;pass = 79%) · encode_query→embed · spreading+ppr→graph · build_results→memory_doc · engram_links→engram_slot · crossfuse POPULATES→ce, cross_encoder LOOKUP→HIT (#41 within&#45;req dedup)</text>
<text text-anchor="middle" x="675.5" y="-1196.8" font-family="Helvetica,sans-Serif" font-size="11.00">total ≈ 19.321 s</text>
<g id="clust1" class="cluster">
<title>cluster_core</title>
<polygon fill="#4a72a8" stroke="#4a72a8" points="493.5,-1098 493.5,-1181.75 1059.5,-1181.75 1059.5,-1098 493.5,-1098"/>
<text text-anchor="middle" x="776.5" y="-1167.3" font-family="Helvetica,sans-Serif" font-weight="bold" font-size="11.00" fill="#26456b">Core (&#45;&#45;cpus 1) — forwarder; bumps data_epoch on writes, passes it on the recall request</text>
</g>
<g id="clust2" class="cluster">
<title>cluster_backend</title>
<polygon fill="#b5744a" stroke="#b5744a" points="291.5,-8 291.5,-1066.75 900.5,-1066.75 900.5,-8 291.5,-8"/>
<text text-anchor="middle" x="596" y="-1052.3" font-family="Helvetica,sans-Serif" font-weight="bold" font-size="11.00" fill="#7a4620">Backend (&#45;&#45;cpus 2) — backend.recall pipeline + the UNIFIED Cache class (5 namespaces)</text>
</g>
<!-- entry -->
<g id="node1" class="node">
<title>entry</title>
<path fill="#dbe9fb" stroke="black" d="M797.62,-1152.25C797.62,-1152.25 569.38,-1152.25 569.38,-1152.25 563.38,-1152.25 557.38,-1146.25 557.38,-1140.25 557.38,-1140.25 557.38,-1118 557.38,-1118 557.38,-1112 563.38,-1106 569.38,-1106 569.38,-1106 797.62,-1106 797.62,-1106 803.62,-1106 809.62,-1112 809.62,-1118 809.62,-1118 809.62,-1140.25 809.62,-1140.25 809.62,-1146.25 803.62,-1152.25 797.62,-1152.25"/>
<text text-anchor="middle" x="683.5" y="-1138.75" font-family="Helvetica,sans-Serif" font-size="10.00">recall() entry (FORWARDER)</text>
<text text-anchor="middle" x="683.5" y="-1126" font-family="Helvetica,sans-Serif" font-size="10.00">POST /recall + data_epoch (cross&#45;service signal)</text>
<text text-anchor="middle" x="683.5" y="-1113.25" font-family="Helvetica,sans-Serif" font-size="10.00">105 ms</text>
</g>
<!-- embed -->
<g id="node2" class="node">
<title>embed</title>
<polygon fill="#f5e1f5" stroke="black" points="800.25,-1037.25 566.75,-1037.25 566.75,-991 800.25,-991 800.25,-1037.25"/>
<text text-anchor="middle" x="683.5" y="-1023.75" font-family="Helvetica,sans-Serif" font-size="10.00">query embed</text>
<text text-anchor="middle" x="683.5" y="-1011" font-family="Helvetica,sans-Serif" font-size="10.00">retrieval.vector.encode_query (warm model)</text>
<text text-anchor="middle" x="683.5" y="-998.25" font-family="Helvetica,sans-Serif" font-size="10.00">15 ms</text>
</g>
<!-- entry&#45;&gt;embed -->
<g id="edge1" class="edge">
<title>entry&#45;&gt;embed</title>
<path fill="none" stroke="#333333" d="M683.5,-1105.53C683.5,-1089.36 683.5,-1067.32 683.5,-1049.05"/>
<polygon fill="#333333" stroke="#333333" points="687,-1049.2 683.5,-1039.2 680,-1049.2 687,-1049.2"/>
<text text-anchor="middle" x="743.12" y="-1077.45" font-family="Helvetica,sans-Serif" font-size="9.00">POST /recall + data_epoch</text>
</g>
<!-- vector -->
<g id="node3" class="node">
<title>vector</title>
<path fill="#fce3d6" stroke="black" d="M658,-939.75C658,-939.75 525,-939.75 525,-939.75 519,-939.75 513,-933.75 513,-927.75 513,-927.75 513,-905.5 513,-905.5 513,-899.5 519,-893.5 525,-893.5 525,-893.5 658,-893.5 658,-893.5 664,-893.5 670,-899.5 670,-905.5 670,-905.5 670,-927.75 670,-927.75 670,-933.75 664,-939.75 658,-939.75"/>
<text text-anchor="middle" x="591.5" y="-926.25" font-family="Helvetica,sans-Serif" font-size="10.00">vector KNN search</text>
<text text-anchor="middle" x="591.5" y="-913.5" font-family="Helvetica,sans-Serif" font-size="10.00">retrieval.vector (HNSW ANN)</text>
<text text-anchor="middle" x="591.5" y="-900.75" font-family="Helvetica,sans-Serif" font-size="10.00">55 ms</text>
</g>
<!-- embed&#45;&gt;vector -->
<g id="edge2" class="edge">
<title>embed&#45;&gt;vector</title>
<path fill="none" stroke="#333333" d="M662.16,-990.98C649.83,-978.17 634.13,-961.88 620.67,-947.9"/>
<polygon fill="#333333" stroke="#333333" points="623.55,-945.85 614.09,-941.08 618.51,-950.71 623.55,-945.85"/>
<text text-anchor="middle" x="669.13" y="-962.45" font-family="Helvetica,sans-Serif" font-size="9.00">query vector</text>
</g>
<!-- ns_embed -->
<g id="node13" class="node">
<title>ns_embed</title>
<path fill="#e7f6e7" stroke="black" stroke-dasharray="5,2" d="M869.62,-939.75C869.62,-939.75 707.38,-939.75 707.38,-939.75 701.38,-939.75 695.38,-933.75 695.38,-927.75 695.38,-927.75 695.38,-905.5 695.38,-905.5 695.38,-899.5 701.38,-893.5 707.38,-893.5 707.38,-893.5 869.62,-893.5 869.62,-893.5 875.62,-893.5 881.62,-899.5 881.62,-905.5 881.62,-905.5 881.62,-927.75 881.62,-927.75 881.62,-933.75 875.62,-939.75 869.62,-939.75"/>
<text text-anchor="middle" x="788.5" y="-926.25" font-family="Helvetica,sans-Serif" font-size="10.00">[MOVED&#45;IN] ce.embed namespace</text>
<text text-anchor="middle" x="788.5" y="-913.5" font-family="Helvetica,sans-Serif" font-size="10.00">key text_sha:ckpt_sha · ModelCkpt</text>
<text text-anchor="middle" x="788.5" y="-900.75" font-family="Helvetica,sans-Serif" font-size="10.00">repeat encode_query served warm</text>
</g>
<!-- embed&#45;&gt;ns_embed -->
<g id="edge12" class="edge">
<title>embed&#45;&gt;ns_embed</title>
<path fill="none" stroke="#6a8f3a" stroke-dasharray="5,2" d="M708.12,-990.73C722.23,-977.9 740.14,-961.61 755.46,-947.67"/>
<polygon fill="#6a8f3a" stroke="#6a8f3a" points="757.51,-950.54 762.55,-941.22 752.8,-945.36 757.51,-950.54"/>
<text text-anchor="middle" x="789.02" y="-962.45" font-family="Helvetica,sans-Serif" font-size="9.00">encode_query (warm)</text>
</g>
<!-- ppr -->
<g id="node4" class="node">
<title>ppr</title>
<path fill="#dbe9fb" stroke="black" d="M686.88,-842.25C686.88,-842.25 496.12,-842.25 496.12,-842.25 490.12,-842.25 484.12,-836.25 484.12,-830.25 484.12,-830.25 484.12,-808 484.12,-808 484.12,-802 490.12,-796 496.12,-796 496.12,-796 686.88,-796 686.88,-796 692.88,-796 698.88,-802 698.88,-808 698.88,-808 698.88,-830.25 698.88,-830.25 698.88,-836.25 692.88,-842.25 686.88,-842.25"/>
<text text-anchor="middle" x="591.5" y="-828.75" font-family="Helvetica,sans-Serif" font-size="10.00">personalized PageRank</text>
<text text-anchor="middle" x="591.5" y="-816" font-family="Helvetica,sans-Serif" font-size="10.00">retrieval.ppr (entity seeds + graph walk)</text>
<text text-anchor="middle" x="591.5" y="-803.25" font-family="Helvetica,sans-Serif" font-size="10.00">234 ms</text>
</g>
<!-- vector&#45;&gt;ppr -->
<g id="edge3" class="edge">
<title>vector&#45;&gt;ppr</title>
<path fill="none" stroke="#333333" d="M591.5,-893.48C591.5,-881.75 591.5,-867.09 591.5,-853.97"/>
<polygon fill="#333333" stroke="#333333" points="595,-854 591.5,-844 588,-854 595,-854"/>
<text text-anchor="middle" x="594.5" y="-864.95" font-family="Helvetica,sans-Serif" font-size="9.00">3</text>
</g>
<!-- spread -->
<g id="node5" class="node">
<title>spread</title>
<path fill="#fce3d6" stroke="black" d="M693.25,-744.75C693.25,-744.75 429.75,-744.75 429.75,-744.75 423.75,-744.75 417.75,-738.75 417.75,-732.75 417.75,-732.75 417.75,-710.5 417.75,-710.5 417.75,-704.5 423.75,-698.5 429.75,-698.5 429.75,-698.5 693.25,-698.5 693.25,-698.5 699.25,-698.5 705.25,-704.5 705.25,-710.5 705.25,-710.5 705.25,-732.75 705.25,-732.75 705.25,-738.75 699.25,-744.75 693.25,-744.75"/>
<text text-anchor="middle" x="561.5" y="-731.25" font-family="Helvetica,sans-Serif" font-size="10.00">spreading activation BFS</text>
<text text-anchor="middle" x="561.5" y="-718.5" font-family="Helvetica,sans-Serif" font-size="10.00">retrieval.spreading (per&#45;neighbour DB, uncached today)</text>
<text text-anchor="middle" x="561.5" y="-705.75" font-family="Helvetica,sans-Serif" font-size="10.00">1.475 s</text>
</g>
<!-- ppr&#45;&gt;spread -->
<g id="edge4" class="edge">
<title>ppr&#45;&gt;spread</title>
<path fill="none" stroke="#333333" d="M584.54,-795.98C580.78,-784.01 576.07,-769 571.88,-755.67"/>
<polygon fill="#333333" stroke="#333333" points="575.31,-754.92 568.98,-746.43 568.64,-757.02 575.31,-754.92"/>
<text text-anchor="middle" x="580.4" y="-767.45" font-family="Helvetica,sans-Serif" font-size="9.00">4</text>
</g>
<!-- ns_graph -->
<g id="node14" class="node">
<title>ns_graph</title>
<path fill="#e7f6e7" stroke="black" stroke-dasharray="5,2" d="M856.88,-647.25C856.88,-647.25 654.12,-647.25 654.12,-647.25 648.12,-647.25 642.12,-641.25 642.12,-635.25 642.12,-635.25 642.12,-613 642.12,-613 642.12,-607 648.12,-601 654.12,-601 654.12,-601 856.88,-601 856.88,-601 862.88,-601 868.88,-607 868.88,-613 868.88,-613 868.88,-635.25 868.88,-635.25 868.88,-641.25 862.88,-647.25 856.88,-647.25"/>
<text text-anchor="middle" x="755.5" y="-633.75" font-family="Helvetica,sans-Serif" font-size="10.00">[NEW] graph namespace</text>
<text text-anchor="middle" x="755.5" y="-621" font-family="Helvetica,sans-Serif" font-size="10.00">key entity_id:data_epoch · DataEpoch</text>
<text text-anchor="middle" x="755.5" y="-608.25" font-family="Helvetica,sans-Serif" font-size="10.00">entity→neighbours · est. shave 300&#45;400 ms</text>
</g>
<!-- ppr&#45;&gt;ns_graph -->
<g id="edge13" class="edge">
<title>ppr&#45;&gt;ns_graph</title>
<path fill="none" stroke="#6a8f3a" stroke-dasharray="5,2" d="M645.32,-795.52C669.67,-783.25 697.42,-766.18 717.5,-744.75 739.99,-720.74 741.48,-710.13 750.5,-678.5 752.27,-672.29 753.45,-665.53 754.23,-658.97"/>
<polygon fill="#6a8f3a" stroke="#6a8f3a" points="757.71,-659.31 755.1,-649.04 750.74,-658.7 757.71,-659.31"/>
<text text-anchor="middle" x="772.71" y="-718.7" font-family="Helvetica,sans-Serif" font-size="9.00">ppr → graph</text>
</g>
<!-- fusion -->
<g id="node6" class="node">
<title>fusion</title>
<path fill="#dbe9fb" stroke="black" d="M605.38,-647.25C605.38,-647.25 459.62,-647.25 459.62,-647.25 453.62,-647.25 447.62,-641.25 447.62,-635.25 447.62,-635.25 447.62,-613 447.62,-613 447.62,-607 453.62,-601 459.62,-601 459.62,-601 605.38,-601 605.38,-601 611.38,-601 617.38,-607 617.38,-613 617.38,-613 617.38,-635.25 617.38,-635.25 617.38,-641.25 611.38,-647.25 605.38,-647.25"/>
<text text-anchor="middle" x="532.5" y="-633.75" font-family="Helvetica,sans-Serif" font-size="10.00">convex / WRRF fusion</text>
<text text-anchor="middle" x="532.5" y="-621" font-family="Helvetica,sans-Serif" font-size="10.00">retrieval.fusion (merge signals)</text>
<text text-anchor="middle" x="532.5" y="-608.25" font-family="Helvetica,sans-Serif" font-size="10.00">273 ms</text>
</g>
<!-- spread&#45;&gt;fusion -->
<g id="edge5" class="edge">
<title>spread&#45;&gt;fusion</title>
<path fill="none" stroke="#333333" d="M554.77,-698.48C551.14,-686.51 546.58,-671.5 542.54,-658.17"/>
<polygon fill="#333333" stroke="#333333" points="545.98,-657.49 539.73,-648.93 539.29,-659.52 545.98,-657.49"/>
<text text-anchor="middle" x="550.87" y="-669.95" font-family="Helvetica,sans-Serif" font-size="9.00">5</text>
</g>
<!-- spread&#45;&gt;ns_graph -->
<g id="edge14" class="edge">
<title>spread&#45;&gt;ns_graph</title>
<path fill="none" stroke="#6a8f3a" stroke-dasharray="5,2" d="M603.2,-698.01C621.44,-688.3 643.16,-676.98 663,-667.25 673.1,-662.3 683.91,-657.2 694.44,-652.34"/>
<polygon fill="#6a8f3a" stroke="#6a8f3a" points="695.84,-655.55 703.47,-648.2 692.92,-649.18 695.84,-655.55"/>
<text text-anchor="middle" x="705.75" y="-669.95" font-family="Helvetica,sans-Serif" font-size="9.00">spreading → graph</text>
</g>
<!-- build -->
<g id="node7" class="node">
<title>build</title>
<path fill="#fce3d6" stroke="black" d="M640.25,-549.75C640.25,-549.75 424.75,-549.75 424.75,-549.75 418.75,-549.75 412.75,-543.75 412.75,-537.75 412.75,-537.75 412.75,-515.5 412.75,-515.5 412.75,-509.5 418.75,-503.5 424.75,-503.5 424.75,-503.5 640.25,-503.5 640.25,-503.5 646.25,-503.5 652.25,-509.5 652.25,-515.5 652.25,-515.5 652.25,-537.75 652.25,-537.75 652.25,-543.75 646.25,-549.75 640.25,-549.75"/>
<text text-anchor="middle" x="532.5" y="-536.25" font-family="Helvetica,sans-Serif" font-size="10.00">build_results final&#45;fetch</text>
<text text-anchor="middle" x="532.5" y="-523.5" font-family="Helvetica,sans-Serif" font-size="10.00">retrieval.build_results (WHERE id IN, batched)</text>
<text text-anchor="middle" x="532.5" y="-510.75" font-family="Helvetica,sans-Serif" font-size="10.00">866 ms</text>
</g>
<!-- fusion&#45;&gt;build -->
<g id="edge6" class="edge">
<title>fusion&#45;&gt;build</title>
<path fill="none" stroke="#333333" d="M532.5,-600.98C532.5,-589.25 532.5,-574.59 532.5,-561.47"/>
<polygon fill="#333333" stroke="#333333" points="536,-561.5 532.5,-551.5 529,-561.5 536,-561.5"/>
<text text-anchor="middle" x="547.88" y="-572.45" font-family="Helvetica,sans-Serif" font-size="9.00">top ids</text>
</g>
<!-- ce1 -->
<g id="node8" class="node">
<title>ce1</title>
<polygon fill="#f5e1f5" stroke="black" points="593.38,-452.25 333.62,-452.25 333.62,-406 593.38,-406 593.38,-452.25"/>
<text text-anchor="middle" x="463.5" y="-438.75" font-family="Helvetica,sans-Serif" font-size="10.00">CE PASS 1 — cross_encoder</text>
<text text-anchor="middle" x="463.5" y="-426" font-family="Helvetica,sans-Serif" font-size="10.00">retrieval.rerank.cross_encoder (GTE&#45;ModernBERT)</text>
<text text-anchor="middle" x="463.5" y="-413.25" font-family="Helvetica,sans-Serif" font-size="10.00">7.937 s</text>
</g>
<!-- build&#45;&gt;ce1 -->
<g id="edge7" class="edge">
<title>build&#45;&gt;ce1</title>
<path fill="none" stroke="#333333" d="M516.5,-503.48C507.5,-491.03 496.13,-475.29 486.23,-461.58"/>
<polygon fill="#333333" stroke="#333333" points="489.24,-459.77 480.54,-453.71 483.56,-463.87 489.24,-459.77"/>
<text text-anchor="middle" x="532.69" y="-474.95" font-family="Helvetica,sans-Serif" font-size="9.00">hydrated rows</text>
</g>
<!-- ns_mdoc -->
<g id="node15" class="node">
<title>ns_mdoc</title>
<path fill="#e7f6e7" stroke="black" stroke-dasharray="5,2" d="M880.88,-452.25C880.88,-452.25 630.12,-452.25 630.12,-452.25 624.12,-452.25 618.12,-446.25 618.12,-440.25 618.12,-440.25 618.12,-418 618.12,-418 618.12,-412 624.12,-406 630.12,-406 630.12,-406 880.88,-406 880.88,-406 886.88,-406 892.88,-412 892.88,-418 892.88,-418 892.88,-440.25 892.88,-440.25 892.88,-446.25 886.88,-452.25 880.88,-452.25"/>
<text text-anchor="middle" x="755.5" y="-438.75" font-family="Helvetica,sans-Serif" font-size="10.00">[NEW] memory_doc namespace</text>
<text text-anchor="middle" x="755.5" y="-426" font-family="Helvetica,sans-Serif" font-size="10.00">key memory_id:data_epoch · DataEpoch</text>
<text text-anchor="middle" x="755.5" y="-413.25" font-family="Helvetica,sans-Serif" font-size="10.00">id→doc (content&#45;immutable) · est. shave 150&#45;200 ms</text>
</g>
<!-- build&#45;&gt;ns_mdoc -->
<g id="edge15" class="edge">
<title>build&#45;&gt;ns_mdoc</title>
<path fill="none" stroke="#6a8f3a" stroke-dasharray="5,2" d="M585.07,-503.11C617.27,-489.32 658.69,-471.58 692.63,-457.05"/>
<polygon fill="#6a8f3a" stroke="#6a8f3a" points="693.7,-460.4 701.51,-453.25 690.94,-453.97 693.7,-460.4"/>
<text text-anchor="middle" x="696.81" y="-474.95" font-family="Helvetica,sans-Serif" font-size="9.00">build_results id→doc</text>
</g>
<!-- mp -->
<g id="node9" class="node">
<title>mp</title>
<polygon fill="#f5e1f5" stroke="black" points="641.12,-354.75 355.88,-354.75 355.88,-308.5 641.12,-308.5 641.12,-354.75"/>
<text text-anchor="middle" x="498.5" y="-341.25" font-family="Helvetica,sans-Serif" font-size="10.00">CE PASS 2 — multi_passage</text>
<text text-anchor="middle" x="498.5" y="-328.5" font-family="Helvetica,sans-Serif" font-size="10.00">retrieval.rerank.multi_passage (synthetic cluster texts)</text>
<text text-anchor="middle" x="498.5" y="-315.75" font-family="Helvetica,sans-Serif" font-size="10.00">1.479 s</text>
</g>
<!-- ce1&#45;&gt;mp -->
<g id="edge8" class="edge">
<title>ce1&#45;&gt;mp</title>
<path fill="none" stroke="#333333" d="M471.62,-405.98C476,-394.01 481.51,-379 486.39,-365.67"/>
<polygon fill="#333333" stroke="#333333" points="489.63,-367 489.78,-356.41 483.06,-364.59 489.63,-367"/>
<text text-anchor="middle" x="485.05" y="-377.45" font-family="Helvetica,sans-Serif" font-size="9.00">8</text>
</g>
<!-- engram -->
<g id="node10" class="node">
<title>engram</title>
<path fill="#fce3d6" stroke="black" d="M592.75,-257.25C592.75,-257.25 404.25,-257.25 404.25,-257.25 398.25,-257.25 392.25,-251.25 392.25,-245.25 392.25,-245.25 392.25,-223 392.25,-223 392.25,-217 398.25,-211 404.25,-211 404.25,-211 592.75,-211 592.75,-211 598.75,-211 604.75,-217 604.75,-223 604.75,-223 604.75,-245.25 604.75,-245.25 604.75,-251.25 598.75,-257.25 592.75,-257.25"/>
<text text-anchor="middle" x="498.5" y="-243.75" font-family="Helvetica,sans-Serif" font-size="10.00">engram_links rerank</text>
<text text-anchor="middle" x="498.5" y="-231" font-family="Helvetica,sans-Serif" font-size="10.00">retrieval.rerank.engram_links (graph IO)</text>
<text text-anchor="middle" x="498.5" y="-218.25" font-family="Helvetica,sans-Serif" font-size="10.00">375 ms</text>
</g>
<!-- mp&#45;&gt;engram -->
<g id="edge9" class="edge">
<title>mp&#45;&gt;engram</title>
<path fill="none" stroke="#333333" d="M498.5,-308.48C498.5,-296.75 498.5,-282.09 498.5,-268.97"/>
<polygon fill="#333333" stroke="#333333" points="502,-269 498.5,-259 495,-269 502,-269"/>
<text text-anchor="middle" x="501.5" y="-279.95" font-family="Helvetica,sans-Serif" font-size="9.00">9</text>
</g>
<!-- ns_ce -->
<g id="node17" class="node">
<title>ns_ce</title>
<path fill="#e7f6e7" stroke="black" stroke-dasharray="5,2" d="M880.25,-62.25C880.25,-62.25 664.75,-62.25 664.75,-62.25 658.75,-62.25 652.75,-56.25 652.75,-50.25 652.75,-50.25 652.75,-28 652.75,-28 652.75,-22 658.75,-16 664.75,-16 664.75,-16 880.25,-16 880.25,-16 886.25,-16 892.25,-22 892.25,-28 892.25,-28 892.25,-50.25 892.25,-50.25 892.25,-56.25 886.25,-62.25 880.25,-62.25"/>
<text text-anchor="middle" x="772.5" y="-48.75" font-family="Helvetica,sans-Serif" font-size="10.00">[MOVED&#45;IN+WIRE] ce namespace</text>
<text text-anchor="middle" x="772.5" y="-36" font-family="Helvetica,sans-Serif" font-size="10.00">key query_sha:text_sha:ckpt_sha · ModelCkpt</text>
<text text-anchor="middle" x="772.5" y="-23.25" font-family="Helvetica,sans-Serif" font-size="10.00">#41 within&#45;request CE dedup</text>
</g>
<!-- mp&#45;&gt;ns_ce -->
<g id="edge19" class="edge">
<title>mp&#45;&gt;ns_ce</title>
<path fill="none" stroke="#999999" stroke-dasharray="5,2" d="M540.74,-308.14C564.32,-294.73 593.65,-276.59 617.5,-257.25 655.27,-226.62 650.77,-200.51 694.75,-179.75 726.31,-164.85 827.45,-185.95 850.5,-159.75 875.24,-131.63 843.61,-95.03 813.53,-69.76"/>
<polygon fill="#999999" stroke="#999999" points="815.87,-67.15 805.9,-63.58 811.47,-72.59 815.87,-67.15"/>
<text text-anchor="middle" x="780.62" y="-182.45" font-family="Helvetica,sans-Serif" font-size="9.00">multi_passage mostly disjoint (partial)</text>
</g>
<!-- cefuse -->
<g id="node11" class="node">
<title>cefuse</title>
<polygon fill="#f5e1f5" stroke="black" points="605.62,-159.75 299.38,-159.75 299.38,-113.5 605.62,-113.5 605.62,-159.75"/>
<text text-anchor="middle" x="452.5" y="-146.25" font-family="Helvetica,sans-Serif" font-size="10.00">CE PASS 3 — wiki crossfuse</text>
<text text-anchor="middle" x="452.5" y="-133.5" font-family="Helvetica,sans-Serif" font-size="10.00">retrieval.crossfuse.score_candidates_ce (memory∪wiki CE)</text>
<text text-anchor="middle" x="452.5" y="-120.75" font-family="Helvetica,sans-Serif" font-size="10.00">5.803 s</text>
</g>
<!-- engram&#45;&gt;cefuse -->
<g id="edge10" class="edge">
<title>engram&#45;&gt;cefuse</title>
<path fill="none" stroke="#333333" d="M487.83,-210.98C482.01,-198.89 474.69,-183.69 468.23,-170.27"/>
<polygon fill="#333333" stroke="#333333" points="471.42,-168.84 463.93,-161.35 465.11,-171.88 471.42,-168.84"/>
<text text-anchor="middle" x="482.88" y="-182.45" font-family="Helvetica,sans-Serif" font-size="9.00">10</text>
</g>
<!-- ns_slot -->
<g id="node16" class="node">
<title>ns_slot</title>
<path fill="#e7f6e7" stroke="black" stroke-dasharray="5,2" d="M826.12,-159.75C826.12,-159.75 642.88,-159.75 642.88,-159.75 636.88,-159.75 630.88,-153.75 630.88,-147.75 630.88,-147.75 630.88,-125.5 630.88,-125.5 630.88,-119.5 636.88,-113.5 642.88,-113.5 642.88,-113.5 826.12,-113.5 826.12,-113.5 832.12,-113.5 838.12,-119.5 838.12,-125.5 838.12,-125.5 838.12,-147.75 838.12,-147.75 838.12,-153.75 832.12,-159.75 826.12,-159.75"/>
<text text-anchor="middle" x="734.5" y="-146.25" font-family="Helvetica,sans-Serif" font-size="10.00">[NEW] engram_slot namespace</text>
<text text-anchor="middle" x="734.5" y="-133.5" font-family="Helvetica,sans-Serif" font-size="10.00">key slot_index:data_epoch · DataEpoch</text>
<text text-anchor="middle" x="734.5" y="-120.75" font-family="Helvetica,sans-Serif" font-size="10.00">slot→ids · est. shave 100&#45;150 ms</text>
</g>
<!-- engram&#45;&gt;ns_slot -->
<g id="edge16" class="edge">
<title>engram&#45;&gt;ns_slot</title>
<path fill="none" stroke="#6a8f3a" stroke-dasharray="5,2" d="M506.49,-210.57C511.47,-199.66 518.97,-187.32 529.5,-179.75 531.64,-178.21 573.9,-169.43 619.49,-160.27"/>
<polygon fill="#6a8f3a" stroke="#6a8f3a" points="619.9,-163.76 629.02,-158.36 618.53,-156.9 619.9,-163.76"/>
<text text-anchor="middle" x="579" y="-182.45" font-family="Helvetica,sans-Serif" font-size="9.00">engram_links slot→ids</text>
</g>
<!-- results -->
<g id="node12" class="node">
<title>results</title>
<path fill="#dbe9fb" stroke="black" d="M505.12,-57.12C505.12,-57.12 399.88,-57.12 399.88,-57.12 393.88,-57.12 387.88,-51.12 387.88,-45.12 387.88,-45.12 387.88,-33.12 387.88,-33.12 387.88,-27.12 393.88,-21.12 399.88,-21.12 399.88,-21.12 505.12,-21.12 505.12,-21.12 511.12,-21.12 517.12,-27.12 517.12,-33.12 517.12,-33.12 517.12,-45.12 517.12,-45.12 517.12,-51.12 511.12,-57.12 505.12,-57.12"/>
<text text-anchor="middle" x="452.5" y="-42.38" font-family="Helvetica,sans-Serif" font-size="10.00">ranked results returned</text>
<text text-anchor="middle" x="452.5" y="-29.62" font-family="Helvetica,sans-Serif" font-size="10.00">1 ms</text>
</g>
<!-- cefuse&#45;&gt;results -->
<g id="edge11" class="edge">
<title>cefuse&#45;&gt;results</title>
<path fill="none" stroke="#333333" d="M452.5,-113.48C452.5,-100.13 452.5,-83 452.5,-68.65"/>
<polygon fill="#333333" stroke="#333333" points="456,-68.91 452.5,-58.91 449,-68.91 456,-68.91"/>
<text text-anchor="middle" x="458.5" y="-84.95" font-family="Helvetica,sans-Serif" font-size="9.00">11</text>
</g>
<!-- cefuse&#45;&gt;ns_ce -->
<g id="edge17" class="edge">
<title>cefuse&#45;&gt;ns_ce</title>
<path fill="none" stroke="#6a8f3a" stroke-dasharray="5,2" d="M527.93,-113.11C575.26,-98.99 636.44,-80.73 685.77,-66.01"/>
<polygon fill="#6a8f3a" stroke="#6a8f3a" points="686.71,-69.38 695.29,-63.17 684.71,-62.67 686.71,-69.38"/>
<text text-anchor="middle" x="699.34" y="-84.95" font-family="Helvetica,sans-Serif" font-size="9.00">crossfuse POPULATES (query,text)</text>
</g>
<!-- ns_ce&#45;&gt;ce1 -->
<g id="edge18" class="edge">
<title>ns_ce&#45;&gt;ce1</title>
<path fill="none" stroke="#6a8f3a" stroke-dasharray="5,2" d="M814.06,-62.65C822.94,-68.43 831.93,-75.06 839.5,-82.25 875.78,-116.69 890.7,-146.18 868.5,-191 810.66,-307.76 667.03,-371.18 567.38,-402.33"/>
<polygon fill="#6a8f3a" stroke="#6a8f3a" points="566.65,-398.9 558.11,-405.17 568.7,-405.59 566.65,-398.9"/>
<text text-anchor="middle" x="955.73" y="-231.2" font-family="Helvetica,sans-Serif" font-size="9.00">cross_encoder LOOKUP → HIT (skip re&#45;score)</text>
</g>
</g>
</svg>
