<?xml version="1.0" encoding="UTF-8" standalone="no"?>
<!DOCTYPE svg PUBLIC "-//W3C//DTD SVG 1.1//EN"
 "http://www.w3.org/Graphics/SVG/1.1/DTD/svg11.dtd">
<!-- Generated by graphviz version 12.2.1 (0)
 -->
<!-- Title: flow Pages: 1 -->
<svg width="453pt" height="381pt"
 viewBox="0.00 0.00 453.00 380.75" xmlns="http://www.w3.org/2000/svg" xmlns:xlink="http://www.w3.org/1999/xlink">
<g id="graph0" class="graph" transform="scale(1 1) rotate(0) translate(4 376.75)">
<title>flow</title>
<polygon fill="white" stroke="none" points="-4,4 -4,-376.75 449,-376.75 449,4 -4,4"/>
<text text-anchor="middle" x="222.5" y="-358.3" font-family="Helvetica,sans-Serif" font-size="11.00">bookmark_add — simplified trace (2026&#45;07&#45;09, core 5.117 / backend 5.30)</text>
<text text-anchor="middle" x="222.5" y="-344.8" font-family="Helvetica,sans-Serif" font-size="11.00">trace 16fb7eb0 · total 134.6 ms · key cost: add bookmark = 120.59 ms (90%)</text>
<g id="clust1" class="cluster">
<title>cluster_core</title>
<polygon fill="#4a72a8" stroke="#4a72a8" points="25.5,-8 25.5,-329.75 231.5,-329.75 231.5,-8 25.5,-8"/>
<text text-anchor="middle" x="128.5" y="-315.3" font-family="Helvetica,sans-Serif" font-weight="bold" font-size="11.00" fill="#26456b">Core process (yadgar&#45;core)</text>
</g>
<g id="clust2" class="cluster">
<title>cluster_backend</title>
<polygon fill="#b5744a" stroke="#b5744a" points="239.5,-105.5 239.5,-202 419.5,-202 419.5,-105.5 239.5,-105.5"/>
<text text-anchor="middle" x="329.5" y="-187.55" font-family="Helvetica,sans-Serif" font-weight="bold" font-size="11.00" fill="#7a4620">Backend (yadgar&#45;backend)</text>
</g>
<!-- entry -->
<g id="node1" class="node">
<title>entry</title>
<path fill="#dbe9fb" stroke="black" d="M211.88,-300.25C211.88,-300.25 45.12,-300.25 45.12,-300.25 39.12,-300.25 33.12,-294.25 33.12,-288.25 33.12,-288.25 33.12,-253.25 33.12,-253.25 33.12,-247.25 39.12,-241.25 45.12,-241.25 45.12,-241.25 211.88,-241.25 211.88,-241.25 217.88,-241.25 223.88,-247.25 223.88,-253.25 223.88,-253.25 223.88,-288.25 223.88,-288.25 223.88,-294.25 217.88,-300.25 211.88,-300.25"/>
<text text-anchor="middle" x="128.5" y="-286.75" font-family="Helvetica,sans-Serif" font-size="10.00">bookmark_add() entry</text>
<text text-anchor="middle" x="128.5" y="-274" font-family="Helvetica,sans-Serif" font-size="10.00">MCP dispatch → tool.bookmark_add</text>
<text text-anchor="middle" x="128.5" y="-261.25" font-family="Helvetica,sans-Serif" font-size="10.00">@3ms</text>
<text text-anchor="middle" x="128.5" y="-248.5" font-family="Helvetica,sans-Serif" font-size="10.00">2.97 ms</text>
</g>
<!-- s0 -->
<g id="node3" class="node">
<title>s0</title>
<path fill="#dbe9fb" stroke="black" d="M381.75,-172.5C381.75,-172.5 259.25,-172.5 259.25,-172.5 253.25,-172.5 247.25,-166.5 247.25,-160.5 247.25,-160.5 247.25,-125.5 247.25,-125.5 247.25,-119.5 253.25,-113.5 259.25,-113.5 259.25,-113.5 381.75,-113.5 381.75,-113.5 387.75,-113.5 393.75,-119.5 393.75,-125.5 393.75,-125.5 393.75,-160.5 393.75,-160.5 393.75,-166.5 387.75,-172.5 381.75,-172.5"/>
<text text-anchor="middle" x="320.5" y="-159" font-family="Helvetica,sans-Serif" font-size="10.00">add bookmark</text>
<text text-anchor="middle" x="320.5" y="-146.25" font-family="Helvetica,sans-Serif" font-size="10.00">bookmarks.bookmark_add</text>
<text text-anchor="middle" x="320.5" y="-133.5" font-family="Helvetica,sans-Serif" font-size="10.00">@10ms</text>
<text text-anchor="middle" x="320.5" y="-120.75" font-family="Helvetica,sans-Serif" font-size="10.00">120.59 ms</text>
</g>
<!-- entry&#45;&gt;s0 -->
<g id="edge1" class="edge">
<title>entry&#45;&gt;s0</title>
<path fill="none" stroke="#333333" d="M180.5,-240.78C200.51,-229.21 223.36,-215.45 243.5,-202 253.83,-195.1 264.65,-187.32 274.81,-179.75"/>
<polygon fill="#333333" stroke="#333333" points="276.82,-182.62 282.7,-173.8 272.61,-177.02 276.82,-182.62"/>
<text text-anchor="middle" x="231.29" y="-212.7" font-family="Helvetica,sans-Serif" font-size="9.00">1</text>
</g>
<!-- done -->
<g id="node2" class="node">
<title>done</title>
<path fill="#dbe9fb" stroke="black" d="M211.5,-62.25C211.5,-62.25 147.5,-62.25 147.5,-62.25 141.5,-62.25 135.5,-56.25 135.5,-50.25 135.5,-50.25 135.5,-28 135.5,-28 135.5,-22 141.5,-16 147.5,-16 147.5,-16 211.5,-16 211.5,-16 217.5,-16 223.5,-22 223.5,-28 223.5,-28 223.5,-50.25 223.5,-50.25 223.5,-56.25 217.5,-62.25 211.5,-62.25"/>
<text text-anchor="middle" x="179.5" y="-48.75" font-family="Helvetica,sans-Serif" font-size="10.00">result returned</text>
<text text-anchor="middle" x="179.5" y="-36" font-family="Helvetica,sans-Serif" font-size="10.00">@135ms</text>
<text text-anchor="middle" x="179.5" y="-23.25" font-family="Helvetica,sans-Serif" font-size="10.00">1.41 ms</text>
</g>
<!-- s0&#45;&gt;done -->
<g id="edge2" class="edge">
<title>s0&#45;&gt;done</title>
<path fill="none" stroke="#333333" d="M280.47,-113.08C261.53,-99.39 238.95,-83.08 219.95,-69.35"/>
<polygon fill="#333333" stroke="#333333" points="222.04,-66.55 211.89,-63.53 217.94,-72.22 222.04,-66.55"/>
<text text-anchor="middle" x="253" y="-84.95" font-family="Helvetica,sans-Serif" font-size="9.00">2</text>
</g>
</g>
</svg>
