<?xml version="1.0" encoding="UTF-8" standalone="no"?>
<!DOCTYPE svg PUBLIC "-//W3C//DTD SVG 1.1//EN"
 "http://www.w3.org/Graphics/SVG/1.1/DTD/svg11.dtd">
<!-- Generated by graphviz version 12.2.1 (0)
 -->
<!-- Title: flow Pages: 1 -->
<svg width="744pt" height="1289pt"
 viewBox="0.00 0.00 744.00 1289.00" xmlns="http://www.w3.org/2000/svg" xmlns:xlink="http://www.w3.org/1999/xlink">
<g id="graph0" class="graph" transform="scale(1 1) rotate(0) translate(4 1285)">
<title>flow</title>
<polygon fill="white" stroke="none" points="-4,4 -4,-1285 740,-1285 740,4 -4,4"/>
<text text-anchor="middle" x="368" y="-1266.55" font-family="Helvetica,sans-Serif" font-size="11.00">check_invariants&#45;cold — simplified trace (2026&#45;07&#45;09, core 5.117 / backend 5.30)</text>
<text text-anchor="middle" x="368" y="-1253.05" font-family="Helvetica,sans-Serif" font-size="11.00">trace 298efe7b · total 33.7846 s · key cost: HTTP POST to backend (slow SurrealDB invariant scan — THE wall) = 27.3905 s (81%)</text>
<text text-anchor="middle" x="368" y="-1239.55" font-family="Helvetica,sans-Serif" font-size="11.00">backend /admin runs ~34 s but core client TIMES OUT at 30 s — MCP call always errors</text>
<g id="clust1" class="cluster">
<title>cluster_core</title>
<polygon fill="#4a72a8" stroke="#4a72a8" points="59,-8 59,-1224.5 311,-1224.5 311,-8 59,-8"/>
<text text-anchor="middle" x="185" y="-1210.05" font-family="Helvetica,sans-Serif" font-weight="bold" font-size="11.00" fill="#26456b">Core process (yadgar&#45;core)</text>
</g>
<g id="clust2" class="cluster">
<title>cluster_backend</title>
<polygon fill="#b5744a" stroke="#b5744a" points="319,-118.25 319,-1096.75 677,-1096.75 677,-118.25 319,-118.25"/>
<text text-anchor="middle" x="498" y="-1082.3" font-family="Helvetica,sans-Serif" font-weight="bold" font-size="11.00" fill="#7a4620">Backend (yadgar&#45;backend)</text>
</g>
<!-- entry -->
<g id="node1" class="node">
<title>entry</title>
<path fill="#dbe9fb" stroke="black" d="M291.25,-1195C291.25,-1195 114.75,-1195 114.75,-1195 108.75,-1195 102.75,-1189 102.75,-1183 102.75,-1183 102.75,-1148 102.75,-1148 102.75,-1142 108.75,-1136 114.75,-1136 114.75,-1136 291.25,-1136 291.25,-1136 297.25,-1136 303.25,-1142 303.25,-1148 303.25,-1148 303.25,-1183 303.25,-1183 303.25,-1189 297.25,-1195 291.25,-1195"/>
<text text-anchor="middle" x="203" y="-1181.5" font-family="Helvetica,sans-Serif" font-size="10.00">check_invariants() entry</text>
<text text-anchor="middle" x="203" y="-1168.75" font-family="Helvetica,sans-Serif" font-size="10.00">MCP dispatch → tool.check_invariants</text>
<text text-anchor="middle" x="203" y="-1156" font-family="Helvetica,sans-Serif" font-size="10.00">@3ms</text>
<text text-anchor="middle" x="203" y="-1143.25" font-family="Helvetica,sans-Serif" font-size="10.00">2.73 ms</text>
</g>
<!-- s0 -->
<g id="node3" class="node">
<title>s0</title>
<path fill="#dbe9fb" stroke="black" d="M454.62,-1067.25C454.62,-1067.25 367.38,-1067.25 367.38,-1067.25 361.38,-1067.25 355.38,-1061.25 355.38,-1055.25 355.38,-1055.25 355.38,-1020.25 355.38,-1020.25 355.38,-1014.25 361.38,-1008.25 367.38,-1008.25 367.38,-1008.25 454.62,-1008.25 454.62,-1008.25 460.62,-1008.25 466.62,-1014.25 466.62,-1020.25 466.62,-1020.25 466.62,-1055.25 466.62,-1055.25 466.62,-1061.25 460.62,-1067.25 454.62,-1067.25"/>
<text text-anchor="middle" x="411" y="-1053.75" font-family="Helvetica,sans-Serif" font-size="10.00">DB count query ×8</text>
<text text-anchor="middle" x="411" y="-1041" font-family="Helvetica,sans-Serif" font-size="10.00">invariants._count_q</text>
<text text-anchor="middle" x="411" y="-1028.25" font-family="Helvetica,sans-Serif" font-size="10.00">@10ms</text>
<text text-anchor="middle" x="411" y="-1015.5" font-family="Helvetica,sans-Serif" font-size="10.00">157.73 ms</text>
</g>
<!-- entry&#45;&gt;s0 -->
<g id="edge1" class="edge">
<title>entry&#45;&gt;s0</title>
<path fill="none" stroke="#333333" d="M279.05,-1135.6C303,-1124.98 328.94,-1111.8 351,-1096.75 359.97,-1090.63 368.83,-1083.12 376.88,-1075.56"/>
<polygon fill="#333333" stroke="#333333" points="379.13,-1078.25 383.86,-1068.77 374.25,-1073.24 379.13,-1078.25"/>
<text text-anchor="middle" x="339.17" y="-1107.45" font-family="Helvetica,sans-Serif" font-size="9.00">1</text>
</g>
<!-- done -->
<g id="node2" class="node">
<title>done</title>
<path fill="#fbd9d9" stroke="#b03030" stroke-width="2" d="M291.25,-75C291.25,-75 78.75,-75 78.75,-75 72.75,-75 66.75,-69 66.75,-63 66.75,-63 66.75,-28 66.75,-28 66.75,-22 72.75,-16 78.75,-16 78.75,-16 291.25,-16 291.25,-16 297.25,-16 303.25,-22 303.25,-28 303.25,-28 303.25,-63 303.25,-63 303.25,-69 297.25,-75 291.25,-75"/>
<text text-anchor="middle" x="185" y="-61.5" font-family="Helvetica,sans-Serif" font-size="10.00" fill="#7a1f1f">✖ MCP client timeout at 30 s — tool ERRORS,</text>
<text text-anchor="middle" x="185" y="-48.75" font-family="Helvetica,sans-Serif" font-size="10.00" fill="#7a1f1f">backend keeps burning CPU to @34s</text>
<text text-anchor="middle" x="185" y="-36" font-family="Helvetica,sans-Serif" font-size="10.00" fill="#7a1f1f">@33785ms</text>
<text text-anchor="middle" x="185" y="-23.25" font-family="Helvetica,sans-Serif" font-size="10.00" fill="#7a1f1f">3.73973 s</text>
</g>
<!-- s1 -->
<g id="node4" class="node">
<title>s1</title>
<path fill="#dbe9fb" stroke="black" d="M567.5,-957C567.5,-957 368.5,-957 368.5,-957 362.5,-957 356.5,-951 356.5,-945 356.5,-945 356.5,-910 356.5,-910 356.5,-904 362.5,-898 368.5,-898 368.5,-898 567.5,-898 567.5,-898 573.5,-898 579.5,-904 579.5,-910 579.5,-910 579.5,-945 579.5,-945 579.5,-951 573.5,-957 567.5,-957"/>
<text text-anchor="middle" x="468" y="-943.5" font-family="Helvetica,sans-Serif" font-size="10.00">check memory similarity links</text>
<text text-anchor="middle" x="468" y="-930.75" font-family="Helvetica,sans-Serif" font-size="10.00">invariants._check_memory_similarity_link</text>
<text text-anchor="middle" x="468" y="-918" font-family="Helvetica,sans-Serif" font-size="10.00">@34ms</text>
<text text-anchor="middle" x="468" y="-905.25" font-family="Helvetica,sans-Serif" font-size="10.00">132.38 ms</text>
</g>
<!-- s0&#45;&gt;s1 -->
<g id="edge2" class="edge">
<title>s0&#45;&gt;s1</title>
<path fill="none" stroke="#333333" d="M426.13,-1008.03C432.7,-995.55 440.49,-980.74 447.57,-967.3"/>
<polygon fill="#333333" stroke="#333333" points="450.54,-969.18 452.1,-958.7 444.34,-965.92 450.54,-969.18"/>
<text text-anchor="middle" x="444.21" y="-979.7" font-family="Helvetica,sans-Serif" font-size="9.00">2</text>
</g>
<!-- s2 -->
<g id="node5" class="node">
<title>s2</title>
<path fill="#dbe9fb" stroke="black" d="M574.88,-846.75C574.88,-846.75 399.12,-846.75 399.12,-846.75 393.12,-846.75 387.12,-840.75 387.12,-834.75 387.12,-834.75 387.12,-799.75 387.12,-799.75 387.12,-793.75 393.12,-787.75 399.12,-787.75 399.12,-787.75 574.88,-787.75 574.88,-787.75 580.88,-787.75 586.88,-793.75 586.88,-799.75 586.88,-799.75 586.88,-834.75 586.88,-834.75 586.88,-840.75 580.88,-846.75 574.88,-846.75"/>
<text text-anchor="middle" x="487" y="-833.25" font-family="Helvetica,sans-Serif" font-size="10.00">check memory transitions</text>
<text text-anchor="middle" x="487" y="-820.5" font-family="Helvetica,sans-Serif" font-size="10.00">invariants._check_memory_transition</text>
<text text-anchor="middle" x="487" y="-807.75" font-family="Helvetica,sans-Serif" font-size="10.00">@167ms</text>
<text text-anchor="middle" x="487" y="-795" font-family="Helvetica,sans-Serif" font-size="10.00">5.01409 s</text>
</g>
<!-- s1&#45;&gt;s2 -->
<g id="edge3" class="edge">
<title>s1&#45;&gt;s2</title>
<path fill="none" stroke="#333333" d="M473.04,-897.78C475.17,-885.66 477.68,-871.36 479.98,-858.24"/>
<polygon fill="#333333" stroke="#333333" points="483.39,-859.05 481.67,-848.6 476.5,-857.84 483.39,-859.05"/>
<text text-anchor="middle" x="481.07" y="-869.45" font-family="Helvetica,sans-Serif" font-size="9.00">3</text>
</g>
<!-- s3 -->
<g id="node6" class="node">
<title>s3</title>
<path fill="#fce3d6" stroke="black" d="M656.75,-736.5C656.75,-736.5 339.25,-736.5 339.25,-736.5 333.25,-736.5 327.25,-730.5 327.25,-724.5 327.25,-724.5 327.25,-689.5 327.25,-689.5 327.25,-683.5 333.25,-677.5 339.25,-677.5 339.25,-677.5 656.75,-677.5 656.75,-677.5 662.75,-677.5 668.75,-683.5 668.75,-689.5 668.75,-689.5 668.75,-724.5 668.75,-724.5 668.75,-730.5 662.75,-736.5 656.75,-736.5"/>
<text text-anchor="middle" x="498" y="-723" font-family="Helvetica,sans-Serif" font-size="10.00">HTTP POST to backend (slow SurrealDB invariant scan — THE wall)</text>
<text text-anchor="middle" x="498" y="-710.25" font-family="Helvetica,sans-Serif" font-size="10.00">POST</text>
<text text-anchor="middle" x="498" y="-697.5" font-family="Helvetica,sans-Serif" font-size="10.00">@167ms</text>
<text text-anchor="middle" x="498" y="-684.75" font-family="Helvetica,sans-Serif" font-size="10.00">27.3905 s</text>
</g>
<!-- s2&#45;&gt;s3 -->
<g id="edge4" class="edge">
<title>s2&#45;&gt;s3</title>
<path fill="none" stroke="#333333" d="M489.92,-787.53C491.15,-775.41 492.6,-761.11 493.94,-747.99"/>
<polygon fill="#333333" stroke="#333333" points="497.39,-748.67 494.91,-738.36 490.42,-747.96 497.39,-748.67"/>
<text text-anchor="middle" x="495.83" y="-759.2" font-family="Helvetica,sans-Serif" font-size="9.00">4</text>
</g>
<!-- s4 -->
<g id="node7" class="node">
<title>s4</title>
<path fill="#dbe9fb" stroke="black" d="M569.88,-626.25C569.88,-626.25 424.12,-626.25 424.12,-626.25 418.12,-626.25 412.12,-620.25 412.12,-614.25 412.12,-614.25 412.12,-579.25 412.12,-579.25 412.12,-573.25 418.12,-567.25 424.12,-567.25 424.12,-567.25 569.88,-567.25 569.88,-567.25 575.88,-567.25 581.88,-573.25 581.88,-579.25 581.88,-579.25 581.88,-614.25 581.88,-614.25 581.88,-620.25 575.88,-626.25 569.88,-626.25"/>
<text text-anchor="middle" x="497" y="-612.75" font-family="Helvetica,sans-Serif" font-size="10.00">check entity relationships</text>
<text text-anchor="middle" x="497" y="-600" font-family="Helvetica,sans-Serif" font-size="10.00">invariants._check_relationships</text>
<text text-anchor="middle" x="497" y="-587.25" font-family="Helvetica,sans-Serif" font-size="10.00">@32590ms</text>
<text text-anchor="middle" x="497" y="-574.5" font-family="Helvetica,sans-Serif" font-size="10.00">82.74 ms</text>
</g>
<!-- s3&#45;&gt;s4 -->
<g id="edge5" class="edge">
<title>s3&#45;&gt;s4</title>
<path fill="none" stroke="#333333" d="M497.73,-677.28C497.62,-665.16 497.49,-650.86 497.37,-637.74"/>
<polygon fill="#333333" stroke="#333333" points="500.87,-638.09 497.28,-628.12 493.87,-638.15 500.87,-638.09"/>
<text text-anchor="middle" x="500.53" y="-648.95" font-family="Helvetica,sans-Serif" font-size="9.00">5</text>
</g>
<!-- s5 -->
<g id="node8" class="node">
<title>s5</title>
<path fill="#dbe9fb" stroke="black" d="M541.62,-516C541.62,-516 394.38,-516 394.38,-516 388.38,-516 382.38,-510 382.38,-504 382.38,-504 382.38,-469 382.38,-469 382.38,-463 388.38,-457 394.38,-457 394.38,-457 541.62,-457 541.62,-457 547.62,-457 553.62,-463 553.62,-469 553.62,-469 553.62,-504 553.62,-504 553.62,-510 547.62,-516 541.62,-516"/>
<text text-anchor="middle" x="468" y="-502.5" font-family="Helvetica,sans-Serif" font-size="10.00">check wiki cross&#45;references</text>
<text text-anchor="middle" x="468" y="-489.75" font-family="Helvetica,sans-Serif" font-size="10.00">invariants._check_wiki_crossref</text>
<text text-anchor="middle" x="468" y="-477" font-family="Helvetica,sans-Serif" font-size="10.00">@32699ms</text>
<text text-anchor="middle" x="468" y="-464.25" font-family="Helvetica,sans-Serif" font-size="10.00">80.66 ms</text>
</g>
<!-- s4&#45;&gt;s5 -->
<g id="edge6" class="edge">
<title>s4&#45;&gt;s5</title>
<path fill="none" stroke="#333333" d="M489.3,-567.03C486.03,-554.79 482.15,-540.32 478.61,-527.1"/>
<polygon fill="#333333" stroke="#333333" points="482.09,-526.57 476.12,-517.82 475.33,-528.39 482.09,-526.57"/>
<text text-anchor="middle" x="486.37" y="-538.7" font-family="Helvetica,sans-Serif" font-size="9.00">6</text>
</g>
<!-- s6 -->
<g id="node9" class="node">
<title>s6</title>
<path fill="#dbe9fb" stroke="black" d="M555,-405.75C555,-405.75 353,-405.75 353,-405.75 347,-405.75 341,-399.75 341,-393.75 341,-393.75 341,-358.75 341,-358.75 341,-352.75 347,-346.75 353,-346.75 353,-346.75 555,-346.75 555,-346.75 561,-346.75 567,-352.75 567,-358.75 567,-358.75 567,-393.75 567,-393.75 567,-399.75 561,-405.75 555,-405.75"/>
<text text-anchor="middle" x="454" y="-392.25" font-family="Helvetica,sans-Serif" font-size="10.00">check memory/entity orphans</text>
<text text-anchor="middle" x="454" y="-379.5" font-family="Helvetica,sans-Serif" font-size="10.00">invariants._check_memory_entity_orphans</text>
<text text-anchor="middle" x="454" y="-366.75" font-family="Helvetica,sans-Serif" font-size="10.00">@32780ms</text>
<text text-anchor="middle" x="454" y="-354" font-family="Helvetica,sans-Serif" font-size="10.00">153.78 ms</text>
</g>
<!-- s5&#45;&gt;s6 -->
<g id="edge7" class="edge">
<title>s5&#45;&gt;s6</title>
<path fill="none" stroke="#333333" d="M464.29,-456.78C462.72,-444.66 460.87,-430.36 459.17,-417.24"/>
<polygon fill="#333333" stroke="#333333" points="462.68,-417.08 457.93,-407.61 455.74,-417.98 462.68,-417.08"/>
<text text-anchor="middle" x="464.42" y="-428.45" font-family="Helvetica,sans-Serif" font-size="9.00">7</text>
</g>
<!-- s7 -->
<g id="node10" class="node">
<title>s7</title>
<path fill="#dbe9fb" stroke="black" d="M547.12,-295.5C547.12,-295.5 342.88,-295.5 342.88,-295.5 336.88,-295.5 330.88,-289.5 330.88,-283.5 330.88,-283.5 330.88,-248.5 330.88,-248.5 330.88,-242.5 336.88,-236.5 342.88,-236.5 342.88,-236.5 547.12,-236.5 547.12,-236.5 553.12,-236.5 559.12,-242.5 559.12,-248.5 559.12,-248.5 559.12,-283.5 559.12,-283.5 559.12,-289.5 553.12,-295.5 547.12,-295.5"/>
<text text-anchor="middle" x="445" y="-282" font-family="Helvetica,sans-Serif" font-size="10.00">check engram slot distribution</text>
<text text-anchor="middle" x="445" y="-269.25" font-family="Helvetica,sans-Serif" font-size="10.00">invariants._check_engram_slot_distribution</text>
<text text-anchor="middle" x="445" y="-256.5" font-family="Helvetica,sans-Serif" font-size="10.00">@33007ms</text>
<text text-anchor="middle" x="445" y="-243.75" font-family="Helvetica,sans-Serif" font-size="10.00">589.38 ms</text>
</g>
<!-- s6&#45;&gt;s7 -->
<g id="edge8" class="edge">
<title>s6&#45;&gt;s7</title>
<path fill="none" stroke="#333333" d="M451.61,-346.53C450.6,-334.41 449.42,-320.11 448.33,-306.99"/>
<polygon fill="#333333" stroke="#333333" points="451.84,-307.04 447.52,-297.37 444.87,-307.62 451.84,-307.04"/>
<text text-anchor="middle" x="452.77" y="-318.2" font-family="Helvetica,sans-Serif" font-size="9.00">8</text>
</g>
<!-- s8 -->
<g id="node11" class="node">
<title>s8</title>
<path fill="#dbe9fb" stroke="black" d="M506.62,-185.25C506.62,-185.25 353.38,-185.25 353.38,-185.25 347.38,-185.25 341.38,-179.25 341.38,-173.25 341.38,-173.25 341.38,-138.25 341.38,-138.25 341.38,-132.25 347.38,-126.25 353.38,-126.25 353.38,-126.25 506.62,-126.25 506.62,-126.25 512.62,-126.25 518.62,-132.25 518.62,-138.25 518.62,-138.25 518.62,-173.25 518.62,-173.25 518.62,-179.25 512.62,-185.25 506.62,-185.25"/>
<text text-anchor="middle" x="430" y="-171.75" font-family="Helvetica,sans-Serif" font-size="10.00">check per&#45;table size</text>
<text text-anchor="middle" x="430" y="-159" font-family="Helvetica,sans-Serif" font-size="10.00">invariants._check_per_table_size</text>
<text text-anchor="middle" x="430" y="-146.25" font-family="Helvetica,sans-Serif" font-size="10.00">@33619ms</text>
<text text-anchor="middle" x="430" y="-133.5" font-family="Helvetica,sans-Serif" font-size="10.00">164.55 ms</text>
</g>
<!-- s7&#45;&gt;s8 -->
<g id="edge9" class="edge">
<title>s7&#45;&gt;s8</title>
<path fill="none" stroke="#333333" d="M441.02,-236.28C439.34,-224.16 437.36,-209.86 435.54,-196.74"/>
<polygon fill="#333333" stroke="#333333" points="439.05,-196.53 434.21,-187.11 432.11,-197.49 439.05,-196.53"/>
<text text-anchor="middle" x="440.95" y="-207.95" font-family="Helvetica,sans-Serif" font-size="9.00">9</text>
</g>
<!-- s8&#45;&gt;done -->
<g id="edge10" class="edge">
<title>s8&#45;&gt;done</title>
<path fill="none" stroke="#333333" d="M364.67,-125.88C332.68,-111.75 293.99,-94.65 260.72,-79.95"/>
<polygon fill="#333333" stroke="#333333" points="262.52,-76.93 251.96,-76.09 259.69,-83.33 262.52,-76.93"/>
<text text-anchor="middle" x="320.85" y="-97.7" font-family="Helvetica,sans-Serif" font-size="9.00">10</text>
</g>
</g>
</svg>
