<?xml version="1.0" encoding="UTF-8" standalone="no"?>
<!DOCTYPE svg PUBLIC "-//W3C//DTD SVG 1.1//EN"
 "http://www.w3.org/Graphics/SVG/1.1/DTD/svg11.dtd">
<!-- Generated by graphviz version 12.2.1 (0)
 -->
<!-- Title: flow Pages: 1 -->
<svg width="485pt" height="363pt"
 viewBox="0.00 0.00 485.25 363.25" xmlns="http://www.w3.org/2000/svg" xmlns:xlink="http://www.w3.org/1999/xlink">
<g id="graph0" class="graph" transform="scale(1 1) rotate(0) translate(4 359.25)">
<title>flow</title>
<polygon fill="white" stroke="none" points="-4,4 -4,-359.25 481.25,-359.25 481.25,4 -4,4"/>
<text text-anchor="middle" x="238.62" y="-340.8" font-family="Helvetica,sans-Serif" font-size="11.00">memory_get — simplified trace (2026&#45;07&#45;09, core 5.117 / backend 5.30)</text>
<text text-anchor="middle" x="238.62" y="-327.3" font-family="Helvetica,sans-Serif" font-size="11.00">trace f8c0d686 · total 28.1 ms · key cost: POST (in get_memory) = 21.17 ms (75%)</text>
<g id="clust1" class="cluster">
<title>cluster_core</title>
<polygon fill="#4a72a8" stroke="#4a72a8" points="140.62,-8 140.62,-312.25 336.62,-312.25 336.62,-8 140.62,-8"/>
<text text-anchor="middle" x="238.62" y="-297.8" font-family="Helvetica,sans-Serif" font-weight="bold" font-size="11.00" fill="#26456b">Core process (yadgar&#45;core)</text>
</g>
<!-- entry -->
<g id="node1" class="node">
<title>entry</title>
<path fill="#dbe9fb" stroke="black" d="M316.75,-282.75C316.75,-282.75 160.5,-282.75 160.5,-282.75 154.5,-282.75 148.5,-276.75 148.5,-270.75 148.5,-270.75 148.5,-235.75 148.5,-235.75 148.5,-229.75 154.5,-223.75 160.5,-223.75 160.5,-223.75 316.75,-223.75 316.75,-223.75 322.75,-223.75 328.75,-229.75 328.75,-235.75 328.75,-235.75 328.75,-270.75 328.75,-270.75 328.75,-276.75 322.75,-282.75 316.75,-282.75"/>
<text text-anchor="middle" x="238.62" y="-269.25" font-family="Helvetica,sans-Serif" font-size="10.00">memory_get() entry</text>
<text text-anchor="middle" x="238.62" y="-256.5" font-family="Helvetica,sans-Serif" font-size="10.00">MCP dispatch → tool.memory_get</text>
<text text-anchor="middle" x="238.62" y="-243.75" font-family="Helvetica,sans-Serif" font-size="10.00">@2.7ms</text>
<text text-anchor="middle" x="238.62" y="-231" font-family="Helvetica,sans-Serif" font-size="10.00">2.66 ms</text>
</g>
<!-- s0 -->
<g id="node2" class="node">
<title>s0</title>
<path fill="#fce3d6" stroke="black" d="M289.75,-172.5C289.75,-172.5 187.5,-172.5 187.5,-172.5 181.5,-172.5 175.5,-166.5 175.5,-160.5 175.5,-160.5 175.5,-125.5 175.5,-125.5 175.5,-119.5 181.5,-113.5 187.5,-113.5 187.5,-113.5 289.75,-113.5 289.75,-113.5 295.75,-113.5 301.75,-119.5 301.75,-125.5 301.75,-125.5 301.75,-160.5 301.75,-160.5 301.75,-166.5 295.75,-172.5 289.75,-172.5"/>
<text text-anchor="middle" x="238.62" y="-159" font-family="Helvetica,sans-Serif" font-size="10.00">POST (in get_memory)</text>
<text text-anchor="middle" x="238.62" y="-146.25" font-family="Helvetica,sans-Serif" font-size="10.00">POST</text>
<text text-anchor="middle" x="238.62" y="-133.5" font-family="Helvetica,sans-Serif" font-size="10.00">@3.1ms</text>
<text text-anchor="middle" x="238.62" y="-120.75" font-family="Helvetica,sans-Serif" font-size="10.00">21.17 ms</text>
</g>
<!-- entry&#45;&gt;s0 -->
<g id="edge1" class="edge">
<title>entry&#45;&gt;s0</title>
<path fill="none" stroke="#333333" d="M238.62,-223.53C238.62,-211.41 238.62,-197.11 238.62,-183.99"/>
<polygon fill="#333333" stroke="#333333" points="242.13,-184.37 238.63,-174.37 235.13,-184.37 242.13,-184.37"/>
<text text-anchor="middle" x="241.62" y="-195.2" font-family="Helvetica,sans-Serif" font-size="9.00">1</text>
</g>
<!-- done -->
<g id="node3" class="node">
<title>done</title>
<path fill="#dbe9fb" stroke="black" d="M270.62,-62.25C270.62,-62.25 206.62,-62.25 206.62,-62.25 200.62,-62.25 194.62,-56.25 194.62,-50.25 194.62,-50.25 194.62,-28 194.62,-28 194.62,-22 200.62,-16 206.62,-16 206.62,-16 270.62,-16 270.62,-16 276.62,-16 282.62,-22 282.62,-28 282.62,-28 282.62,-50.25 282.62,-50.25 282.62,-56.25 276.62,-62.25 270.62,-62.25"/>
<text text-anchor="middle" x="238.62" y="-48.75" font-family="Helvetica,sans-Serif" font-size="10.00">result returned</text>
<text text-anchor="middle" x="238.62" y="-36" font-family="Helvetica,sans-Serif" font-size="10.00">@28.1ms</text>
<text text-anchor="middle" x="238.62" y="-23.25" font-family="Helvetica,sans-Serif" font-size="10.00">2.62 ms</text>
</g>
<!-- s0&#45;&gt;done -->
<g id="edge2" class="edge">
<title>s0&#45;&gt;done</title>
<path fill="none" stroke="#333333" d="M238.62,-113.08C238.62,-100.95 238.62,-86.77 238.62,-74.14"/>
<polygon fill="#333333" stroke="#333333" points="242.13,-74.15 238.63,-64.15 235.13,-74.15 242.13,-74.15"/>
<text text-anchor="middle" x="241.62" y="-84.95" font-family="Helvetica,sans-Serif" font-size="9.00">2</text>
</g>
</g>
</svg>
