<?xml version="1.0" encoding="UTF-8" standalone="no"?>
<!DOCTYPE svg PUBLIC "-//W3C//DTD SVG 1.1//EN"
 "http://www.w3.org/Graphics/SVG/1.1/DTD/svg11.dtd">
<!-- Generated by graphviz version 12.2.1 (0)
 -->
<!-- Title: flow Pages: 1 -->
<svg width="565pt" height="1684pt"
 viewBox="0.00 0.00 565.00 1683.53" xmlns="http://www.w3.org/2000/svg" xmlns:xlink="http://www.w3.org/1999/xlink">
<g id="graph0" class="graph" transform="scale(1 1) rotate(0) translate(4 1679.53)">
<title>flow</title>
<polygon fill="white" stroke="none" points="-4,4 -4,-1679.53 561,-1679.53 561,4 -4,4"/>
<text text-anchor="middle" x="278.5" y="-1661.08" font-family="Helvetica,sans-Serif" font-size="11.00">Recall (warm) — cache MISS</text>
<text text-anchor="middle" x="278.5" y="-1647.58" font-family="Helvetica,sans-Serif" font-size="11.00">EMBED_CACHE + CE_CACHE both miss; models warm. Timings: recall&#45;warm&#45;profile&#45;2026&#45;07&#45;02</text>
<text text-anchor="middle" x="278.5" y="-1634.08" font-family="Helvetica,sans-Serif" font-size="11.00">total ≈ 2.367 s</text>
<g id="clust1" class="cluster">
<title>cluster_core</title>
<polygon fill="#4a72a8" stroke="#4a72a8" points="8,-8 8,-1619.03 240,-1619.03 240,-8 8,-8"/>
<text text-anchor="middle" x="124" y="-1604.58" font-family="Helvetica,sans-Serif" font-weight="bold" font-size="11.00" fill="#26456b">Core process (&#45;&#45;cpus 1)</text>
</g>
<g id="clust2" class="cluster">
<title>cluster_backend</title>
<polygon fill="#b5744a" stroke="#b5744a" points="248,-171.27 248,-1237.11 549,-1237.11 549,-171.27 248,-171.27"/>
<text text-anchor="middle" x="398.5" y="-1222.66" font-family="Helvetica,sans-Serif" font-weight="bold" font-size="11.00" fill="#7a4620">Backend (&#45;&#45;cpus 2): SurrealDB + rerank server</text>
</g>
<!-- entry -->
<g id="node1" class="node">
<title>entry</title>
<ellipse fill="#d6d6d6" stroke="black" cx="124" cy="-1481.69" rx="107.83" ry="107.83"/>
<text text-anchor="middle" x="124" y="-1491.32" font-family="Helvetica,sans-Serif" font-size="10.00">recall() entry</text>
<text text-anchor="middle" x="124" y="-1478.57" font-family="Helvetica,sans-Serif" font-size="10.00">validate + detect branch/dir</text>
<text text-anchor="middle" x="124" y="-1465.82" font-family="Helvetica,sans-Serif" font-size="10.00">2 ms</text>
</g>
<!-- qanalysis -->
<g id="node2" class="node">
<title>qanalysis</title>
<path fill="#dbe9fb" stroke="black" d="M204.75,-1322.61C204.75,-1322.61 127.25,-1322.61 127.25,-1322.61 121.25,-1322.61 115.25,-1316.61 115.25,-1310.61 115.25,-1310.61 115.25,-1288.36 115.25,-1288.36 115.25,-1282.36 121.25,-1276.36 127.25,-1276.36 127.25,-1276.36 204.75,-1276.36 204.75,-1276.36 210.75,-1276.36 216.75,-1282.36 216.75,-1288.36 216.75,-1288.36 216.75,-1310.61 216.75,-1310.61 216.75,-1316.61 210.75,-1322.61 204.75,-1322.61"/>
<text text-anchor="middle" x="166" y="-1309.11" font-family="Helvetica,sans-Serif" font-size="10.00">query analysis</text>
<text text-anchor="middle" x="166" y="-1296.36" font-family="Helvetica,sans-Serif" font-size="10.00">entities + routing</text>
<text text-anchor="middle" x="166" y="-1283.61" font-family="Helvetica,sans-Serif" font-size="10.00">3 ms</text>
</g>
<!-- entry&#45;&gt;qanalysis -->
<g id="edge1" class="edge">
<title>entry&#45;&gt;qanalysis</title>
<path fill="none" stroke="#333333" d="M148.31,-1376.39C151.88,-1361.05 155.33,-1346.28 158.21,-1333.91"/>
<polygon fill="#333333" stroke="#333333" points="161.59,-1334.85 160.45,-1324.31 154.77,-1333.26 161.59,-1334.85"/>
<text text-anchor="middle" x="158.85" y="-1345.31" font-family="Helvetica,sans-Serif" font-size="9.00">1</text>
</g>
<!-- embed -->
<g id="node7" class="node">
<title>embed</title>
<polygon fill="#f5e1f5" stroke="black" points="453.75,-1207.61 256.25,-1207.61 256.25,-1161.36 453.75,-1161.36 453.75,-1207.61"/>
<text text-anchor="middle" x="355" y="-1194.11" font-family="Helvetica,sans-Serif" font-size="10.00">query embed</text>
<text text-anchor="middle" x="355" y="-1181.36" font-family="Helvetica,sans-Serif" font-size="10.00">[EMBED_CACHE MISS &#45;&gt; model runs]</text>
<text text-anchor="middle" x="355" y="-1168.61" font-family="Helvetica,sans-Serif" font-size="10.00">40 ms</text>
</g>
<!-- qanalysis&#45;&gt;embed -->
<g id="edge2" class="edge">
<title>qanalysis&#45;&gt;embed</title>
<path fill="none" stroke="#333333" d="M203.79,-1275.89C233.67,-1258.03 275.54,-1233 307.65,-1213.8"/>
<polygon fill="#333333" stroke="#333333" points="309.19,-1216.95 315.97,-1208.82 305.59,-1210.95 309.19,-1216.95"/>
<text text-anchor="middle" x="257.83" y="-1247.81" font-family="Helvetica,sans-Serif" font-size="9.00">2</text>
</g>
<!-- ppr -->
<g id="node3" class="node">
<title>ppr</title>
<path fill="#dbe9fb" stroke="black" d="M220.38,-720.11C220.38,-720.11 41.62,-720.11 41.62,-720.11 35.62,-720.11 29.62,-714.11 29.62,-708.11 29.62,-708.11 29.62,-685.86 29.62,-685.86 29.62,-679.86 35.62,-673.86 41.62,-673.86 41.62,-673.86 220.38,-673.86 220.38,-673.86 226.38,-673.86 232.38,-679.86 232.38,-685.86 232.38,-685.86 232.38,-708.11 232.38,-708.11 232.38,-714.11 226.38,-720.11 220.38,-720.11"/>
<text text-anchor="middle" x="131" y="-706.61" font-family="Helvetica,sans-Serif" font-size="10.00">personalized PageRank</text>
<text text-anchor="middle" x="131" y="-693.86" font-family="Helvetica,sans-Serif" font-size="10.00">networkx (core CPU, 0&#45;620 query&#45;dep)</text>
<text text-anchor="middle" x="131" y="-681.11" font-family="Helvetica,sans-Serif" font-size="10.00">300 ms</text>
</g>
<!-- fusion -->
<g id="node4" class="node">
<title>fusion</title>
<path fill="#dbe9fb" stroke="black" d="M209.25,-622.61C209.25,-622.61 110.75,-622.61 110.75,-622.61 104.75,-622.61 98.75,-616.61 98.75,-610.61 98.75,-610.61 98.75,-588.36 98.75,-588.36 98.75,-582.36 104.75,-576.36 110.75,-576.36 110.75,-576.36 209.25,-576.36 209.25,-576.36 215.25,-576.36 221.25,-582.36 221.25,-588.36 221.25,-588.36 221.25,-610.61 221.25,-610.61 221.25,-616.61 215.25,-622.61 209.25,-622.61"/>
<text text-anchor="middle" x="160" y="-609.11" font-family="Helvetica,sans-Serif" font-size="10.00">WRRF / convex fusion</text>
<text text-anchor="middle" x="160" y="-596.36" font-family="Helvetica,sans-Serif" font-size="10.00">merge signals</text>
<text text-anchor="middle" x="160" y="-583.61" font-family="Helvetica,sans-Serif" font-size="10.00">2 ms</text>
</g>
<!-- ppr&#45;&gt;fusion -->
<g id="edge8" class="edge">
<title>ppr&#45;&gt;fusion</title>
<path fill="none" stroke="#333333" d="M137.73,-673.84C141.36,-661.87 145.92,-646.86 149.96,-633.53"/>
<polygon fill="#333333" stroke="#333333" points="153.21,-634.88 152.77,-624.29 146.52,-632.85 153.21,-634.88"/>
<text text-anchor="middle" x="161.74" y="-645.31" font-family="Helvetica,sans-Serif" font-size="9.00">signals</text>
</g>
<!-- fetch -->
<g id="node12" class="node">
<title>fetch</title>
<path fill="#fce3d6" stroke="black" d="M515.5,-525.11C515.5,-525.11 268.5,-525.11 268.5,-525.11 262.5,-525.11 256.5,-519.11 256.5,-513.11 256.5,-513.11 256.5,-490.86 256.5,-490.86 256.5,-484.86 262.5,-478.86 268.5,-478.86 268.5,-478.86 515.5,-478.86 515.5,-478.86 521.5,-478.86 527.5,-484.86 527.5,-490.86 527.5,-490.86 527.5,-513.11 527.5,-513.11 527.5,-519.11 521.5,-525.11 515.5,-525.11"/>
<text text-anchor="middle" x="392" y="-511.61" font-family="Helvetica,sans-Serif" font-size="10.00">fusion final&#45;fetch</text>
<text text-anchor="middle" x="392" y="-498.86" font-family="Helvetica,sans-Serif" font-size="10.00">[N+1: 52x get_memory @18.7ms = BATCH TARGET]</text>
<text text-anchor="middle" x="392" y="-486.11" font-family="Helvetica,sans-Serif" font-size="10.00">1.1 s</text>
</g>
<!-- fusion&#45;&gt;fetch -->
<g id="edge9" class="edge">
<title>fusion&#45;&gt;fetch</title>
<path fill="none" stroke="#333333" d="M214.69,-575.97C248.34,-562.12 291.65,-544.29 327.05,-529.72"/>
<polygon fill="#333333" stroke="#333333" points="327.96,-533.13 335.88,-526.09 325.3,-526.66 327.96,-533.13"/>
<text text-anchor="middle" x="316.71" y="-547.81" font-family="Helvetica,sans-Serif" font-size="9.00">top candidates</text>
</g>
<!-- dedup -->
<g id="node5" class="node">
<title>dedup</title>
<path fill="#dbe9fb" stroke="black" d="M220.38,-330.11C220.38,-330.11 113.62,-330.11 113.62,-330.11 107.62,-330.11 101.62,-324.11 101.62,-318.11 101.62,-318.11 101.62,-306.11 101.62,-306.11 101.62,-300.11 107.62,-294.11 113.62,-294.11 113.62,-294.11 220.38,-294.11 220.38,-294.11 226.38,-294.11 232.38,-300.11 232.38,-306.11 232.38,-306.11 232.38,-318.11 232.38,-318.11 232.38,-324.11 226.38,-330.11 220.38,-330.11"/>
<text text-anchor="middle" x="167" y="-315.36" font-family="Helvetica,sans-Serif" font-size="10.00">dedup + MMR diversity</text>
<text text-anchor="middle" x="167" y="-302.61" font-family="Helvetica,sans-Serif" font-size="10.00">3 ms</text>
</g>
<!-- heat -->
<g id="node14" class="node">
<title>heat</title>
<path fill="#fce3d6" stroke="black" d="M387.75,-237.08C387.75,-240.27 358.28,-242.86 322,-242.86 285.72,-242.86 256.25,-240.27 256.25,-237.08 256.25,-237.08 256.25,-185.05 256.25,-185.05 256.25,-181.86 285.72,-179.27 322,-179.27 358.28,-179.27 387.75,-181.86 387.75,-185.05 387.75,-185.05 387.75,-237.08 387.75,-237.08"/>
<path fill="none" stroke="black" d="M387.75,-237.08C387.75,-233.89 358.28,-231.3 322,-231.3 285.72,-231.3 256.25,-233.89 256.25,-237.08"/>
<text text-anchor="middle" x="322" y="-220.69" font-family="Helvetica,sans-Serif" font-size="10.00">heat&#45;boost</text>
<text text-anchor="middle" x="322" y="-207.94" font-family="Helvetica,sans-Serif" font-size="10.00">(async, off critical path)</text>
<text text-anchor="middle" x="322" y="-195.19" font-family="Helvetica,sans-Serif" font-size="10.00">0 ms</text>
</g>
<!-- dedup&#45;&gt;heat -->
<g id="edge12" class="edge">
<title>dedup&#45;&gt;heat</title>
<path fill="none" stroke="#333333" d="M194.35,-293.63C214,-281.08 241.17,-263.72 265.4,-248.23"/>
<polygon fill="#333333" stroke="#333333" points="267.05,-251.33 273.59,-243 263.28,-245.43 267.05,-251.33"/>
<text text-anchor="middle" x="245.85" y="-265.56" font-family="Helvetica,sans-Serif" font-size="9.00">12</text>
</g>
<!-- results -->
<g id="node6" class="node">
<title>results</title>
<ellipse fill="#d6d6d6" stroke="black" cx="176" cy="-72.01" rx="52.01" ry="52.01"/>
<ellipse fill="none" stroke="black" cx="176" cy="-72.01" rx="56.01" ry="56.01"/>
<text text-anchor="middle" x="176" y="-68.88" font-family="Helvetica,sans-Serif" font-size="10.00">ranked results</text>
</g>
<!-- knn -->
<g id="node8" class="node">
<title>knn</title>
<path fill="#fce3d6" stroke="black" d="M395.38,-1110.11C395.38,-1110.11 312.62,-1110.11 312.62,-1110.11 306.62,-1110.11 300.62,-1104.11 300.62,-1098.11 300.62,-1098.11 300.62,-1075.86 300.62,-1075.86 300.62,-1069.86 306.62,-1063.86 312.62,-1063.86 312.62,-1063.86 395.38,-1063.86 395.38,-1063.86 401.38,-1063.86 407.38,-1069.86 407.38,-1075.86 407.38,-1075.86 407.38,-1098.11 407.38,-1098.11 407.38,-1104.11 401.38,-1110.11 395.38,-1110.11"/>
<text text-anchor="middle" x="354" y="-1096.61" font-family="Helvetica,sans-Serif" font-size="10.00">vector KNN search</text>
<text text-anchor="middle" x="354" y="-1083.86" font-family="Helvetica,sans-Serif" font-size="10.00">HNSW index</text>
<text text-anchor="middle" x="354" y="-1071.11" font-family="Helvetica,sans-Serif" font-size="10.00">25 ms</text>
</g>
<!-- embed&#45;&gt;knn -->
<g id="edge3" class="edge">
<title>embed&#45;&gt;knn</title>
<path fill="none" stroke="#333333" d="M354.77,-1161.34C354.65,-1149.61 354.49,-1134.95 354.35,-1121.84"/>
<polygon fill="#333333" stroke="#333333" points="357.85,-1121.82 354.25,-1111.86 350.85,-1121.9 357.85,-1121.82"/>
<text text-anchor="middle" x="383.4" y="-1132.81" font-family="Helvetica,sans-Serif" font-size="9.00">query vector</text>
</g>
<!-- fts -->
<g id="node9" class="node">
<title>fts</title>
<path fill="#fce3d6" stroke="black" d="M391.75,-1012.61C391.75,-1012.61 290.25,-1012.61 290.25,-1012.61 284.25,-1012.61 278.25,-1006.61 278.25,-1000.61 278.25,-1000.61 278.25,-978.36 278.25,-978.36 278.25,-972.36 284.25,-966.36 290.25,-966.36 290.25,-966.36 391.75,-966.36 391.75,-966.36 397.75,-966.36 403.75,-972.36 403.75,-978.36 403.75,-978.36 403.75,-1000.61 403.75,-1000.61 403.75,-1006.61 397.75,-1012.61 391.75,-1012.61"/>
<text text-anchor="middle" x="341" y="-999.11" font-family="Helvetica,sans-Serif" font-size="10.00">FTS BM25 search</text>
<text text-anchor="middle" x="341" y="-986.36" font-family="Helvetica,sans-Serif" font-size="10.00">branch clause injected</text>
<text text-anchor="middle" x="341" y="-973.61" font-family="Helvetica,sans-Serif" font-size="10.00">22 ms</text>
</g>
<!-- knn&#45;&gt;fts -->
<g id="edge4" class="edge">
<title>knn&#45;&gt;fts</title>
<path fill="none" stroke="#333333" d="M350.98,-1063.84C349.37,-1051.99 347.35,-1037.16 345.55,-1023.93"/>
<polygon fill="#333333" stroke="#333333" points="349.06,-1023.78 344.25,-1014.35 342.13,-1024.73 349.06,-1023.78"/>
<text text-anchor="middle" x="350.89" y="-1035.31" font-family="Helvetica,sans-Serif" font-size="9.00">4</text>
</g>
<!-- priors -->
<g id="node10" class="node">
<title>priors</title>
<path fill="#fce3d6" stroke="black" d="M397.12,-915.11C397.12,-915.11 270.88,-915.11 270.88,-915.11 264.88,-915.11 258.88,-909.11 258.88,-903.11 258.88,-903.11 258.88,-880.86 258.88,-880.86 258.88,-874.86 264.88,-868.86 270.88,-868.86 270.88,-868.86 397.12,-868.86 397.12,-868.86 403.12,-868.86 409.12,-874.86 409.12,-880.86 409.12,-880.86 409.12,-903.11 409.12,-903.11 409.12,-909.11 403.12,-915.11 397.12,-915.11"/>
<text text-anchor="middle" x="334" y="-901.61" font-family="Helvetica,sans-Serif" font-size="10.00">graph+cofire priors</text>
<text text-anchor="middle" x="334" y="-888.86" font-family="Helvetica,sans-Serif" font-size="10.00">[v5.96 BATCHED: 2 queries]</text>
<text text-anchor="middle" x="334" y="-876.11" font-family="Helvetica,sans-Serif" font-size="10.00">150 ms</text>
</g>
<!-- fts&#45;&gt;priors -->
<g id="edge5" class="edge">
<title>fts&#45;&gt;priors</title>
<path fill="none" stroke="#333333" d="M339.38,-966.34C338.51,-954.49 337.42,-939.66 336.45,-926.43"/>
<polygon fill="#333333" stroke="#333333" points="339.97,-926.57 335.75,-916.86 332.99,-927.08 339.97,-926.57"/>
<text text-anchor="middle" x="340.71" y="-937.81" font-family="Helvetica,sans-Serif" font-size="9.00">5</text>
</g>
<!-- spread -->
<g id="node11" class="node">
<title>spread</title>
<path fill="#fce3d6" stroke="black" d="M385,-817.61C385,-817.61 273,-817.61 273,-817.61 267,-817.61 261,-811.61 261,-805.61 261,-805.61 261,-783.36 261,-783.36 261,-777.36 267,-771.36 273,-771.36 273,-771.36 385,-771.36 385,-771.36 391,-771.36 397,-777.36 397,-783.36 397,-783.36 397,-805.61 397,-805.61 397,-811.61 391,-817.61 385,-817.61"/>
<text text-anchor="middle" x="329" y="-804.11" font-family="Helvetica,sans-Serif" font-size="10.00">spreading activation</text>
<text text-anchor="middle" x="329" y="-791.36" font-family="Helvetica,sans-Serif" font-size="10.00">[latent &#45; entity&#45;rich only]</text>
<text text-anchor="middle" x="329" y="-778.61" font-family="Helvetica,sans-Serif" font-size="10.00">0 ms</text>
</g>
<!-- priors&#45;&gt;spread -->
<g id="edge6" class="edge">
<title>priors&#45;&gt;spread</title>
<path fill="none" stroke="#333333" d="M332.84,-868.84C332.23,-857.11 331.46,-842.45 330.77,-829.34"/>
<polygon fill="#333333" stroke="#333333" points="334.27,-829.16 330.25,-819.36 327.28,-829.53 334.27,-829.16"/>
<text text-anchor="middle" x="334.65" y="-840.31" font-family="Helvetica,sans-Serif" font-size="9.00">6</text>
</g>
<!-- spread&#45;&gt;ppr -->
<g id="edge7" class="edge">
<title>spread&#45;&gt;ppr</title>
<path fill="none" stroke="#333333" d="M282.33,-770.97C254.1,-757.36 217.91,-739.9 188,-725.48"/>
<polygon fill="#333333" stroke="#333333" points="189.59,-722.36 179.07,-721.17 186.55,-728.67 189.59,-722.36"/>
<text text-anchor="middle" x="238.94" y="-742.81" font-family="Helvetica,sans-Serif" font-size="9.00">7</text>
</g>
<!-- cererank -->
<g id="node13" class="node">
<title>cererank</title>
<polygon fill="#f5e1f5" stroke="black" points="466.38,-427.61 275.62,-427.61 275.62,-381.36 466.38,-381.36 466.38,-427.61"/>
<text text-anchor="middle" x="371" y="-414.11" font-family="Helvetica,sans-Serif" font-size="10.00">CE rerank + MMR</text>
<text text-anchor="middle" x="371" y="-401.36" font-family="Helvetica,sans-Serif" font-size="10.00">[CE_CACHE MISS &#45;&gt; fp32 inference]</text>
<text text-anchor="middle" x="371" y="-388.61" font-family="Helvetica,sans-Serif" font-size="10.00">720 ms</text>
</g>
<!-- fetch&#45;&gt;cererank -->
<g id="edge10" class="edge">
<title>fetch&#45;&gt;cererank</title>
<path fill="none" stroke="#333333" d="M387.13,-478.84C384.52,-466.99 381.26,-452.16 378.36,-438.93"/>
<polygon fill="#333333" stroke="#333333" points="381.81,-438.34 376.24,-429.32 374.97,-439.84 381.81,-438.34"/>
<text text-anchor="middle" x="414.75" y="-450.31" font-family="Helvetica,sans-Serif" font-size="9.00">hydrated rows</text>
</g>
<!-- cererank&#45;&gt;dedup -->
<g id="edge11" class="edge">
<title>cererank&#45;&gt;dedup</title>
<path fill="none" stroke="#333333" d="M320.05,-380.91C288.45,-366.92 248.05,-349.02 216.69,-335.12"/>
<polygon fill="#333333" stroke="#333333" points="218.37,-332.04 207.81,-331.19 215.54,-338.44 218.37,-332.04"/>
<text text-anchor="middle" x="281.12" y="-352.81" font-family="Helvetica,sans-Serif" font-size="9.00">11</text>
</g>
<!-- heat&#45;&gt;results -->
<g id="edge13" class="edge">
<title>heat&#45;&gt;results</title>
<path fill="none" stroke="#333333" d="M288.87,-178.96C269.93,-161.18 245.83,-138.56 224.76,-118.78"/>
<polygon fill="#333333" stroke="#333333" points="227.34,-116.4 217.65,-112.11 222.55,-121.51 227.34,-116.4"/>
<text text-anchor="middle" x="272.37" y="-150.72" font-family="Helvetica,sans-Serif" font-size="9.00">13</text>
</g>
</g>
</svg>
