<?xml version="1.0" encoding="UTF-8" standalone="no"?>
<!DOCTYPE svg PUBLIC "-//W3C//DTD SVG 1.1//EN"
 "http://www.w3.org/Graphics/SVG/1.1/DTD/svg11.dtd">
<!-- Generated by graphviz version 12.2.1 (0)
 -->
<!-- Title: flow Pages: 1 -->
<svg width="535pt" height="1166pt"
 viewBox="0.00 0.00 534.75 1166.00" xmlns="http://www.w3.org/2000/svg" xmlns:xlink="http://www.w3.org/1999/xlink">
<g id="graph0" class="graph" transform="scale(1 1) rotate(0) translate(4 1162)">
<title>flow</title>
<polygon fill="white" stroke="none" points="-4,4 -4,-1162 530.75,-1162 530.75,4 -4,4"/>
<text text-anchor="middle" x="263.38" y="-1143.55" font-family="Helvetica,sans-Serif" font-size="11.00">restore — simplified trace (2026&#45;07&#45;09, core 5.117 / backend 5.30)</text>
<text text-anchor="middle" x="263.38" y="-1130.05" font-family="Helvetica,sans-Serif" font-size="11.00">trace ecef5bdb · total 944.4 ms · key cost: fetch hot memories (restore) = 500.65 ms (53%)</text>
<text text-anchor="middle" x="263.38" y="-1116.55" font-family="Helvetica,sans-Serif" font-size="11.00">ERROR — _predict_memories raises TypeError (task #16), stage marked red</text>
<g id="clust1" class="cluster">
<title>cluster_core</title>
<polygon fill="#4a72a8" stroke="#4a72a8" points="32.38,-8 32.38,-1101.5 306.38,-1101.5 306.38,-8 32.38,-8"/>
<text text-anchor="middle" x="169.38" y="-1087.05" font-family="Helvetica,sans-Serif" font-weight="bold" font-size="11.00" fill="#26456b">Core process (yadgar&#45;core)</text>
</g>
<g id="clust2" class="cluster">
<title>cluster_backend</title>
<polygon fill="#b5744a" stroke="#b5744a" points="314.38,-215.75 314.38,-312.25 494.38,-312.25 494.38,-215.75 314.38,-215.75"/>
<text text-anchor="middle" x="404.38" y="-297.8" font-family="Helvetica,sans-Serif" font-weight="bold" font-size="11.00" fill="#7a4620">Backend (yadgar&#45;backend)</text>
</g>
<!-- entry -->
<g id="node1" class="node">
<title>entry</title>
<path fill="#dbe9fb" stroke="black" d="M233.62,-1072C233.62,-1072 105.12,-1072 105.12,-1072 99.12,-1072 93.12,-1066 93.12,-1060 93.12,-1060 93.12,-1025 93.12,-1025 93.12,-1019 99.12,-1013 105.12,-1013 105.12,-1013 233.62,-1013 233.62,-1013 239.62,-1013 245.62,-1019 245.62,-1025 245.62,-1025 245.62,-1060 245.62,-1060 245.62,-1066 239.62,-1072 233.62,-1072"/>
<text text-anchor="middle" x="169.38" y="-1058.5" font-family="Helvetica,sans-Serif" font-size="10.00">restore() entry</text>
<text text-anchor="middle" x="169.38" y="-1045.75" font-family="Helvetica,sans-Serif" font-size="10.00">MCP dispatch → tool.restore</text>
<text text-anchor="middle" x="169.38" y="-1033" font-family="Helvetica,sans-Serif" font-size="10.00">@3ms</text>
<text text-anchor="middle" x="169.38" y="-1020.25" font-family="Helvetica,sans-Serif" font-size="10.00">2.68 ms</text>
</g>
<!-- s0 -->
<g id="node2" class="node">
<title>s0</title>
<path fill="#fce3d6" stroke="black" d="M247.12,-961.75C247.12,-961.75 91.62,-961.75 91.62,-961.75 85.62,-961.75 79.62,-955.75 79.62,-949.75 79.62,-949.75 79.62,-914.75 79.62,-914.75 79.62,-908.75 85.62,-902.75 91.62,-902.75 91.62,-902.75 247.12,-902.75 247.12,-902.75 253.12,-902.75 259.12,-908.75 259.12,-914.75 259.12,-914.75 259.12,-949.75 259.12,-949.75 259.12,-955.75 253.12,-961.75 247.12,-961.75"/>
<text text-anchor="middle" x="169.38" y="-948.25" font-family="Helvetica,sans-Serif" font-size="10.00">fetch active checkpoint</text>
<text text-anchor="middle" x="169.38" y="-935.5" font-family="Helvetica,sans-Serif" font-size="10.00">_OpsMixin.get_active_checkpoint</text>
<text text-anchor="middle" x="169.38" y="-922.75" font-family="Helvetica,sans-Serif" font-size="10.00">@3ms</text>
<text text-anchor="middle" x="169.38" y="-910" font-family="Helvetica,sans-Serif" font-size="10.00">22.59 ms</text>
</g>
<!-- entry&#45;&gt;s0 -->
<g id="edge1" class="edge">
<title>entry&#45;&gt;s0</title>
<path fill="none" stroke="#333333" d="M169.38,-1012.78C169.38,-1000.66 169.38,-986.36 169.38,-973.24"/>
<polygon fill="#333333" stroke="#333333" points="172.88,-973.62 169.38,-963.62 165.88,-973.62 172.88,-973.62"/>
<text text-anchor="middle" x="172.38" y="-984.45" font-family="Helvetica,sans-Serif" font-size="9.00">1</text>
</g>
<!-- s1 -->
<g id="node3" class="node">
<title>s1</title>
<path fill="#fce3d6" stroke="black" d="M283.5,-851.5C283.5,-851.5 55.25,-851.5 55.25,-851.5 49.25,-851.5 43.25,-845.5 43.25,-839.5 43.25,-839.5 43.25,-804.5 43.25,-804.5 43.25,-798.5 49.25,-792.5 55.25,-792.5 55.25,-792.5 283.5,-792.5 283.5,-792.5 289.5,-792.5 295.5,-798.5 295.5,-804.5 295.5,-804.5 295.5,-839.5 295.5,-839.5 295.5,-845.5 289.5,-851.5 283.5,-851.5"/>
<text text-anchor="middle" x="169.38" y="-838" font-family="Helvetica,sans-Serif" font-size="10.00">fetch anchored memories</text>
<text text-anchor="middle" x="169.38" y="-825.25" font-family="Helvetica,sans-Serif" font-size="10.00">_MemoryMixin.get_anchored_memories_scoped</text>
<text text-anchor="middle" x="169.38" y="-812.5" font-family="Helvetica,sans-Serif" font-size="10.00">@25ms</text>
<text text-anchor="middle" x="169.38" y="-799.75" font-family="Helvetica,sans-Serif" font-size="10.00">92.74 ms</text>
</g>
<!-- s0&#45;&gt;s1 -->
<g id="edge2" class="edge">
<title>s0&#45;&gt;s1</title>
<path fill="none" stroke="#333333" d="M169.38,-902.53C169.38,-890.41 169.38,-876.11 169.38,-862.99"/>
<polygon fill="#333333" stroke="#333333" points="172.88,-863.37 169.38,-853.37 165.88,-863.37 172.88,-863.37"/>
<text text-anchor="middle" x="172.38" y="-874.2" font-family="Helvetica,sans-Serif" font-size="9.00">2</text>
</g>
<!-- s2 -->
<g id="node4" class="node">
<title>s2</title>
<path fill="#fce3d6" stroke="black" d="M286.5,-741.25C286.5,-741.25 52.25,-741.25 52.25,-741.25 46.25,-741.25 40.25,-735.25 40.25,-729.25 40.25,-729.25 40.25,-694.25 40.25,-694.25 40.25,-688.25 46.25,-682.25 52.25,-682.25 52.25,-682.25 286.5,-682.25 286.5,-682.25 292.5,-682.25 298.5,-688.25 298.5,-694.25 298.5,-694.25 298.5,-729.25 298.5,-729.25 298.5,-735.25 292.5,-741.25 286.5,-741.25"/>
<text text-anchor="middle" x="169.38" y="-727.75" font-family="Helvetica,sans-Serif" font-size="10.00">fetch recent memories (restore)</text>
<text text-anchor="middle" x="169.38" y="-715" font-family="Helvetica,sans-Serif" font-size="10.00">CheckpointRestore._fetch_recent_memories_safe</text>
<text text-anchor="middle" x="169.38" y="-702.25" font-family="Helvetica,sans-Serif" font-size="10.00">@118ms</text>
<text text-anchor="middle" x="169.38" y="-689.5" font-family="Helvetica,sans-Serif" font-size="10.00">183.3 ms</text>
</g>
<!-- s1&#45;&gt;s2 -->
<g id="edge3" class="edge">
<title>s1&#45;&gt;s2</title>
<path fill="none" stroke="#333333" d="M169.38,-792.28C169.38,-780.16 169.38,-765.86 169.38,-752.74"/>
<polygon fill="#333333" stroke="#333333" points="172.88,-753.12 169.38,-743.12 165.88,-753.12 172.88,-753.12"/>
<text text-anchor="middle" x="172.38" y="-763.95" font-family="Helvetica,sans-Serif" font-size="9.00">3</text>
</g>
<!-- s3 -->
<g id="node5" class="node">
<title>s3</title>
<path fill="#fce3d6" stroke="black" d="M276.88,-631C276.88,-631 83.88,-631 83.88,-631 77.88,-631 71.88,-625 71.88,-619 71.88,-619 71.88,-584 71.88,-584 71.88,-578 77.88,-572 83.88,-572 83.88,-572 276.88,-572 276.88,-572 282.88,-572 288.88,-578 288.88,-584 288.88,-584 288.88,-619 288.88,-619 288.88,-625 282.88,-631 276.88,-631"/>
<text text-anchor="middle" x="180.38" y="-617.5" font-family="Helvetica,sans-Serif" font-size="10.00">fetch hot memories (restore)</text>
<text text-anchor="middle" x="180.38" y="-604.75" font-family="Helvetica,sans-Serif" font-size="10.00">CheckpointRestore._fetch_hot_memories</text>
<text text-anchor="middle" x="180.38" y="-592" font-family="Helvetica,sans-Serif" font-size="10.00">@302ms</text>
<text text-anchor="middle" x="180.38" y="-579.25" font-family="Helvetica,sans-Serif" font-size="10.00">500.65 ms</text>
</g>
<!-- s2&#45;&gt;s3 -->
<g id="edge4" class="edge">
<title>s2&#45;&gt;s3</title>
<path fill="none" stroke="#333333" d="M172.29,-682.03C173.52,-669.91 174.98,-655.61 176.31,-642.49"/>
<polygon fill="#333333" stroke="#333333" points="179.76,-643.17 177.29,-632.86 172.8,-642.46 179.76,-643.17"/>
<text text-anchor="middle" x="178.2" y="-653.7" font-family="Helvetica,sans-Serif" font-size="9.00">4</text>
</g>
<!-- s4 -->
<g id="node6" class="node">
<title>s4</title>
<path fill="#fbd9d9" stroke="#b03030" stroke-width="2" d="M280.88,-520.75C280.88,-520.75 99.88,-520.75 99.88,-520.75 93.88,-520.75 87.88,-514.75 87.88,-508.75 87.88,-508.75 87.88,-473.75 87.88,-473.75 87.88,-467.75 93.88,-461.75 99.88,-461.75 99.88,-461.75 280.88,-461.75 280.88,-461.75 286.88,-461.75 292.88,-467.75 292.88,-473.75 292.88,-473.75 292.88,-508.75 292.88,-508.75 292.88,-514.75 286.88,-520.75 280.88,-520.75"/>
<text text-anchor="middle" x="190.38" y="-507.25" font-family="Helvetica,sans-Serif" font-size="10.00" fill="#7a1f1f">✖ ERROR &#160;SR predictive recall</text>
<text text-anchor="middle" x="190.38" y="-494.5" font-family="Helvetica,sans-Serif" font-size="10.00" fill="#7a1f1f">CheckpointRestore._predict_memories</text>
<text text-anchor="middle" x="190.38" y="-481.75" font-family="Helvetica,sans-Serif" font-size="10.00" fill="#7a1f1f">@802ms</text>
<text text-anchor="middle" x="190.38" y="-469" font-family="Helvetica,sans-Serif" font-size="10.00" fill="#7a1f1f">134.1 ms</text>
</g>
<!-- s3&#45;&gt;s4 -->
<g id="edge5" class="edge">
<title>s3&#45;&gt;s4</title>
<path fill="none" stroke="#333333" d="M183.03,-571.78C184.15,-559.66 185.47,-545.36 186.68,-532.24"/>
<polygon fill="#333333" stroke="#333333" points="190.14,-532.9 187.57,-522.62 183.16,-532.25 190.14,-532.9"/>
<text text-anchor="middle" x="188.67" y="-543.45" font-family="Helvetica,sans-Serif" font-size="9.00">5</text>
</g>
<!-- s5 -->
<g id="node7" class="node">
<title>s5</title>
<path fill="#dbe9fb" stroke="black" d="M283.88,-410.5C283.88,-410.5 126.88,-410.5 126.88,-410.5 120.88,-410.5 114.88,-404.5 114.88,-398.5 114.88,-398.5 114.88,-363.5 114.88,-363.5 114.88,-357.5 120.88,-351.5 126.88,-351.5 126.88,-351.5 283.88,-351.5 283.88,-351.5 289.88,-351.5 295.88,-357.5 295.88,-363.5 295.88,-363.5 295.88,-398.5 295.88,-398.5 295.88,-404.5 289.88,-410.5 283.88,-410.5"/>
<text text-anchor="middle" x="205.38" y="-397" font-family="Helvetica,sans-Serif" font-size="10.00">check SR data sufficiency</text>
<text text-anchor="middle" x="205.38" y="-384.25" font-family="Helvetica,sans-Serif" font-size="10.00">CognitiveMap.has_sufficient_data</text>
<text text-anchor="middle" x="205.38" y="-371.5" font-family="Helvetica,sans-Serif" font-size="10.00">@802ms</text>
<text text-anchor="middle" x="205.38" y="-358.75" font-family="Helvetica,sans-Serif" font-size="10.00">20.99 ms</text>
</g>
<!-- s4&#45;&gt;s5 -->
<g id="edge6" class="edge">
<title>s4&#45;&gt;s5</title>
<path fill="none" stroke="#333333" d="M194.36,-461.53C196.03,-449.41 198.02,-435.11 199.83,-421.99"/>
<polygon fill="#333333" stroke="#333333" points="203.26,-422.74 201.17,-412.36 196.33,-421.78 203.26,-422.74"/>
<text text-anchor="middle" x="201.32" y="-433.2" font-family="Helvetica,sans-Serif" font-size="9.00">6</text>
</g>
<!-- s6 -->
<g id="node10" class="node">
<title>s6</title>
<polygon fill="#f5e1f5" stroke="black" points="461.88,-282.75 322.88,-282.75 322.88,-223.75 461.88,-223.75 461.88,-282.75"/>
<text text-anchor="middle" x="392.38" y="-269.25" font-family="Helvetica,sans-Serif" font-size="10.00">embed &amp; store (backend)</text>
<text text-anchor="middle" x="392.38" y="-256.5" font-family="Helvetica,sans-Serif" font-size="10.00">embed_service.embed</text>
<text text-anchor="middle" x="392.38" y="-243.75" font-family="Helvetica,sans-Serif" font-size="10.00">@826ms</text>
<text text-anchor="middle" x="392.38" y="-231" font-family="Helvetica,sans-Serif" font-size="10.00">65.64 ms</text>
</g>
<!-- s5&#45;&gt;s6 -->
<g id="edge7" class="edge">
<title>s5&#45;&gt;s6</title>
<path fill="none" stroke="#333333" d="M257.37,-351.09C277.15,-339.58 299.66,-325.84 319.38,-312.25 329.27,-305.42 339.57,-297.68 349.2,-290.12"/>
<polygon fill="#333333" stroke="#333333" points="351.37,-292.87 357.02,-283.91 347.01,-287.39 351.37,-292.87"/>
<text text-anchor="middle" x="310.45" y="-322.95" font-family="Helvetica,sans-Serif" font-size="9.00">7</text>
</g>
<!-- s7 -->
<g id="node8" class="node">
<title>s7</title>
<path fill="#dbe9fb" stroke="black" d="M286.25,-172.5C286.25,-172.5 110.5,-172.5 110.5,-172.5 104.5,-172.5 98.5,-166.5 98.5,-160.5 98.5,-160.5 98.5,-125.5 98.5,-125.5 98.5,-119.5 104.5,-113.5 110.5,-113.5 110.5,-113.5 286.25,-113.5 286.25,-113.5 292.25,-113.5 298.25,-119.5 298.25,-125.5 298.25,-125.5 298.25,-160.5 298.25,-160.5 298.25,-166.5 292.25,-172.5 286.25,-172.5"/>
<text text-anchor="middle" x="198.38" y="-159" font-family="Helvetica,sans-Serif" font-size="10.00">build SR transition matrix</text>
<text text-anchor="middle" x="198.38" y="-146.25" font-family="Helvetica,sans-Serif" font-size="10.00">CognitiveMap.build_transition_matrix</text>
<text text-anchor="middle" x="198.38" y="-133.5" font-family="Helvetica,sans-Serif" font-size="10.00">@894ms</text>
<text text-anchor="middle" x="198.38" y="-120.75" font-family="Helvetica,sans-Serif" font-size="10.00">34.73 ms</text>
</g>
<!-- done -->
<g id="node9" class="node">
<title>done</title>
<path fill="#dbe9fb" stroke="black" d="M230.38,-62.25C230.38,-62.25 166.38,-62.25 166.38,-62.25 160.38,-62.25 154.38,-56.25 154.38,-50.25 154.38,-50.25 154.38,-28 154.38,-28 154.38,-22 160.38,-16 166.38,-16 166.38,-16 230.38,-16 230.38,-16 236.38,-16 242.38,-22 242.38,-28 242.38,-28 242.38,-50.25 242.38,-50.25 242.38,-56.25 236.38,-62.25 230.38,-62.25"/>
<text text-anchor="middle" x="198.38" y="-48.75" font-family="Helvetica,sans-Serif" font-size="10.00">result returned</text>
<text text-anchor="middle" x="198.38" y="-36" font-family="Helvetica,sans-Serif" font-size="10.00">@944ms</text>
<text text-anchor="middle" x="198.38" y="-23.25" font-family="Helvetica,sans-Serif" font-size="10.00">3.28 ms</text>
</g>
<!-- s7&#45;&gt;done -->
<g id="edge9" class="edge">
<title>s7&#45;&gt;done</title>
<path fill="none" stroke="#333333" d="M198.38,-113.08C198.38,-100.95 198.38,-86.77 198.38,-74.14"/>
<polygon fill="#333333" stroke="#333333" points="201.88,-74.15 198.38,-64.15 194.88,-74.15 201.88,-74.15"/>
<text text-anchor="middle" x="201.38" y="-84.95" font-family="Helvetica,sans-Serif" font-size="9.00">9</text>
</g>
<!-- s6&#45;&gt;s7 -->
<g id="edge8" class="edge">
<title>s6&#45;&gt;s7</title>
<path fill="none" stroke="#333333" d="M340.64,-223.38C315.86,-209.55 285.99,-192.89 260.04,-178.41"/>
<polygon fill="#333333" stroke="#333333" points="262.06,-175.53 251.62,-173.71 258.65,-181.64 262.06,-175.53"/>
<text text-anchor="middle" x="304.19" y="-195.2" font-family="Helvetica,sans-Serif" font-size="9.00">8</text>
</g>
</g>
</svg>
