<?xml version="1.0" encoding="UTF-8" standalone="no"?>
<!DOCTYPE svg PUBLIC "-//W3C//DTD SVG 1.1//EN"
 "http://www.w3.org/Graphics/SVG/1.1/DTD/svg11.dtd">
<!-- Generated by graphviz version 12.2.1 (0)
 -->
<!-- Title: flow Pages: 1 -->
<svg width="473pt" height="712pt"
 viewBox="0.00 0.00 473.25 711.50" xmlns="http://www.w3.org/2000/svg" xmlns:xlink="http://www.w3.org/1999/xlink">
<g id="graph0" class="graph" transform="scale(1 1) rotate(0) translate(4 707.5)">
<title>flow</title>
<polygon fill="white" stroke="none" points="-4,4 -4,-707.5 469.25,-707.5 469.25,4 -4,4"/>
<text text-anchor="middle" x="232.62" y="-689.05" font-family="Helvetica,sans-Serif" font-size="11.00">wiki_query — simplified trace (2026&#45;07&#45;09, core 5.117 / backend 5.30)</text>
<text text-anchor="middle" x="232.62" y="-675.55" font-family="Helvetica,sans-Serif" font-size="11.00">trace 32acbd12 · total 357.5 ms · key cost: fetch wiki page ×9 = 199.2 ms (56%)</text>
<g id="clust1" class="cluster">
<title>cluster_core</title>
<polygon fill="#4a72a8" stroke="#4a72a8" points="38.62,-8 38.62,-660.5 238.62,-660.5 238.62,-8 38.62,-8"/>
<text text-anchor="middle" x="138.62" y="-646.05" font-family="Helvetica,sans-Serif" font-weight="bold" font-size="11.00" fill="#26456b">Core process (yadgar&#45;core)</text>
</g>
<g id="clust2" class="cluster">
<title>cluster_backend</title>
<polygon fill="#b5744a" stroke="#b5744a" points="246.62,-326 246.62,-422.5 426.62,-422.5 426.62,-326 246.62,-326"/>
<text text-anchor="middle" x="336.62" y="-408.05" font-family="Helvetica,sans-Serif" font-weight="bold" font-size="11.00" fill="#7a4620">Backend (yadgar&#45;backend)</text>
</g>
<!-- entry -->
<g id="node1" class="node">
<title>entry</title>
<path fill="#dbe9fb" stroke="black" d="M212.25,-631C212.25,-631 65,-631 65,-631 59,-631 53,-625 53,-619 53,-619 53,-584 53,-584 53,-578 59,-572 65,-572 65,-572 212.25,-572 212.25,-572 218.25,-572 224.25,-578 224.25,-584 224.25,-584 224.25,-619 224.25,-619 224.25,-625 218.25,-631 212.25,-631"/>
<text text-anchor="middle" x="138.62" y="-617.5" font-family="Helvetica,sans-Serif" font-size="10.00">wiki_query() entry</text>
<text text-anchor="middle" x="138.62" y="-604.75" font-family="Helvetica,sans-Serif" font-size="10.00">MCP dispatch → tool.wiki_query</text>
<text text-anchor="middle" x="138.62" y="-592" font-family="Helvetica,sans-Serif" font-size="10.00">@4ms</text>
<text text-anchor="middle" x="138.62" y="-579.25" font-family="Helvetica,sans-Serif" font-size="10.00">3.65 ms</text>
</g>
<!-- s0 -->
<g id="node2" class="node">
<title>s0</title>
<path fill="#fce3d6" stroke="black" d="M218.25,-520.75C218.25,-520.75 59,-520.75 59,-520.75 53,-520.75 47,-514.75 47,-508.75 47,-508.75 47,-473.75 47,-473.75 47,-467.75 53,-461.75 59,-461.75 59,-461.75 218.25,-461.75 218.25,-461.75 224.25,-461.75 230.25,-467.75 230.25,-473.75 230.25,-473.75 230.25,-508.75 230.25,-508.75 230.25,-514.75 224.25,-520.75 218.25,-520.75"/>
<text text-anchor="middle" x="138.62" y="-507.25" font-family="Helvetica,sans-Serif" font-size="10.00">wiki FTS BM25</text>
<text text-anchor="middle" x="138.62" y="-494.5" font-family="Helvetica,sans-Serif" font-size="10.00">WikiStore._collect_wiki_fts_scores</text>
<text text-anchor="middle" x="138.62" y="-481.75" font-family="Helvetica,sans-Serif" font-size="10.00">@4ms</text>
<text text-anchor="middle" x="138.62" y="-469" font-family="Helvetica,sans-Serif" font-size="10.00">33.06 ms</text>
</g>
<!-- entry&#45;&gt;s0 -->
<g id="edge1" class="edge">
<title>entry&#45;&gt;s0</title>
<path fill="none" stroke="#333333" d="M138.62,-571.78C138.62,-559.66 138.62,-545.36 138.62,-532.24"/>
<polygon fill="#333333" stroke="#333333" points="142.13,-532.62 138.63,-522.62 135.13,-532.62 142.13,-532.62"/>
<text text-anchor="middle" x="141.62" y="-543.45" font-family="Helvetica,sans-Serif" font-size="9.00">1</text>
</g>
<!-- s1 -->
<g id="node6" class="node">
<title>s1</title>
<polygon fill="#f5e1f5" stroke="black" points="396.62,-393 254.62,-393 254.62,-334 396.62,-334 396.62,-393"/>
<text text-anchor="middle" x="325.62" y="-379.5" font-family="Helvetica,sans-Serif" font-size="10.00">embed query</text>
<text text-anchor="middle" x="325.62" y="-366.75" font-family="Helvetica,sans-Serif" font-size="10.00">EmbeddingEngine.encode</text>
<text text-anchor="middle" x="325.62" y="-354" font-family="Helvetica,sans-Serif" font-size="10.00">@41ms</text>
<text text-anchor="middle" x="325.62" y="-341.25" font-family="Helvetica,sans-Serif" font-size="10.00">12.55 ms</text>
</g>
<!-- s0&#45;&gt;s1 -->
<g id="edge2" class="edge">
<title>s0&#45;&gt;s1</title>
<path fill="none" stroke="#333333" d="M189.3,-461.26C208.78,-449.69 231.04,-435.93 250.62,-422.5 260.71,-415.59 271.25,-407.8 281.14,-400.24"/>
<polygon fill="#333333" stroke="#333333" points="283.04,-403.19 288.81,-394.3 278.76,-397.65 283.04,-403.19"/>
<text text-anchor="middle" x="238.83" y="-433.2" font-family="Helvetica,sans-Serif" font-size="9.00">2</text>
</g>
<!-- s2 -->
<g id="node3" class="node">
<title>s2</title>
<path fill="#fce3d6" stroke="black" d="M218.62,-282.75C218.62,-282.75 70.62,-282.75 70.62,-282.75 64.62,-282.75 58.62,-276.75 58.62,-270.75 58.62,-270.75 58.62,-235.75 58.62,-235.75 58.62,-229.75 64.62,-223.75 70.62,-223.75 70.62,-223.75 218.62,-223.75 218.62,-223.75 224.62,-223.75 230.62,-229.75 230.62,-235.75 230.62,-235.75 230.62,-270.75 230.62,-270.75 230.62,-276.75 224.62,-282.75 218.62,-282.75"/>
<text text-anchor="middle" x="144.62" y="-269.25" font-family="Helvetica,sans-Serif" font-size="10.00">wiki KNN (storage)</text>
<text text-anchor="middle" x="144.62" y="-256.5" font-family="Helvetica,sans-Serif" font-size="10.00">_WikiMixin.search_wiki_vectors</text>
<text text-anchor="middle" x="144.62" y="-243.75" font-family="Helvetica,sans-Serif" font-size="10.00">@59ms</text>
<text text-anchor="middle" x="144.62" y="-231" font-family="Helvetica,sans-Serif" font-size="10.00">92.05 ms</text>
</g>
<!-- s3 -->
<g id="node4" class="node">
<title>s3</title>
<path fill="#fce3d6" stroke="black" d="M204.38,-172.5C204.38,-172.5 84.88,-172.5 84.88,-172.5 78.88,-172.5 72.88,-166.5 72.88,-160.5 72.88,-160.5 72.88,-125.5 72.88,-125.5 72.88,-119.5 78.88,-113.5 84.88,-113.5 84.88,-113.5 204.38,-113.5 204.38,-113.5 210.38,-113.5 216.38,-119.5 216.38,-125.5 216.38,-125.5 216.38,-160.5 216.38,-160.5 216.38,-166.5 210.38,-172.5 204.38,-172.5"/>
<text text-anchor="middle" x="144.62" y="-159" font-family="Helvetica,sans-Serif" font-size="10.00">fetch wiki page ×9</text>
<text text-anchor="middle" x="144.62" y="-146.25" font-family="Helvetica,sans-Serif" font-size="10.00">_WikiMixin.get_wiki_page</text>
<text text-anchor="middle" x="144.62" y="-133.5" font-family="Helvetica,sans-Serif" font-size="10.00">@151ms</text>
<text text-anchor="middle" x="144.62" y="-120.75" font-family="Helvetica,sans-Serif" font-size="10.00">199.2 ms</text>
</g>
<!-- s2&#45;&gt;s3 -->
<g id="edge4" class="edge">
<title>s2&#45;&gt;s3</title>
<path fill="none" stroke="#333333" d="M144.62,-223.53C144.62,-211.41 144.62,-197.11 144.62,-183.99"/>
<polygon fill="#333333" stroke="#333333" points="148.13,-184.37 144.63,-174.37 141.13,-184.37 148.13,-184.37"/>
<text text-anchor="middle" x="147.62" y="-195.2" font-family="Helvetica,sans-Serif" font-size="9.00">4</text>
</g>
<!-- done -->
<g id="node5" class="node">
<title>done</title>
<path fill="#dbe9fb" stroke="black" d="M176.62,-62.25C176.62,-62.25 112.62,-62.25 112.62,-62.25 106.62,-62.25 100.62,-56.25 100.62,-50.25 100.62,-50.25 100.62,-28 100.62,-28 100.62,-22 106.62,-16 112.62,-16 112.62,-16 176.62,-16 176.62,-16 182.62,-16 188.62,-22 188.62,-28 188.62,-28 188.62,-50.25 188.62,-50.25 188.62,-56.25 182.62,-62.25 176.62,-62.25"/>
<text text-anchor="middle" x="144.62" y="-48.75" font-family="Helvetica,sans-Serif" font-size="10.00">result returned</text>
<text text-anchor="middle" x="144.62" y="-36" font-family="Helvetica,sans-Serif" font-size="10.00">@358ms</text>
<text text-anchor="middle" x="144.62" y="-23.25" font-family="Helvetica,sans-Serif" font-size="10.00">4 ms</text>
</g>
<!-- s3&#45;&gt;done -->
<g id="edge5" class="edge">
<title>s3&#45;&gt;done</title>
<path fill="none" stroke="#333333" d="M144.62,-113.08C144.62,-100.95 144.62,-86.77 144.62,-74.14"/>
<polygon fill="#333333" stroke="#333333" points="148.13,-74.15 144.63,-64.15 141.13,-74.15 148.13,-74.15"/>
<text text-anchor="middle" x="147.62" y="-84.95" font-family="Helvetica,sans-Serif" font-size="9.00">5</text>
</g>
<!-- s1&#45;&gt;s2 -->
<g id="edge3" class="edge">
<title>s1&#45;&gt;s2</title>
<path fill="none" stroke="#333333" d="M277.6,-333.78C254.58,-320.01 226.83,-303.42 202.65,-288.95"/>
<polygon fill="#333333" stroke="#333333" points="204.56,-286.01 194.18,-283.89 200.96,-292.02 204.56,-286.01"/>
<text text-anchor="middle" x="243.55" y="-305.45" font-family="Helvetica,sans-Serif" font-size="9.00">3</text>
</g>
</g>
</svg>
