<?xml version="1.0" encoding="UTF-8" standalone="no"?>
<!DOCTYPE svg PUBLIC "-//W3C//DTD SVG 1.1//EN"
 "http://www.w3.org/Graphics/SVG/1.1/DTD/svg11.dtd">
<!-- Generated by graphviz version 12.2.1 (0)
 -->
<!-- Title: flow Pages: 1 -->
<svg width="455pt" height="505pt"
 viewBox="0.00 0.00 454.50 504.50" xmlns="http://www.w3.org/2000/svg" xmlns:xlink="http://www.w3.org/1999/xlink">
<g id="graph0" class="graph" transform="scale(1 1) rotate(0) translate(4 500.5)">
<title>flow</title>
<polygon fill="white" stroke="none" points="-4,4 -4,-500.5 450.5,-500.5 450.5,4 -4,4"/>
<text text-anchor="middle" x="223.25" y="-482.05" font-family="Helvetica,sans-Serif" font-size="11.00">wiki_delete — simplified trace (2026&#45;07&#45;09, core 5.117 / backend 5.30)</text>
<text text-anchor="middle" x="223.25" y="-468.55" font-family="Helvetica,sans-Serif" font-size="11.00">trace bd2d07d2 · total 37.7 ms · key cost: WikiStore.delete = 22.91 ms (61%)</text>
<text text-anchor="middle" x="223.25" y="-455.05" font-family="Helvetica,sans-Serif" font-size="11.00">traced the not&#45;found path (probe page never committed)</text>
<g id="clust1" class="cluster">
<title>cluster_core</title>
<polygon fill="#4a72a8" stroke="#4a72a8" points="9.25,-8 9.25,-440 249.25,-440 249.25,-8 9.25,-8"/>
<text text-anchor="middle" x="129.25" y="-425.55" font-family="Helvetica,sans-Serif" font-weight="bold" font-size="11.00" fill="#26456b">Core process (yadgar&#45;core)</text>
</g>
<g id="clust2" class="cluster">
<title>cluster_backend</title>
<polygon fill="#b5744a" stroke="#b5744a" points="257.25,-105.5 257.25,-202 437.25,-202 437.25,-105.5 257.25,-105.5"/>
<text text-anchor="middle" x="347.25" y="-187.55" font-family="Helvetica,sans-Serif" font-weight="bold" font-size="11.00" fill="#7a4620">Backend (yadgar&#45;backend)</text>
</g>
<!-- entry -->
<g id="node1" class="node">
<title>entry</title>
<path fill="#dbe9fb" stroke="black" d="M204.38,-410.5C204.38,-410.5 54.12,-410.5 54.12,-410.5 48.12,-410.5 42.12,-404.5 42.12,-398.5 42.12,-398.5 42.12,-363.5 42.12,-363.5 42.12,-357.5 48.12,-351.5 54.12,-351.5 54.12,-351.5 204.38,-351.5 204.38,-351.5 210.38,-351.5 216.38,-357.5 216.38,-363.5 216.38,-363.5 216.38,-398.5 216.38,-398.5 216.38,-404.5 210.38,-410.5 204.38,-410.5"/>
<text text-anchor="middle" x="129.25" y="-397" font-family="Helvetica,sans-Serif" font-size="10.00">wiki_delete() entry</text>
<text text-anchor="middle" x="129.25" y="-384.25" font-family="Helvetica,sans-Serif" font-size="10.00">MCP dispatch → tool.wiki_delete</text>
<text text-anchor="middle" x="129.25" y="-371.5" font-family="Helvetica,sans-Serif" font-size="10.00">@2.7ms</text>
<text text-anchor="middle" x="129.25" y="-358.75" font-family="Helvetica,sans-Serif" font-size="10.00">2.74 ms</text>
</g>
<!-- s0 -->
<g id="node2" class="node">
<title>s0</title>
<path fill="#dbe9fb" stroke="black" d="M229.5,-300.25C229.5,-300.25 29,-300.25 29,-300.25 23,-300.25 17,-294.25 17,-288.25 17,-288.25 17,-253.25 17,-253.25 17,-247.25 23,-241.25 29,-241.25 29,-241.25 229.5,-241.25 229.5,-241.25 235.5,-241.25 241.5,-247.25 241.5,-253.25 241.5,-253.25 241.5,-288.25 241.5,-288.25 241.5,-294.25 235.5,-300.25 229.5,-300.25"/>
<text text-anchor="middle" x="129.25" y="-286.75" font-family="Helvetica,sans-Serif" font-size="10.00">_forward_admin</text>
<text text-anchor="middle" x="129.25" y="-274" font-family="Helvetica,sans-Serif" font-size="10.00">core.server.tools._forward._forward_admin</text>
<text text-anchor="middle" x="129.25" y="-261.25" font-family="Helvetica,sans-Serif" font-size="10.00">@2.8ms</text>
<text text-anchor="middle" x="129.25" y="-248.5" font-family="Helvetica,sans-Serif" font-size="10.00">6.6 ms</text>
</g>
<!-- entry&#45;&gt;s0 -->
<g id="edge1" class="edge">
<title>entry&#45;&gt;s0</title>
<path fill="none" stroke="#333333" d="M129.25,-351.28C129.25,-339.16 129.25,-324.86 129.25,-311.74"/>
<polygon fill="#333333" stroke="#333333" points="132.75,-312.12 129.25,-302.12 125.75,-312.12 132.75,-312.12"/>
<text text-anchor="middle" x="132.25" y="-322.95" font-family="Helvetica,sans-Serif" font-size="9.00">1</text>
</g>
<!-- s1 -->
<g id="node4" class="node">
<title>s1</title>
<path fill="#fce3d6" stroke="black" d="M415,-172.5C415,-172.5 277.5,-172.5 277.5,-172.5 271.5,-172.5 265.5,-166.5 265.5,-160.5 265.5,-160.5 265.5,-125.5 265.5,-125.5 265.5,-119.5 271.5,-113.5 277.5,-113.5 277.5,-113.5 415,-113.5 415,-113.5 421,-113.5 427,-119.5 427,-125.5 427,-125.5 427,-160.5 427,-160.5 427,-166.5 421,-172.5 415,-172.5"/>
<text text-anchor="middle" x="346.25" y="-159" font-family="Helvetica,sans-Serif" font-size="10.00">WikiStore.delete</text>
<text text-anchor="middle" x="346.25" y="-146.25" font-family="Helvetica,sans-Serif" font-size="10.00">_shared.wiki.WikiStore.delete</text>
<text text-anchor="middle" x="346.25" y="-133.5" font-family="Helvetica,sans-Serif" font-size="10.00">@10.6ms</text>
<text text-anchor="middle" x="346.25" y="-120.75" font-family="Helvetica,sans-Serif" font-size="10.00">22.91 ms</text>
</g>
<!-- s0&#45;&gt;s1 -->
<g id="edge2" class="edge">
<title>s0&#45;&gt;s1</title>
<path fill="none" stroke="#333333" d="M189.57,-240.77C212.37,-229.31 238.34,-215.63 261.25,-202 273.01,-195.01 285.33,-187.01 296.84,-179.24"/>
<polygon fill="#333333" stroke="#333333" points="298.75,-182.17 305.03,-173.64 294.8,-176.39 298.75,-182.17"/>
<text text-anchor="middle" x="250.34" y="-212.7" font-family="Helvetica,sans-Serif" font-size="9.00">2</text>
</g>
<!-- done -->
<g id="node3" class="node">
<title>done</title>
<path fill="#dbe9fb" stroke="black" d="M229.25,-62.25C229.25,-62.25 165.25,-62.25 165.25,-62.25 159.25,-62.25 153.25,-56.25 153.25,-50.25 153.25,-50.25 153.25,-28 153.25,-28 153.25,-22 159.25,-16 165.25,-16 165.25,-16 229.25,-16 229.25,-16 235.25,-16 241.25,-22 241.25,-28 241.25,-28 241.25,-50.25 241.25,-50.25 241.25,-56.25 235.25,-62.25 229.25,-62.25"/>
<text text-anchor="middle" x="197.25" y="-48.75" font-family="Helvetica,sans-Serif" font-size="10.00">result returned</text>
<text text-anchor="middle" x="197.25" y="-36" font-family="Helvetica,sans-Serif" font-size="10.00">@37.7ms</text>
<text text-anchor="middle" x="197.25" y="-23.25" font-family="Helvetica,sans-Serif" font-size="10.00">1.46 ms</text>
</g>
<!-- s1&#45;&gt;done -->
<g id="edge3" class="edge">
<title>s1&#45;&gt;done</title>
<path fill="none" stroke="#333333" d="M303.95,-113.08C283.75,-99.27 259.63,-82.78 239.44,-68.97"/>
<polygon fill="#333333" stroke="#333333" points="241.66,-66.25 231.43,-63.49 237.71,-72.03 241.66,-66.25"/>
<text text-anchor="middle" x="274.75" y="-84.95" font-family="Helvetica,sans-Serif" font-size="9.00">3</text>
</g>
</g>
</svg>
