<?xml version="1.0" encoding="UTF-8" standalone="no"?>
<!DOCTYPE svg PUBLIC "-//W3C//DTD SVG 1.1//EN"
 "http://www.w3.org/Graphics/SVG/1.1/DTD/svg11.dtd">
<!-- Generated by graphviz version 12.2.1 (0)
 -->
<!-- Title: G Pages: 1 -->
<svg width="3606pt" height="717pt"
 viewBox="0.00 0.00 3606.00 717.25" xmlns="http://www.w3.org/2000/svg" xmlns:xlink="http://www.w3.org/1999/xlink">
<g id="graph0" class="graph" transform="scale(1 1) rotate(0) translate(4 713.25)">
<title>G</title>
<polygon fill="white" stroke="none" points="-4,4 -4,-713.25 3602,-713.25 3602,4 -4,4"/>
<text text-anchor="middle" x="1799" y="-691.95" font-family="monospace" font-size="14.00">memorize&#45;hot &#160;| &#160;6ms &#160;| &#160;35 spans (collapsed)</text>
<!-- n2058749609 -->
<g id="node1" class="node">
<title>n2058749609</title>
<polygon fill="#e8f0fe" stroke="black" points="2459,-684 2389,-684 2389,-648 2459,-648 2459,-684"/>
<text text-anchor="middle" x="2424" y="-669.25" font-family="monospace" font-size="10.00">POST /mcp</text>
<text text-anchor="middle" x="2424" y="-656.5" font-family="monospace" font-size="10.00">6ms</text>
</g>
<!-- n917369178 -->
<g id="node2" class="node">
<title>n917369178</title>
<polygon fill="#e8f0fe" stroke="black" points="2459,-612 2389,-612 2389,-576 2459,-576 2459,-612"/>
<text text-anchor="middle" x="2424" y="-597.25" font-family="monospace" font-size="10.00">POST /mcp</text>
<text text-anchor="middle" x="2424" y="-584.5" font-family="monospace" font-size="10.00">6ms</text>
</g>
<!-- n2058749609&#45;&gt;n917369178 -->
<g id="edge5" class="edge">
<title>n2058749609&#45;&gt;n917369178</title>
<path fill="none" stroke="black" d="M2424,-647.7C2424,-640.41 2424,-631.73 2424,-623.54"/>
<polygon fill="black" stroke="black" points="2427.5,-623.62 2424,-613.62 2420.5,-623.62 2427.5,-623.62"/>
</g>
<!-- n3436274719 -->
<g id="node3" class="node">
<title>n3436274719</title>
<polygon fill="#e8f0fe" stroke="black" points="2231,-540 2083,-540 2083,-504 2231,-504 2231,-540"/>
<text text-anchor="middle" x="2157" y="-525.25" font-family="monospace" font-size="10.00">POST /mcp http receive</text>
<text text-anchor="middle" x="2157" y="-512.5" font-family="monospace" font-size="10.00">3ms x2</text>
</g>
<!-- n917369178&#45;&gt;n3436274719 -->
<g id="edge14" class="edge">
<title>n917369178&#45;&gt;n3436274719</title>
<path fill="none" stroke="black" d="M2388.54,-583.7C2349.49,-573.47 2285.49,-556.69 2234.67,-543.36"/>
<polygon fill="black" stroke="black" points="2235.73,-540.02 2225.17,-540.87 2233.95,-546.79 2235.73,-540.02"/>
</g>
<!-- n3723769824 -->
<g id="node4" class="node">
<title>n3723769824</title>
<polygon fill="#e8f0fe" stroke="black" points="2379,-540 2249,-540 2249,-504 2379,-504 2379,-540"/>
<text text-anchor="middle" x="2314" y="-525.25" font-family="monospace" font-size="10.00">POST /mcp http send</text>
<text text-anchor="middle" x="2314" y="-512.5" font-family="monospace" font-size="10.00">0ms x3</text>
</g>
<!-- n917369178&#45;&gt;n3723769824 -->
<g id="edge6" class="edge">
<title>n917369178&#45;&gt;n3723769824</title>
<path fill="none" stroke="black" d="M2396.53,-575.52C2382.64,-566.68 2365.6,-555.84 2350.62,-546.3"/>
<polygon fill="black" stroke="black" points="2352.72,-543.49 2342.4,-541.07 2348.96,-549.39 2352.72,-543.49"/>
</g>
<!-- n1255132161 -->
<g id="node5" class="node">
<title>n1255132161</title>
<polygon fill="#e8f0fe" stroke="black" points="2671,-540 2397,-540 2397,-504 2671,-504 2671,-540"/>
<text text-anchor="middle" x="2534" y="-525.25" font-family="monospace" font-size="10.00">yadgar.core.server.routes.logs._ring_append</text>
<text text-anchor="middle" x="2534" y="-512.5" font-family="monospace" font-size="10.00">0ms</text>
</g>
<!-- n917369178&#45;&gt;n1255132161 -->
<g id="edge27" class="edge">
<title>n917369178&#45;&gt;n1255132161</title>
<path fill="none" stroke="black" d="M2451.47,-575.52C2465.36,-566.68 2482.4,-555.84 2497.38,-546.3"/>
<polygon fill="black" stroke="black" points="2499.04,-549.39 2505.6,-541.07 2495.28,-543.49 2499.04,-549.39"/>
</g>
<!-- n3449545681 -->
<g id="node6" class="node">
<title>n3449545681</title>
<polygon fill="#e8f0fe" stroke="black" points="2969,-540 2689,-540 2689,-504 2969,-504 2969,-540"/>
<text text-anchor="middle" x="2829" y="-525.25" font-family="monospace" font-size="10.00">yadgar._shared.runtime.offload.run_offloaded</text>
<text text-anchor="middle" x="2829" y="-512.5" font-family="monospace" font-size="10.00">2ms</text>
</g>
<!-- n917369178&#45;&gt;n3449545681 -->
<g id="edge28" class="edge">
<title>n917369178&#45;&gt;n3449545681</title>
<path fill="none" stroke="black" d="M2459.23,-586.91C2516.02,-577.1 2630.16,-557.37 2716.69,-542.41"/>
<polygon fill="black" stroke="black" points="2717.15,-545.88 2726.41,-540.73 2715.96,-538.99 2717.15,-545.88"/>
</g>
<!-- n2265443312 -->
<g id="node7" class="node">
<title>n2265443312</title>
<polygon fill="#e8f0fe" stroke="black" points="2526,-468 2306,-468 2306,-432 2526,-432 2526,-468"/>
<text text-anchor="middle" x="2416" y="-453.25" font-family="monospace" font-size="10.00">yadgar._shared.config.resolve_knob</text>
<text text-anchor="middle" x="2416" y="-440.5" font-family="monospace" font-size="10.00">0ms x2</text>
</g>
<!-- n3449545681&#45;&gt;n2265443312 -->
<g id="edge15" class="edge">
<title>n3449545681&#45;&gt;n2265443312</title>
<path fill="none" stroke="black" d="M2725.85,-503.52C2666.36,-493.43 2591.45,-480.74 2530.18,-470.35"/>
<polygon fill="black" stroke="black" points="2530.85,-466.92 2520.4,-468.7 2529.68,-473.82 2530.85,-466.92"/>
</g>
<!-- n1624972897 -->
<g id="node8" class="node">
<title>n1624972897</title>
<polygon fill="#e8f0fe" stroke="black" points="2818,-468 2544,-468 2544,-432 2818,-432 2818,-468"/>
<text text-anchor="middle" x="2681" y="-453.25" font-family="monospace" font-size="10.00">yadgar._shared.runtime.offload._ensure_pool</text>
<text text-anchor="middle" x="2681" y="-440.5" font-family="monospace" font-size="10.00">0ms</text>
</g>
<!-- n3449545681&#45;&gt;n1624972897 -->
<g id="edge2" class="edge">
<title>n3449545681&#45;&gt;n1624972897</title>
<path fill="none" stroke="black" d="M2792.04,-503.52C2772.63,-494.34 2748.64,-482.99 2727.93,-473.2"/>
<polygon fill="black" stroke="black" points="2729.65,-470.14 2719.12,-469.03 2726.66,-476.47 2729.65,-470.14"/>
</g>
<!-- n569399121 -->
<g id="node9" class="node">
<title>n569399121</title>
<polygon fill="#e8f0fe" stroke="black" points="3116,-468 2836,-468 2836,-432 3116,-432 3116,-468"/>
<text text-anchor="middle" x="2976" y="-453.25" font-family="monospace" font-size="10.00">yadgar._shared.runtime.offload._inc_inflight</text>
<text text-anchor="middle" x="2976" y="-440.5" font-family="monospace" font-size="10.00">0ms</text>
</g>
<!-- n3449545681&#45;&gt;n569399121 -->
<g id="edge20" class="edge">
<title>n3449545681&#45;&gt;n569399121</title>
<path fill="none" stroke="black" d="M2865.72,-503.52C2884.91,-494.38 2908.6,-483.09 2929.11,-473.33"/>
<polygon fill="black" stroke="black" points="2930.61,-476.49 2938.13,-469.03 2927.6,-470.17 2930.61,-476.49"/>
</g>
<!-- n535151518 -->
<g id="node10" class="node">
<title>n535151518</title>
<polygon fill="#e8f0fe" stroke="black" points="3390,-468 3134,-468 3134,-432 3390,-432 3390,-468"/>
<text text-anchor="middle" x="3262" y="-453.25" font-family="monospace" font-size="10.00">yadgar._shared.runtime.offload._ctx_wrap</text>
<text text-anchor="middle" x="3262" y="-440.5" font-family="monospace" font-size="10.00">0ms</text>
</g>
<!-- n3449545681&#45;&gt;n535151518 -->
<g id="edge4" class="edge">
<title>n3449545681&#45;&gt;n535151518</title>
<path fill="none" stroke="black" d="M2937.15,-503.52C2999.78,-493.39 3078.71,-480.63 3143.09,-470.22"/>
<polygon fill="black" stroke="black" points="3143.3,-473.74 3152.61,-468.68 3142.18,-466.82 3143.3,-473.74"/>
</g>
<!-- n4202492053 -->
<g id="node11" class="node">
<title>n4202492053</title>
<polygon fill="#e8f0fe" stroke="black" points="2463,-396 2369,-396 2369,-360 2463,-360 2463,-396"/>
<text text-anchor="middle" x="2416" y="-381.25" font-family="monospace" font-size="10.00">tool.memorize</text>
<text text-anchor="middle" x="2416" y="-368.5" font-family="monospace" font-size="10.00">1ms</text>
</g>
<!-- n2265443312&#45;&gt;n4202492053 -->
<g id="edge25" class="edge">
<title>n2265443312&#45;&gt;n4202492053</title>
<path fill="none" stroke="black" d="M2416,-431.7C2416,-424.41 2416,-415.73 2416,-407.54"/>
<polygon fill="black" stroke="black" points="2419.5,-407.62 2416,-397.62 2412.5,-407.62 2419.5,-407.62"/>
</g>
<!-- n276013549 -->
<g id="node12" class="node">
<title>n276013549</title>
<polygon fill="#e8f0fe" stroke="black" points="1610,-324 1492,-324 1492,-288 1610,-288 1610,-324"/>
<text text-anchor="middle" x="1551" y="-309.25" font-family="monospace" font-size="10.00">memorize.validate</text>
<text text-anchor="middle" x="1551" y="-296.5" font-family="monospace" font-size="10.00">0ms</text>
</g>
<!-- n4202492053&#45;&gt;n276013549 -->
<g id="edge19" class="edge">
<title>n4202492053&#45;&gt;n276013549</title>
<path fill="none" stroke="black" d="M2368.57,-373.16C2224.7,-361.52 1792.65,-326.56 1621.72,-312.72"/>
<polygon fill="black" stroke="black" points="1622.12,-309.24 1611.87,-311.93 1621.55,-316.22 1622.12,-309.24"/>
</g>
<!-- n2416721309 -->
<g id="node13" class="node">
<title>n2416721309</title>
<polygon fill="#e8f0fe" stroke="black" points="3090,-324 2936,-324 2936,-288 3090,-288 3090,-324"/>
<text text-anchor="middle" x="3013" y="-309.25" font-family="monospace" font-size="10.00">memorize.resolve_branch</text>
<text text-anchor="middle" x="3013" y="-296.5" font-family="monospace" font-size="10.00">1ms</text>
</g>
<!-- n4202492053&#45;&gt;n2416721309 -->
<g id="edge10" class="edge">
<title>n4202492053&#45;&gt;n2416721309</title>
<path fill="none" stroke="black" d="M2463.34,-371.45C2563.07,-359.76 2796.08,-332.43 2924.38,-317.39"/>
<polygon fill="black" stroke="black" points="2924.67,-320.88 2934.2,-316.24 2923.86,-313.93 2924.67,-320.88"/>
</g>
<!-- n1899336914 -->
<g id="node14" class="node">
<title>n1899336914</title>
<polygon fill="#e8f0fe" stroke="black" points="514,-252 0,-252 0,-216 514,-216 514,-252"/>
<text text-anchor="middle" x="257" y="-237.25" font-family="monospace" font-size="10.00">yadgar.core.server.tools._memorize_phases._phase_validate._validate_tier_and_parity</text>
<text text-anchor="middle" x="257" y="-224.5" font-family="monospace" font-size="10.00">0ms</text>
</g>
<!-- n276013549&#45;&gt;n1899336914 -->
<g id="edge23" class="edge">
<title>n276013549&#45;&gt;n1899336914</title>
<path fill="none" stroke="black" d="M1491.6,-302.19C1335.41,-294.76 900.03,-273.68 525.63,-252.15"/>
<polygon fill="black" stroke="black" points="525.98,-248.66 515.8,-251.58 525.58,-255.65 525.98,-248.66"/>
</g>
<!-- n3587312213 -->
<g id="node15" class="node">
<title>n3587312213</title>
<polygon fill="#e8f0fe" stroke="black" points="1022,-252 532,-252 532,-216 1022,-216 1022,-252"/>
<text text-anchor="middle" x="777" y="-237.25" font-family="monospace" font-size="10.00">yadgar.core.server.tools._memorize_phases._phase_validate._validate_valid_until</text>
<text text-anchor="middle" x="777" y="-224.5" font-family="monospace" font-size="10.00">0ms</text>
</g>
<!-- n276013549&#45;&gt;n3587312213 -->
<g id="edge7" class="edge">
<title>n276013549&#45;&gt;n3587312213</title>
<path fill="none" stroke="black" d="M1491.55,-299.62C1383.97,-289.89 1152.33,-268.94 981.82,-253.52"/>
<polygon fill="black" stroke="black" points="982.2,-250.04 971.93,-252.63 981.57,-257.02 982.2,-250.04"/>
</g>
<!-- n898441049 -->
<g id="node16" class="node">
<title>n898441049</title>
<polygon fill="#e8f0fe" stroke="black" points="1524,-252 1040,-252 1040,-216 1524,-216 1524,-252"/>
<text text-anchor="middle" x="1282" y="-237.25" font-family="monospace" font-size="10.00">yadgar.core.server.tools._memorize_phases._phase_validate._apply_tag_injection</text>
<text text-anchor="middle" x="1282" y="-224.5" font-family="monospace" font-size="10.00">0ms</text>
</g>
<!-- n276013549&#45;&gt;n898441049 -->
<g id="edge1" class="edge">
<title>n276013549&#45;&gt;n898441049</title>
<path fill="none" stroke="black" d="M1491.63,-289.55C1452.86,-279.46 1401.82,-266.18 1359.81,-255.25"/>
<polygon fill="black" stroke="black" points="1360.8,-251.89 1350.24,-252.76 1359.04,-258.66 1360.8,-251.89"/>
</g>
<!-- n3612534532 -->
<g id="node17" class="node">
<title>n3612534532</title>
<polygon fill="#e8f0fe" stroke="black" points="2098,-252 1542,-252 1542,-216 2098,-216 2098,-252"/>
<text text-anchor="middle" x="1820" y="-237.25" font-family="monospace" font-size="10.00">yadgar.core.server.tools._memorize_phases._phase_validate._validate_content_and_provenance</text>
<text text-anchor="middle" x="1820" y="-224.5" font-family="monospace" font-size="10.00">0ms</text>
</g>
<!-- n276013549&#45;&gt;n3612534532 -->
<g id="edge8" class="edge">
<title>n276013549&#45;&gt;n3612534532</title>
<path fill="none" stroke="black" d="M1610.37,-289.55C1649.14,-279.46 1700.18,-266.18 1742.19,-255.25"/>
<polygon fill="black" stroke="black" points="1742.96,-258.66 1751.76,-252.76 1741.2,-251.89 1742.96,-258.66"/>
</g>
<!-- n1865161400 -->
<g id="node18" class="node">
<title>n1865161400</title>
<polygon fill="#e8f0fe" stroke="black" points="2630,-252 2116,-252 2116,-216 2630,-216 2630,-252"/>
<text text-anchor="middle" x="2373" y="-237.25" font-family="monospace" font-size="10.00">yadgar.core.server.tools._memorize_phases._phase_validate._validate_gate_and_policy</text>
<text text-anchor="middle" x="2373" y="-224.5" font-family="monospace" font-size="10.00">0ms</text>
</g>
<!-- n276013549&#45;&gt;n1865161400 -->
<g id="edge11" class="edge">
<title>n276013549&#45;&gt;n1865161400</title>
<path fill="none" stroke="black" d="M1610.45,-299.94C1723.15,-290.34 1972.98,-269.06 2156.09,-253.47"/>
<polygon fill="black" stroke="black" points="2156.33,-256.96 2166,-252.63 2155.74,-249.99 2156.33,-256.96"/>
</g>
<!-- n3162179724 -->
<g id="node19" class="node">
<title>n3162179724</title>
<polygon fill="#e8f0fe" stroke="black" points="3105,-252 2921,-252 2921,-216 3105,-216 3105,-252"/>
<text text-anchor="middle" x="3013" y="-237.25" font-family="monospace" font-size="10.00">tools.project._detect_branch</text>
<text text-anchor="middle" x="3013" y="-224.5" font-family="monospace" font-size="10.00">1ms</text>
</g>
<!-- n2416721309&#45;&gt;n3162179724 -->
<g id="edge13" class="edge">
<title>n2416721309&#45;&gt;n3162179724</title>
<path fill="none" stroke="black" d="M3013,-287.7C3013,-280.41 3013,-271.73 3013,-263.54"/>
<polygon fill="black" stroke="black" points="3016.5,-263.62 3013,-253.62 3009.5,-263.62 3016.5,-263.62"/>
</g>
<!-- n584445652 -->
<g id="node20" class="node">
<title>n584445652</title>
<polygon fill="#e8f0fe" stroke="black" points="3571,-252 3123,-252 3123,-216 3571,-216 3571,-252"/>
<text text-anchor="middle" x="3347" y="-237.25" font-family="monospace" font-size="10.00">yadgar.core.server.tools._memorize_phases._phase_resolve_branch._enqueue</text>
<text text-anchor="middle" x="3347" y="-224.5" font-family="monospace" font-size="10.00">0ms</text>
</g>
<!-- n2416721309&#45;&gt;n584445652 -->
<g id="edge24" class="edge">
<title>n2416721309&#45;&gt;n584445652</title>
<path fill="none" stroke="black" d="M3090.47,-288.76C3138.76,-278.64 3201.24,-265.55 3252.45,-254.82"/>
<polygon fill="black" stroke="black" points="3252.97,-258.28 3262.04,-252.81 3251.54,-251.43 3252.97,-258.28"/>
</g>
<!-- n3612872856 -->
<g id="node21" class="node">
<title>n3612872856</title>
<polygon fill="#e8f0fe" stroke="black" points="1917,-180 1565,-180 1565,-144 1917,-144 1917,-180"/>
<text text-anchor="middle" x="1741" y="-165.25" font-family="monospace" font-size="10.00">yadgar._shared.storage.memory._validate_provenance_agent</text>
<text text-anchor="middle" x="1741" y="-152.5" font-family="monospace" font-size="10.00">0ms</text>
</g>
<!-- n3612534532&#45;&gt;n3612872856 -->
<g id="edge16" class="edge">
<title>n3612534532&#45;&gt;n3612872856</title>
<path fill="none" stroke="black" d="M1800.47,-215.7C1790.98,-207.28 1779.39,-197.02 1768.98,-187.79"/>
<polygon fill="black" stroke="black" points="1771.52,-185.36 1761.71,-181.35 1766.87,-190.6 1771.52,-185.36"/>
</g>
<!-- n1007038320 -->
<g id="node22" class="node">
<title>n1007038320</title>
<polygon fill="#e8f0fe" stroke="black" points="2173,-180 1935,-180 1935,-144 2173,-144 2173,-180"/>
<text text-anchor="middle" x="2054" y="-165.25" font-family="monospace" font-size="10.00">yadgar._shared.secrets.gate_or_reject</text>
<text text-anchor="middle" x="2054" y="-152.5" font-family="monospace" font-size="10.00">0ms</text>
</g>
<!-- n1865161400&#45;&gt;n1007038320 -->
<g id="edge17" class="edge">
<title>n1865161400&#45;&gt;n1007038320</title>
<path fill="none" stroke="black" d="M2293.33,-215.52C2248.14,-205.6 2191.43,-193.16 2144.56,-182.87"/>
<polygon fill="black" stroke="black" points="2145.48,-179.49 2134.97,-180.77 2143.98,-186.33 2145.48,-179.49"/>
</g>
<!-- n2462050559 -->
<g id="node23" class="node">
<title>n2462050559</title>
<polygon fill="#e8f0fe" stroke="black" points="2555,-180 2191,-180 2191,-144 2555,-144 2555,-180"/>
<text text-anchor="middle" x="2373" y="-165.25" font-family="monospace" font-size="10.00">yadgar._shared.rules_engine.RulesEngine.check_write_policy</text>
<text text-anchor="middle" x="2373" y="-152.5" font-family="monospace" font-size="10.00">0ms</text>
</g>
<!-- n1865161400&#45;&gt;n2462050559 -->
<g id="edge9" class="edge">
<title>n1865161400&#45;&gt;n2462050559</title>
<path fill="none" stroke="black" d="M2373,-215.7C2373,-208.41 2373,-199.73 2373,-191.54"/>
<polygon fill="black" stroke="black" points="2376.5,-191.62 2373,-181.62 2369.5,-191.62 2376.5,-191.62"/>
</g>
<!-- n1710861925 -->
<g id="node24" class="node">
<title>n1710861925</title>
<polygon fill="#e8f0fe" stroke="black" points="2895,-180 2573,-180 2573,-144 2895,-144 2895,-180"/>
<text text-anchor="middle" x="2734" y="-165.25" font-family="monospace" font-size="10.00">yadgar.core.server._helpers._has_unpaired_surrogate</text>
<text text-anchor="middle" x="2734" y="-152.5" font-family="monospace" font-size="10.00">0ms</text>
</g>
<!-- n1865161400&#45;&gt;n1710861925 -->
<g id="edge21" class="edge">
<title>n1865161400&#45;&gt;n1710861925</title>
<path fill="none" stroke="black" d="M2463.16,-215.52C2514.73,-205.52 2579.56,-192.95 2632.86,-182.61"/>
<polygon fill="black" stroke="black" points="2633.41,-186.07 2642.56,-180.73 2632.08,-179.2 2633.41,-186.07"/>
</g>
<!-- n808836229 -->
<g id="node25" class="node">
<title>n808836229</title>
<polygon fill="#e8f0fe" stroke="black" points="3139,-180 2913,-180 2913,-144 3139,-144 3139,-180"/>
<text text-anchor="middle" x="3026" y="-165.25" font-family="monospace" font-size="10.00">tools.project._detect_branch_cached</text>
<text text-anchor="middle" x="3026" y="-152.5" font-family="monospace" font-size="10.00">0ms</text>
</g>
<!-- n3162179724&#45;&gt;n808836229 -->
<g id="edge3" class="edge">
<title>n3162179724&#45;&gt;n808836229</title>
<path fill="none" stroke="black" d="M3016.21,-215.7C3017.58,-208.32 3019.22,-199.52 3020.75,-191.25"/>
<polygon fill="black" stroke="black" points="3024.16,-192.06 3022.55,-181.59 3017.28,-190.79 3024.16,-192.06"/>
</g>
<!-- n781505146 -->
<g id="node26" class="node">
<title>n781505146</title>
<polygon fill="#e8f0fe" stroke="black" points="3486,-180 3182,-180 3182,-144 3486,-144 3486,-180"/>
<text text-anchor="middle" x="3334" y="-165.25" font-family="monospace" font-size="10.00">yadgar._shared.runtime.lifecycle._get_file_queue</text>
<text text-anchor="middle" x="3334" y="-152.5" font-family="monospace" font-size="10.00">0ms</text>
</g>
<!-- n584445652&#45;&gt;n781505146 -->
<g id="edge18" class="edge">
<title>n584445652&#45;&gt;n781505146</title>
<path fill="none" stroke="black" d="M3343.79,-215.7C3342.42,-208.32 3340.78,-199.52 3339.25,-191.25"/>
<polygon fill="black" stroke="black" points="3342.72,-190.79 3337.45,-181.59 3335.84,-192.06 3342.72,-190.79"/>
</g>
<!-- n57981599 -->
<g id="node27" class="node">
<title>n57981599</title>
<polygon fill="#e8f0fe" stroke="black" points="3598,-180 3504,-180 3504,-144 3598,-144 3598,-180"/>
<text text-anchor="middle" x="3551" y="-165.25" font-family="monospace" font-size="10.00">queue.enqueue</text>
<text text-anchor="middle" x="3551" y="-152.5" font-family="monospace" font-size="10.00">0ms</text>
</g>
<!-- n584445652&#45;&gt;n57981599 -->
<g id="edge12" class="edge">
<title>n584445652&#45;&gt;n57981599</title>
<path fill="none" stroke="black" d="M3397.95,-215.52C3426.86,-205.6 3463.13,-193.15 3493.11,-182.87"/>
<polygon fill="black" stroke="black" points="3494.09,-186.23 3502.41,-179.67 3491.81,-179.61 3494.09,-186.23"/>
</g>
<!-- n1961836980 -->
<g id="node28" class="node">
<title>n1961836980</title>
<polygon fill="#e8f0fe" stroke="black" points="1920,-108 1616,-108 1616,-72 1920,-72 1920,-108"/>
<text text-anchor="middle" x="1768" y="-93.25" font-family="monospace" font-size="10.00">yadgar._shared.security.allowlist.is_allowlisted</text>
<text text-anchor="middle" x="1768" y="-80.5" font-family="monospace" font-size="10.00">0ms</text>
</g>
<!-- n1007038320&#45;&gt;n1961836980 -->
<g id="edge29" class="edge">
<title>n1007038320&#45;&gt;n1961836980</title>
<path fill="none" stroke="black" d="M1982.57,-143.52C1942.32,-133.67 1891.88,-121.32 1850.02,-111.07"/>
<polygon fill="black" stroke="black" points="1851.03,-107.72 1840.49,-108.74 1849.37,-114.52 1851.03,-107.72"/>
</g>
<!-- n4284910338 -->
<g id="node29" class="node">
<title>n4284910338</title>
<polygon fill="#e8f0fe" stroke="black" points="2170,-108 1938,-108 1938,-72 2170,-72 2170,-108"/>
<text text-anchor="middle" x="2054" y="-93.25" font-family="monospace" font-size="10.00">yadgar._shared.secrets.check_secrets</text>
<text text-anchor="middle" x="2054" y="-80.5" font-family="monospace" font-size="10.00">0ms</text>
</g>
<!-- n1007038320&#45;&gt;n4284910338 -->
<g id="edge22" class="edge">
<title>n1007038320&#45;&gt;n4284910338</title>
<path fill="none" stroke="black" d="M2054,-143.7C2054,-136.41 2054,-127.73 2054,-119.54"/>
<polygon fill="black" stroke="black" points="2057.5,-119.62 2054,-109.62 2050.5,-119.62 2057.5,-119.62"/>
</g>
<!-- n3486118633 -->
<g id="node30" class="node">
<title>n3486118633</title>
<polygon fill="#e8f0fe" stroke="black" points="2564,-108 2188,-108 2188,-72 2564,-72 2564,-108"/>
<text text-anchor="middle" x="2376" y="-93.25" font-family="monospace" font-size="10.00">yadgar._shared.rules_engine.RulesEngine.get_applicable_rules</text>
<text text-anchor="middle" x="2376" y="-80.5" font-family="monospace" font-size="10.00">0ms</text>
</g>
<!-- n2462050559&#45;&gt;n3486118633 -->
<g id="edge26" class="edge">
<title>n2462050559&#45;&gt;n3486118633</title>
<path fill="none" stroke="black" d="M2373.74,-143.7C2374.05,-136.41 2374.43,-127.73 2374.78,-119.54"/>
<polygon fill="black" stroke="black" points="2378.27,-119.76 2375.2,-109.62 2371.28,-119.46 2378.27,-119.76"/>
</g>
<!-- n3468308721 -->
<g id="node31" class="node">
<title>n3468308721</title>
<polygon fill="#e8f0fe" stroke="black" points="1920,-36 1616,-36 1616,0 1920,0 1920,-36"/>
<text text-anchor="middle" x="1768" y="-21.25" font-family="monospace" font-size="10.00">yadgar._shared.security.allowlist._ensure_loaded</text>
<text text-anchor="middle" x="1768" y="-8.5" font-family="monospace" font-size="10.00">0ms</text>
</g>
<!-- n1961836980&#45;&gt;n3468308721 -->
<g id="edge30" class="edge">
<title>n1961836980&#45;&gt;n3468308721</title>
<path fill="none" stroke="black" d="M1768,-71.7C1768,-64.41 1768,-55.73 1768,-47.54"/>
<polygon fill="black" stroke="black" points="1771.5,-47.62 1768,-37.62 1764.5,-47.62 1771.5,-47.62"/>
</g>
</g>
</svg>
