<?xml version="1.0" encoding="UTF-8" standalone="no"?>
<!DOCTYPE svg PUBLIC "-//W3C//DTD SVG 1.1//EN"
 "http://www.w3.org/Graphics/SVG/1.1/DTD/svg11.dtd">
<!-- Generated by graphviz version 12.2.1 (0)
 -->
<!-- Title: G Pages: 1 -->
<svg width="4696pt" height="861pt"
 viewBox="0.00 0.00 4696.00 861.25" xmlns="http://www.w3.org/2000/svg" xmlns:xlink="http://www.w3.org/1999/xlink">
<g id="graph0" class="graph" transform="scale(1 1) rotate(0) translate(4 857.25)">
<title>G</title>
<polygon fill="white" stroke="none" points="-4,4 -4,-857.25 4692,-857.25 4692,4 -4,4"/>
<text text-anchor="middle" x="2344" y="-835.95" font-family="monospace" font-size="14.00">project_brief &#160;| &#160;536ms &#160;| &#160;1103 spans (collapsed)</text>
<!-- n3054447097 -->
<g id="node1" class="node">
<title>n3054447097</title>
<polygon fill="#e8f0fe" stroke="black" points="1910,-828 1840,-828 1840,-792 1910,-792 1910,-828"/>
<text text-anchor="middle" x="1875" y="-813.25" font-family="monospace" font-size="10.00">POST /mcp</text>
<text text-anchor="middle" x="1875" y="-800.5" font-family="monospace" font-size="10.00">536ms</text>
</g>
<!-- n3961211427 -->
<g id="node2" class="node">
<title>n3961211427</title>
<polygon fill="#e8f0fe" stroke="black" points="1910,-756 1840,-756 1840,-720 1910,-720 1910,-756"/>
<text text-anchor="middle" x="1875" y="-741.25" font-family="monospace" font-size="10.00">POST /mcp</text>
<text text-anchor="middle" x="1875" y="-728.5" font-family="monospace" font-size="10.00">535ms</text>
</g>
<!-- n3054447097&#45;&gt;n3961211427 -->
<g id="edge25" class="edge">
<title>n3054447097&#45;&gt;n3961211427</title>
<path fill="none" stroke="black" d="M1875,-791.7C1875,-784.41 1875,-775.73 1875,-767.54"/>
<polygon fill="black" stroke="black" points="1878.5,-767.62 1875,-757.62 1871.5,-767.62 1878.5,-767.62"/>
</g>
<!-- n2816389182 -->
<g id="node3" class="node">
<title>n2816389182</title>
<polygon fill="#e8f0fe" stroke="black" points="1682,-684 1534,-684 1534,-648 1682,-648 1682,-684"/>
<text text-anchor="middle" x="1608" y="-669.25" font-family="monospace" font-size="10.00">POST /mcp http receive</text>
<text text-anchor="middle" x="1608" y="-656.5" font-family="monospace" font-size="10.00">533ms x2</text>
</g>
<!-- n3961211427&#45;&gt;n2816389182 -->
<g id="edge60" class="edge">
<title>n3961211427&#45;&gt;n2816389182</title>
<path fill="none" stroke="black" d="M1839.54,-727.7C1800.49,-717.47 1736.49,-700.69 1685.67,-687.36"/>
<polygon fill="black" stroke="black" points="1686.73,-684.02 1676.17,-684.87 1684.95,-690.79 1686.73,-684.02"/>
</g>
<!-- n351595909 -->
<g id="node4" class="node">
<title>n351595909</title>
<polygon fill="#e8f0fe" stroke="black" points="1830,-684 1700,-684 1700,-648 1830,-648 1830,-684"/>
<text text-anchor="middle" x="1765" y="-669.25" font-family="monospace" font-size="10.00">POST /mcp http send</text>
<text text-anchor="middle" x="1765" y="-656.5" font-family="monospace" font-size="10.00">0ms x3</text>
</g>
<!-- n3961211427&#45;&gt;n351595909 -->
<g id="edge24" class="edge">
<title>n3961211427&#45;&gt;n351595909</title>
<path fill="none" stroke="black" d="M1847.53,-719.52C1833.64,-710.68 1816.6,-699.84 1801.62,-690.3"/>
<polygon fill="black" stroke="black" points="1803.72,-687.49 1793.4,-685.07 1799.96,-693.39 1803.72,-687.49"/>
</g>
<!-- n4195160885 -->
<g id="node5" class="node">
<title>n4195160885</title>
<polygon fill="#e8f0fe" stroke="black" points="2122,-684 1848,-684 1848,-648 2122,-648 2122,-684"/>
<text text-anchor="middle" x="1985" y="-669.25" font-family="monospace" font-size="10.00">yadgar.core.server.routes.logs._ring_append</text>
<text text-anchor="middle" x="1985" y="-656.5" font-family="monospace" font-size="10.00">0ms</text>
</g>
<!-- n3961211427&#45;&gt;n4195160885 -->
<g id="edge20" class="edge">
<title>n3961211427&#45;&gt;n4195160885</title>
<path fill="none" stroke="black" d="M1902.47,-719.52C1916.36,-710.68 1933.4,-699.84 1948.38,-690.3"/>
<polygon fill="black" stroke="black" points="1950.04,-693.39 1956.6,-685.07 1946.28,-687.49 1950.04,-693.39"/>
</g>
<!-- n3198083798 -->
<g id="node6" class="node">
<title>n3198083798</title>
<polygon fill="#e8f0fe" stroke="black" points="2420,-684 2140,-684 2140,-648 2420,-648 2420,-684"/>
<text text-anchor="middle" x="2280" y="-669.25" font-family="monospace" font-size="10.00">yadgar._shared.runtime.offload.run_offloaded</text>
<text text-anchor="middle" x="2280" y="-656.5" font-family="monospace" font-size="10.00">524ms</text>
</g>
<!-- n3961211427&#45;&gt;n3198083798 -->
<g id="edge9" class="edge">
<title>n3961211427&#45;&gt;n3198083798</title>
<path fill="none" stroke="black" d="M1910.23,-730.91C1967.02,-721.1 2081.16,-701.37 2167.69,-686.41"/>
<polygon fill="black" stroke="black" points="2168.15,-689.88 2177.41,-684.73 2166.96,-682.99 2168.15,-689.88"/>
</g>
<!-- n2644947836 -->
<g id="node7" class="node">
<title>n2644947836</title>
<polygon fill="#e8f0fe" stroke="black" points="1977,-612 1757,-612 1757,-576 1977,-576 1977,-612"/>
<text text-anchor="middle" x="1867" y="-597.25" font-family="monospace" font-size="10.00">yadgar._shared.config.resolve_knob</text>
<text text-anchor="middle" x="1867" y="-584.5" font-family="monospace" font-size="10.00">0ms x2</text>
</g>
<!-- n3198083798&#45;&gt;n2644947836 -->
<g id="edge7" class="edge">
<title>n3198083798&#45;&gt;n2644947836</title>
<path fill="none" stroke="black" d="M2176.85,-647.52C2117.36,-637.43 2042.45,-624.74 1981.18,-614.35"/>
<polygon fill="black" stroke="black" points="1981.85,-610.92 1971.4,-612.7 1980.68,-617.82 1981.85,-610.92"/>
</g>
<!-- n1560099908 -->
<g id="node8" class="node">
<title>n1560099908</title>
<polygon fill="#e8f0fe" stroke="black" points="2269,-612 1995,-612 1995,-576 2269,-576 2269,-612"/>
<text text-anchor="middle" x="2132" y="-597.25" font-family="monospace" font-size="10.00">yadgar._shared.runtime.offload._ensure_pool</text>
<text text-anchor="middle" x="2132" y="-584.5" font-family="monospace" font-size="10.00">0ms</text>
</g>
<!-- n3198083798&#45;&gt;n1560099908 -->
<g id="edge58" class="edge">
<title>n3198083798&#45;&gt;n1560099908</title>
<path fill="none" stroke="black" d="M2243.04,-647.52C2223.63,-638.34 2199.64,-626.99 2178.93,-617.2"/>
<polygon fill="black" stroke="black" points="2180.65,-614.14 2170.12,-613.03 2177.66,-620.47 2180.65,-614.14"/>
</g>
<!-- n101071433 -->
<g id="node9" class="node">
<title>n101071433</title>
<polygon fill="#e8f0fe" stroke="black" points="2567,-612 2287,-612 2287,-576 2567,-576 2567,-612"/>
<text text-anchor="middle" x="2427" y="-597.25" font-family="monospace" font-size="10.00">yadgar._shared.runtime.offload._inc_inflight</text>
<text text-anchor="middle" x="2427" y="-584.5" font-family="monospace" font-size="10.00">0ms</text>
</g>
<!-- n3198083798&#45;&gt;n101071433 -->
<g id="edge26" class="edge">
<title>n3198083798&#45;&gt;n101071433</title>
<path fill="none" stroke="black" d="M2316.72,-647.52C2335.91,-638.38 2359.6,-627.09 2380.11,-617.33"/>
<polygon fill="black" stroke="black" points="2381.61,-620.49 2389.13,-613.03 2378.6,-614.17 2381.61,-620.49"/>
</g>
<!-- n2998974713 -->
<g id="node10" class="node">
<title>n2998974713</title>
<polygon fill="#e8f0fe" stroke="black" points="2841,-612 2585,-612 2585,-576 2841,-576 2841,-612"/>
<text text-anchor="middle" x="2713" y="-597.25" font-family="monospace" font-size="10.00">yadgar._shared.runtime.offload._ctx_wrap</text>
<text text-anchor="middle" x="2713" y="-584.5" font-family="monospace" font-size="10.00">0ms</text>
</g>
<!-- n3198083798&#45;&gt;n2998974713 -->
<g id="edge6" class="edge">
<title>n3198083798&#45;&gt;n2998974713</title>
<path fill="none" stroke="black" d="M2388.15,-647.52C2450.78,-637.39 2529.71,-624.63 2594.09,-614.22"/>
<polygon fill="black" stroke="black" points="2594.3,-617.74 2603.61,-612.68 2593.18,-610.82 2594.3,-617.74"/>
</g>
<!-- n2348827219 -->
<g id="node11" class="node">
<title>n2348827219</title>
<polygon fill="#e8f0fe" stroke="black" points="1929,-540 1805,-540 1805,-504 1929,-504 1929,-540"/>
<text text-anchor="middle" x="1867" y="-525.25" font-family="monospace" font-size="10.00">tool.project_brief</text>
<text text-anchor="middle" x="1867" y="-512.5" font-family="monospace" font-size="10.00">523ms</text>
</g>
<!-- n2644947836&#45;&gt;n2348827219 -->
<g id="edge62" class="edge">
<title>n2644947836&#45;&gt;n2348827219</title>
<path fill="none" stroke="black" d="M1867,-575.7C1867,-568.41 1867,-559.73 1867,-551.54"/>
<polygon fill="black" stroke="black" points="1870.5,-551.62 1867,-541.62 1863.5,-551.62 1870.5,-551.62"/>
</g>
<!-- n1430102109 -->
<g id="node12" class="node">
<title>n1430102109</title>
<polygon fill="#e8f0fe" stroke="black" points="949,-468 627,-468 627,-432 949,-432 949,-468"/>
<text text-anchor="middle" x="788" y="-453.25" font-family="monospace" font-size="10.00">yadgar._shared.server_helpers._resolve_project_root</text>
<text text-anchor="middle" x="788" y="-440.5" font-family="monospace" font-size="10.00">1ms</text>
</g>
<!-- n2348827219&#45;&gt;n1430102109 -->
<g id="edge12" class="edge">
<title>n2348827219&#45;&gt;n1430102109</title>
<path fill="none" stroke="black" d="M1804.67,-518.26C1658.97,-511.65 1284.47,-493.57 960.08,-468.15"/>
<polygon fill="black" stroke="black" points="960.8,-464.69 950.56,-467.39 960.25,-471.67 960.8,-464.69"/>
</g>
<!-- n2088540149 -->
<g id="node13" class="node">
<title>n2088540149</title>
<polygon fill="#e8f0fe" stroke="black" points="1277,-468 967,-468 967,-432 1277,-432 1277,-468"/>
<text text-anchor="middle" x="1122" y="-453.25" font-family="monospace" font-size="10.00">yadgar._shared.runtime.cache_epoch._current_epoch</text>
<text text-anchor="middle" x="1122" y="-440.5" font-family="monospace" font-size="10.00">0ms</text>
</g>
<!-- n2348827219&#45;&gt;n2088540149 -->
<g id="edge21" class="edge">
<title>n2348827219&#45;&gt;n2088540149</title>
<path fill="none" stroke="black" d="M1804.76,-515.15C1692.29,-504.58 1451.72,-481.98 1288.36,-466.63"/>
<polygon fill="black" stroke="black" points="1289.01,-463.18 1278.73,-465.73 1288.36,-470.15 1289.01,-463.18"/>
</g>
<!-- n1309185804 -->
<g id="node14" class="node">
<title>n1309185804</title>
<polygon fill="#e8f0fe" stroke="black" points="1682,-468 1504,-468 1504,-432 1682,-432 1682,-468"/>
<text text-anchor="middle" x="1593" y="-453.25" font-family="monospace" font-size="10.00">yadgar.core.cache.Cache.get</text>
<text text-anchor="middle" x="1593" y="-440.5" font-family="monospace" font-size="10.00">0ms</text>
</g>
<!-- n2348827219&#45;&gt;n1309185804 -->
<g id="edge5" class="edge">
<title>n2348827219&#45;&gt;n1309185804</title>
<path fill="none" stroke="black" d="M1804.83,-505.12C1765.55,-495.08 1714.43,-482.02 1672.25,-471.25"/>
<polygon fill="black" stroke="black" points="1673.19,-467.88 1662.64,-468.79 1671.46,-474.66 1673.19,-467.88"/>
</g>
<!-- n36273873 -->
<g id="node15" class="node">
<title>n36273873</title>
<polygon fill="#e8f0fe" stroke="black" points="2034,-468 1700,-468 1700,-432 2034,-432 2034,-468"/>
<text text-anchor="middle" x="1867" y="-453.25" font-family="monospace" font-size="10.00">yadgar.core.server.tools.project._fetch_presence_rows</text>
<text text-anchor="middle" x="1867" y="-440.5" font-family="monospace" font-size="10.00">99ms</text>
</g>
<!-- n2348827219&#45;&gt;n36273873 -->
<g id="edge11" class="edge">
<title>n2348827219&#45;&gt;n36273873</title>
<path fill="none" stroke="black" d="M1867,-503.7C1867,-496.41 1867,-487.73 1867,-479.54"/>
<polygon fill="black" stroke="black" points="1870.5,-479.62 1867,-469.62 1863.5,-479.62 1870.5,-479.62"/>
</g>
<!-- n1191680045 -->
<g id="node16" class="node">
<title>n1191680045</title>
<polygon fill="#e8f0fe" stroke="black" points="2902,-468 2556,-468 2556,-432 2902,-432 2902,-468"/>
<text text-anchor="middle" x="2729" y="-453.25" font-family="monospace" font-size="10.00">yadgar.core.server.tools.project._compute_row_age_hours</text>
<text text-anchor="middle" x="2729" y="-440.5" font-family="monospace" font-size="10.00">0ms x3</text>
</g>
<!-- n2348827219&#45;&gt;n1191680045 -->
<g id="edge22" class="edge">
<title>n2348827219&#45;&gt;n1191680045</title>
<path fill="none" stroke="black" d="M1929.37,-516.46C2047.2,-507.81 2310.91,-488.13 2544.17,-468.24"/>
<polygon fill="black" stroke="black" points="2544.43,-471.73 2554.1,-467.39 2543.84,-464.75 2544.43,-471.73"/>
</g>
<!-- n3334261428 -->
<g id="node17" class="node">
<title>n3334261428</title>
<polygon fill="#e8f0fe" stroke="black" points="2538,-468 2162,-468 2162,-432 2538,-432 2538,-468"/>
<text text-anchor="middle" x="2350" y="-453.25" font-family="monospace" font-size="10.00">yadgar.core.server.tools.project._project_brief_catalog_full</text>
<text text-anchor="middle" x="2350" y="-440.5" font-family="monospace" font-size="10.00">423ms</text>
</g>
<!-- n2348827219&#45;&gt;n3334261428 -->
<g id="edge59" class="edge">
<title>n2348827219&#45;&gt;n3334261428</title>
<path fill="none" stroke="black" d="M1929.16,-511.99C2001.87,-501.45 2124.28,-483.71 2218.39,-470.07"/>
<polygon fill="black" stroke="black" points="2218.83,-473.55 2228.23,-468.65 2217.83,-466.62 2218.83,-473.55"/>
</g>
<!-- n189299653 -->
<g id="node18" class="node">
<title>n189299653</title>
<polygon fill="#e8f0fe" stroke="black" points="4354,-468 4176,-468 4176,-432 4354,-432 4354,-468"/>
<text text-anchor="middle" x="4265" y="-453.25" font-family="monospace" font-size="10.00">yadgar.core.cache.Cache.put</text>
<text text-anchor="middle" x="4265" y="-440.5" font-family="monospace" font-size="10.00">0ms</text>
</g>
<!-- n2348827219&#45;&gt;n189299653 -->
<g id="edge42" class="edge">
<title>n2348827219&#45;&gt;n189299653</title>
<path fill="none" stroke="black" d="M1929.3,-519.18C2254.62,-509.68 3758.95,-465.77 4164.21,-453.94"/>
<polygon fill="black" stroke="black" points="4164.18,-457.44 4174.07,-453.65 4163.98,-450.45 4164.18,-457.44"/>
</g>
<!-- n1434195253 -->
<g id="node19" class="node">
<title>n1434195253</title>
<polygon fill="#e8f0fe" stroke="black" points="498,-396 194,-396 194,-360 498,-360 498,-396"/>
<text text-anchor="middle" x="346" y="-381.25" font-family="monospace" font-size="10.00">yadgar._shared.runtime.cache_epoch._counter_path</text>
<text text-anchor="middle" x="346" y="-368.5" font-family="monospace" font-size="10.00">0ms x2</text>
</g>
<!-- n2088540149&#45;&gt;n1434195253 -->
<g id="edge10" class="edge">
<title>n2088540149&#45;&gt;n1434195253</title>
<path fill="none" stroke="black" d="M966.63,-432.83C963.73,-432.55 960.85,-432.27 958,-432 806.14,-417.55 632.93,-402.71 509.63,-392.41"/>
<polygon fill="black" stroke="black" points="509.99,-388.93 499.73,-391.59 509.41,-395.91 509.99,-388.93"/>
</g>
<!-- n3440483362 -->
<g id="node20" class="node">
<title>n3440483362</title>
<polygon fill="#e8f0fe" stroke="black" points="1164,-396 860,-396 860,-360 1164,-360 1164,-396"/>
<text text-anchor="middle" x="1012" y="-381.25" font-family="monospace" font-size="10.00">yadgar._shared.runtime.cache_epoch._read_counter</text>
<text text-anchor="middle" x="1012" y="-368.5" font-family="monospace" font-size="10.00">0ms x2</text>
</g>
<!-- n2088540149&#45;&gt;n3440483362 -->
<g id="edge48" class="edge">
<title>n2088540149&#45;&gt;n3440483362</title>
<path fill="none" stroke="black" d="M1094.53,-431.52C1080.64,-422.68 1063.6,-411.84 1048.62,-402.3"/>
<polygon fill="black" stroke="black" points="1050.72,-399.49 1040.4,-397.07 1046.96,-405.39 1050.72,-399.49"/>
</g>
<!-- n2079863429 -->
<g id="node21" class="node">
<title>n2079863429</title>
<polygon fill="#e8f0fe" stroke="black" points="1468,-396 1182,-396 1182,-360 1468,-360 1468,-396"/>
<text text-anchor="middle" x="1325" y="-381.25" font-family="monospace" font-size="10.00">yadgar._shared.storage.client._ClientMixin._q</text>
<text text-anchor="middle" x="1325" y="-368.5" font-family="monospace" font-size="10.00">135ms x4</text>
</g>
<!-- n36273873&#45;&gt;n2079863429 -->
<g id="edge16" class="edge">
<title>n36273873&#45;&gt;n2079863429</title>
<path fill="none" stroke="black" d="M1731.63,-431.52C1652.42,-421.29 1552.39,-408.37 1471.36,-397.9"/>
<polygon fill="black" stroke="black" points="1471.92,-394.45 1461.55,-396.64 1471.02,-401.39 1471.92,-394.45"/>
</g>
<!-- n3334261428&#45;&gt;n2079863429 -->
<g id="edge34" class="edge">
<title>n3334261428&#45;&gt;n2079863429</title>
<path fill="none" stroke="black" d="M2161.7,-436.14C1965.65,-422.75 1662.2,-402.03 1479.66,-389.56"/>
<polygon fill="black" stroke="black" points="1480.08,-386.08 1469.87,-388.89 1479.61,-393.07 1480.08,-386.08"/>
</g>
<!-- n4017985704 -->
<g id="node22" class="node">
<title>n4017985704</title>
<polygon fill="#e8f0fe" stroke="black" points="3782,-396 3412,-396 3412,-360 3782,-360 3782,-396"/>
<text text-anchor="middle" x="3597" y="-381.25" font-family="monospace" font-size="10.00">yadgar.core.server.tools.project._build_anchor_rows_catalog</text>
<text text-anchor="middle" x="3597" y="-368.5" font-family="monospace" font-size="10.00">93ms</text>
</g>
<!-- n3334261428&#45;&gt;n4017985704 -->
<g id="edge32" class="edge">
<title>n3334261428&#45;&gt;n4017985704</title>
<path fill="none" stroke="black" d="M2538.46,-432.56C2541.32,-432.37 2544.17,-432.18 2547,-432 2923.29,-407.86 3021.11,-420.38 3400.37,-396.15"/>
<polygon fill="black" stroke="black" points="3400.4,-399.66 3410.16,-395.52 3399.95,-392.67 3400.4,-399.66"/>
</g>
<!-- n2713008926 -->
<g id="node23" class="node">
<title>n2713008926</title>
<polygon fill="#e8f0fe" stroke="black" points="2004,-396 1640,-396 1640,-360 2004,-360 2004,-396"/>
<text text-anchor="middle" x="1822" y="-381.25" font-family="monospace" font-size="10.00">yadgar.core.server.tools.project._compute_stale_wiki_count</text>
<text text-anchor="middle" x="1822" y="-368.5" font-family="monospace" font-size="10.00">34ms</text>
</g>
<!-- n3334261428&#45;&gt;n2713008926 -->
<g id="edge47" class="edge">
<title>n3334261428&#45;&gt;n2713008926</title>
<path fill="none" stroke="black" d="M2218.13,-431.52C2140.96,-421.29 2043.51,-408.37 1964.58,-397.9"/>
<polygon fill="black" stroke="black" points="1965.44,-394.49 1955.07,-396.64 1964.52,-401.43 1965.44,-394.49"/>
</g>
<!-- n1338981776 -->
<g id="node24" class="node">
<title>n1338981776</title>
<polygon fill="#e8f0fe" stroke="black" points="3030,-396 2702,-396 2702,-360 3030,-360 3030,-396"/>
<text text-anchor="middle" x="2866" y="-381.25" font-family="monospace" font-size="10.00">yadgar.core.server.tools.project._build_hot_memories</text>
<text text-anchor="middle" x="2866" y="-368.5" font-family="monospace" font-size="10.00">54ms</text>
</g>
<!-- n3334261428&#45;&gt;n1338981776 -->
<g id="edge17" class="edge">
<title>n3334261428&#45;&gt;n1338981776</title>
<path fill="none" stroke="black" d="M2478.88,-431.52C2554.13,-421.31 2649.13,-408.42 2726.19,-397.97"/>
<polygon fill="black" stroke="black" points="2726.49,-401.46 2735.92,-396.65 2725.55,-394.52 2726.49,-401.46"/>
</g>
<!-- n1315637165 -->
<g id="node25" class="node">
<title>n1315637165</title>
<polygon fill="#e8f0fe" stroke="black" points="2338,-396 2022,-396 2022,-360 2338,-360 2338,-396"/>
<text text-anchor="middle" x="2180" y="-381.25" font-family="monospace" font-size="10.00">yadgar.core.server.tools.project._build_wiki_pages</text>
<text text-anchor="middle" x="2180" y="-368.5" font-family="monospace" font-size="10.00">94ms</text>
</g>
<!-- n3334261428&#45;&gt;n1315637165 -->
<g id="edge3" class="edge">
<title>n3334261428&#45;&gt;n1315637165</title>
<path fill="none" stroke="black" d="M2307.54,-431.52C2284.84,-422.17 2256.68,-410.57 2232.6,-400.66"/>
<polygon fill="black" stroke="black" points="2234.19,-397.53 2223.61,-396.96 2231.53,-404 2234.19,-397.53"/>
</g>
<!-- n1731502166 -->
<g id="node26" class="node">
<title>n1731502166</title>
<polygon fill="#e8f0fe" stroke="black" points="3394,-396 3048,-396 3048,-360 3394,-360 3394,-396"/>
<text text-anchor="middle" x="3221" y="-381.25" font-family="monospace" font-size="10.00">yadgar.core.server.tools.project._build_checkpoint_dict</text>
<text text-anchor="middle" x="3221" y="-368.5" font-family="monospace" font-size="10.00">0ms</text>
</g>
<!-- n3334261428&#45;&gt;n1731502166 -->
<g id="edge46" class="edge">
<title>n3334261428&#45;&gt;n1731502166</title>
<path fill="none" stroke="black" d="M2538.47,-432.68C2541.33,-432.45 2544.18,-432.23 2547,-432 2761.93,-414.86 2818.64,-414.21 3036.44,-396.2"/>
<polygon fill="black" stroke="black" points="3036.42,-399.72 3046.1,-395.4 3035.84,-392.74 3036.42,-399.72"/>
</g>
<!-- n4124079832 -->
<g id="node27" class="node">
<title>n4124079832</title>
<polygon fill="#e8f0fe" stroke="black" points="2684,-396 2356,-396 2356,-360 2684,-360 2684,-396"/>
<text text-anchor="middle" x="2520" y="-381.25" font-family="monospace" font-size="10.00">yadgar.core.server.tools.project._build_wiki_catalog</text>
<text text-anchor="middle" x="2520" y="-368.5" font-family="monospace" font-size="10.00">111ms</text>
</g>
<!-- n3334261428&#45;&gt;n4124079832 -->
<g id="edge61" class="edge">
<title>n3334261428&#45;&gt;n4124079832</title>
<path fill="none" stroke="black" d="M2392.46,-431.52C2415.16,-422.17 2443.32,-410.57 2467.4,-400.66"/>
<polygon fill="black" stroke="black" points="2468.47,-404 2476.39,-396.96 2465.81,-397.53 2468.47,-404"/>
</g>
<!-- n2502326543 -->
<g id="node28" class="node">
<title>n2502326543</title>
<polygon fill="#e8f0fe" stroke="black" points="4140,-396 3800,-396 3800,-360 4140,-360 4140,-396"/>
<text text-anchor="middle" x="3970" y="-381.25" font-family="monospace" font-size="10.00">yadgar.core.server.tools.project._render_project_brief</text>
<text text-anchor="middle" x="3970" y="-368.5" font-family="monospace" font-size="10.00">0ms</text>
</g>
<!-- n3334261428&#45;&gt;n2502326543 -->
<g id="edge44" class="edge">
<title>n3334261428&#45;&gt;n2502326543</title>
<path fill="none" stroke="black" d="M2538.46,-432.51C2541.32,-432.33 2544.17,-432.16 2547,-432 3095.43,-400.43 3237.01,-429.76 3788.51,-396.13"/>
<polygon fill="black" stroke="black" points="3788.68,-399.62 3798.44,-395.51 3788.25,-392.63 3788.68,-399.62"/>
</g>
<!-- n32486468 -->
<g id="node29" class="node">
<title>n32486468</title>
<polygon fill="#e8f0fe" stroke="black" points="4372,-396 4158,-396 4158,-360 4372,-360 4372,-396"/>
<text text-anchor="middle" x="4265" y="-381.25" font-family="monospace" font-size="10.00">yadgar.core.cache._estimate_bytes</text>
<text text-anchor="middle" x="4265" y="-368.5" font-family="monospace" font-size="10.00">0ms</text>
</g>
<!-- n189299653&#45;&gt;n32486468 -->
<g id="edge57" class="edge">
<title>n189299653&#45;&gt;n32486468</title>
<path fill="none" stroke="black" d="M4265,-431.7C4265,-424.41 4265,-415.73 4265,-407.54"/>
<polygon fill="black" stroke="black" points="4268.5,-407.62 4265,-397.62 4261.5,-407.62 4268.5,-407.62"/>
</g>
<!-- n476657697 -->
<g id="node30" class="node">
<title>n476657697</title>
<polygon fill="#e8f0fe" stroke="black" points="4688,-396 4390,-396 4390,-360 4688,-360 4688,-396"/>
<text text-anchor="middle" x="4539" y="-381.25" font-family="monospace" font-size="10.00">yadgar.core.cache.Cache._evict_to_budget_locked</text>
<text text-anchor="middle" x="4539" y="-368.5" font-family="monospace" font-size="10.00">0ms</text>
</g>
<!-- n189299653&#45;&gt;n476657697 -->
<g id="edge30" class="edge">
<title>n189299653&#45;&gt;n476657697</title>
<path fill="none" stroke="black" d="M4333.43,-431.52C4371.83,-421.71 4419.91,-409.43 4459.91,-399.21"/>
<polygon fill="black" stroke="black" points="4460.67,-402.62 4469.5,-396.76 4458.94,-395.84 4460.67,-402.62"/>
</g>
<!-- n3952966722 -->
<g id="node31" class="node">
<title>n3952966722</title>
<polygon fill="#e8f0fe" stroke="black" points="316,-324 0,-324 0,-288 316,-288 316,-324"/>
<text text-anchor="middle" x="158" y="-309.25" font-family="monospace" font-size="10.00">yadgar._shared.runtime.cache_epoch._epoch_base_dir</text>
<text text-anchor="middle" x="158" y="-296.5" font-family="monospace" font-size="10.00">0ms x2</text>
</g>
<!-- n1434195253&#45;&gt;n3952966722 -->
<g id="edge1" class="edge">
<title>n1434195253&#45;&gt;n3952966722</title>
<path fill="none" stroke="black" d="M299.04,-359.52C273.71,-350.08 242.24,-338.37 215.46,-328.39"/>
<polygon fill="black" stroke="black" points="216.69,-325.12 206.1,-324.91 214.25,-331.68 216.69,-325.12"/>
</g>
<!-- n2382174412 -->
<g id="node32" class="node">
<title>n2382174412</title>
<polygon fill="#e8f0fe" stroke="black" points="662,-324 334,-324 334,-288 662,-288 662,-324"/>
<text text-anchor="middle" x="498" y="-309.25" font-family="monospace" font-size="10.00">yadgar._shared.storage.client._ClientMixin._q_server</text>
<text text-anchor="middle" x="498" y="-296.5" font-family="monospace" font-size="10.00">134ms x4</text>
</g>
<!-- n2079863429&#45;&gt;n2382174412 -->
<g id="edge4" class="edge">
<title>n2079863429&#45;&gt;n2382174412</title>
<path fill="none" stroke="black" d="M1181.81,-360.82C1178.85,-360.54 1175.91,-360.27 1173,-360 953.95,-339.9 895.8,-342.83 673.74,-324.22"/>
<polygon fill="black" stroke="black" points="674.12,-320.74 663.87,-323.38 673.54,-327.71 674.12,-320.74"/>
</g>
<!-- n860607406 -->
<g id="node33" class="node">
<title>n860607406</title>
<polygon fill="#e8f0fe" stroke="black" points="1008,-324 680,-324 680,-288 1008,-288 1008,-324"/>
<text text-anchor="middle" x="844" y="-309.25" font-family="monospace" font-size="10.00">yadgar._shared.storage.client._observe_query_metrics</text>
<text text-anchor="middle" x="844" y="-296.5" font-family="monospace" font-size="10.00">0ms x4</text>
</g>
<!-- n2079863429&#45;&gt;n860607406 -->
<g id="edge41" class="edge">
<title>n2079863429&#45;&gt;n860607406</title>
<path fill="none" stroke="black" d="M1204.86,-359.52C1135,-349.35 1046.88,-336.53 975.21,-326.1"/>
<polygon fill="black" stroke="black" points="975.75,-322.64 965.35,-324.66 974.74,-329.56 975.75,-322.64"/>
</g>
<!-- n1107169560 -->
<g id="node34" class="node">
<title>n1107169560</title>
<polygon fill="#e8f0fe" stroke="black" points="1312,-324 1026,-324 1026,-288 1312,-288 1312,-324"/>
<text text-anchor="middle" x="1169" y="-309.25" font-family="monospace" font-size="10.00">yadgar._shared.storage.client._normalize_rows</text>
<text text-anchor="middle" x="1169" y="-296.5" font-family="monospace" font-size="10.00">0ms x4</text>
</g>
<!-- n2079863429&#45;&gt;n1107169560 -->
<g id="edge33" class="edge">
<title>n2079863429&#45;&gt;n1107169560</title>
<path fill="none" stroke="black" d="M1286.04,-359.52C1265.48,-350.29 1240.06,-338.89 1218.17,-329.06"/>
<polygon fill="black" stroke="black" points="1219.67,-325.9 1209.12,-325 1216.81,-332.29 1219.67,-325.9"/>
</g>
<!-- n3038348633 -->
<g id="node35" class="node">
<title>n3038348633</title>
<polygon fill="#e8f0fe" stroke="black" points="3409,-324 3123,-324 3123,-288 3409,-288 3409,-324"/>
<text text-anchor="middle" x="3266" y="-309.25" font-family="monospace" font-size="10.00">yadgar._shared.storage.client._ClientMixin._q</text>
<text text-anchor="middle" x="3266" y="-296.5" font-family="monospace" font-size="10.00">143ms x3</text>
</g>
<!-- n4017985704&#45;&gt;n3038348633 -->
<g id="edge27" class="edge">
<title>n4017985704&#45;&gt;n3038348633</title>
<path fill="none" stroke="black" d="M3514.33,-359.52C3467.34,-349.58 3408.35,-337.1 3359.66,-326.81"/>
<polygon fill="black" stroke="black" points="3360.47,-323.4 3349.96,-324.76 3359.02,-330.25 3360.47,-323.4"/>
</g>
<!-- n3034095933 -->
<g id="node36" class="node">
<title>n3034095933</title>
<polygon fill="#e8f0fe" stroke="black" points="3767,-324 3427,-324 3427,-288 3767,-288 3767,-324"/>
<text text-anchor="middle" x="3597" y="-309.25" font-family="monospace" font-size="10.00">yadgar._shared.storage.client._ClientMixin._extract_id</text>
<text text-anchor="middle" x="3597" y="-296.5" font-family="monospace" font-size="10.00">0ms x30</text>
</g>
<!-- n4017985704&#45;&gt;n3034095933 -->
<g id="edge28" class="edge">
<title>n4017985704&#45;&gt;n3034095933</title>
<path fill="none" stroke="black" d="M3597,-359.7C3597,-352.41 3597,-343.73 3597,-335.54"/>
<polygon fill="black" stroke="black" points="3600.5,-335.62 3597,-325.62 3593.5,-335.62 3600.5,-335.62"/>
</g>
<!-- n2815175818 -->
<g id="node37" class="node">
<title>n2815175818</title>
<polygon fill="#e8f0fe" stroke="black" points="1682,-324 1330,-324 1330,-288 1682,-288 1682,-324"/>
<text text-anchor="middle" x="1506" y="-309.25" font-family="monospace" font-size="10.00">yadgar.core.server.tools.project._read_stale_count_cache</text>
<text text-anchor="middle" x="1506" y="-296.5" font-family="monospace" font-size="10.00">0ms</text>
</g>
<!-- n2713008926&#45;&gt;n2815175818 -->
<g id="edge51" class="edge">
<title>n2713008926&#45;&gt;n2815175818</title>
<path fill="none" stroke="black" d="M1743.07,-359.52C1698.31,-349.6 1642.14,-337.16 1595.71,-326.87"/>
<polygon fill="black" stroke="black" points="1596.74,-323.52 1586.22,-324.77 1595.22,-330.35 1596.74,-323.52"/>
</g>
<!-- n3245387905 -->
<g id="node38" class="node">
<title>n3245387905</title>
<polygon fill="#e8f0fe" stroke="black" points="2046,-324 1700,-324 1700,-288 2046,-288 2046,-324"/>
<text text-anchor="middle" x="1873" y="-309.25" font-family="monospace" font-size="10.00">yadgar.core.server.tools.project._scan_stale_wiki_slugs</text>
<text text-anchor="middle" x="1873" y="-296.5" font-family="monospace" font-size="10.00">34ms</text>
</g>
<!-- n2713008926&#45;&gt;n3245387905 -->
<g id="edge52" class="edge">
<title>n2713008926&#45;&gt;n3245387905</title>
<path fill="none" stroke="black" d="M1834.61,-359.7C1840.41,-351.73 1847.43,-342.1 1853.86,-333.26"/>
<polygon fill="black" stroke="black" points="1856.59,-335.47 1859.65,-325.33 1850.93,-331.35 1856.59,-335.47"/>
</g>
<!-- n1338981776&#45;&gt;n3038348633 -->
<g id="edge36" class="edge">
<title>n1338981776&#45;&gt;n3038348633</title>
<path fill="none" stroke="black" d="M2965.91,-359.52C3023.4,-349.45 3095.78,-336.79 3155.04,-326.42"/>
<polygon fill="black" stroke="black" points="3155.59,-329.87 3164.84,-324.7 3154.38,-322.98 3155.59,-329.87"/>
</g>
<!-- n1338981776&#45;&gt;n3034095933 -->
<g id="edge37" class="edge">
<title>n1338981776&#45;&gt;n3034095933</title>
<path fill="none" stroke="black" d="M3030.37,-360.84C3033.27,-360.55 3036.15,-360.28 3039,-360 3043.77,-359.54 3254.55,-339.52 3415.63,-324.22"/>
<polygon fill="black" stroke="black" points="3415.52,-327.75 3425.14,-323.32 3414.86,-320.78 3415.52,-327.75"/>
</g>
<!-- n3813128825 -->
<g id="node39" class="node">
<title>n3813128825</title>
<polygon fill="#e8f0fe" stroke="black" points="2404,-324 2064,-324 2064,-288 2404,-288 2404,-324"/>
<text text-anchor="middle" x="2234" y="-309.25" font-family="monospace" font-size="10.00">yadgar._shared.storage.wiki._WikiMixin.list_wiki_pages</text>
<text text-anchor="middle" x="2234" y="-296.5" font-family="monospace" font-size="10.00">94ms</text>
</g>
<!-- n1315637165&#45;&gt;n3813128825 -->
<g id="edge2" class="edge">
<title>n1315637165&#45;&gt;n3813128825</title>
<path fill="none" stroke="black" d="M2193.35,-359.7C2199.56,-351.64 2207.08,-341.89 2213.96,-332.98"/>
<polygon fill="black" stroke="black" points="2216.54,-335.36 2219.88,-325.3 2211,-331.08 2216.54,-335.36"/>
</g>
<!-- n1993135171 -->
<g id="node40" class="node">
<title>n1993135171</title>
<polygon fill="#e8f0fe" stroke="black" points="2774,-324 2422,-324 2422,-288 2774,-288 2774,-324"/>
<text text-anchor="middle" x="2598" y="-309.25" font-family="monospace" font-size="10.00">yadgar._shared.storage.wiki._WikiMixin.list_wiki_catalog</text>
<text text-anchor="middle" x="2598" y="-296.5" font-family="monospace" font-size="10.00">89ms</text>
</g>
<!-- n4124079832&#45;&gt;n1993135171 -->
<g id="edge63" class="edge">
<title>n4124079832&#45;&gt;n1993135171</title>
<path fill="none" stroke="black" d="M2539.28,-359.7C2548.66,-351.28 2560.09,-341.02 2570.38,-331.79"/>
<polygon fill="black" stroke="black" points="2572.44,-334.64 2577.54,-325.36 2567.76,-329.43 2572.44,-334.64"/>
</g>
<!-- n1703790935 -->
<g id="node41" class="node">
<title>n1703790935</title>
<polygon fill="#e8f0fe" stroke="black" points="3078,-324 2792,-324 2792,-288 3078,-288 3078,-324"/>
<text text-anchor="middle" x="2935" y="-309.25" font-family="monospace" font-size="10.00">yadgar.core.server.tools.project._slug_prefix</text>
<text text-anchor="middle" x="2935" y="-296.5" font-family="monospace" font-size="10.00">5ms x486</text>
</g>
<!-- n4124079832&#45;&gt;n1703790935 -->
<g id="edge64" class="edge">
<title>n4124079832&#45;&gt;n1703790935</title>
<path fill="none" stroke="black" d="M2623.65,-359.52C2683.43,-349.43 2758.71,-336.74 2820.26,-326.35"/>
<polygon fill="black" stroke="black" points="2820.82,-329.81 2830.1,-324.69 2819.66,-322.91 2820.82,-329.81"/>
</g>
<!-- n3330523766 -->
<g id="node42" class="node">
<title>n3330523766</title>
<polygon fill="#e8f0fe" stroke="black" points="4137,-324 3803,-324 3803,-288 4137,-288 4137,-324"/>
<text text-anchor="middle" x="3970" y="-309.25" font-family="monospace" font-size="10.00">yadgar.core.server.tools.project._render_wiki_catalog</text>
<text text-anchor="middle" x="3970" y="-296.5" font-family="monospace" font-size="10.00">0ms</text>
</g>
<!-- n2502326543&#45;&gt;n3330523766 -->
<g id="edge15" class="edge">
<title>n2502326543&#45;&gt;n3330523766</title>
<path fill="none" stroke="black" d="M3970,-359.7C3970,-352.41 3970,-343.73 3970,-335.54"/>
<polygon fill="black" stroke="black" points="3973.5,-335.62 3970,-325.62 3966.5,-335.62 3973.5,-335.62"/>
</g>
<!-- n1279650837 -->
<g id="node43" class="node">
<title>n1279650837</title>
<polygon fill="#e8f0fe" stroke="black" points="530,-252 466,-252 466,-216 530,-216 530,-252"/>
<text text-anchor="middle" x="498" y="-237.25" font-family="monospace" font-size="10.00">POST</text>
<text text-anchor="middle" x="498" y="-224.5" font-family="monospace" font-size="10.00">130ms x4</text>
</g>
<!-- n2382174412&#45;&gt;n1279650837 -->
<g id="edge56" class="edge">
<title>n2382174412&#45;&gt;n1279650837</title>
<path fill="none" stroke="black" d="M498,-287.7C498,-280.41 498,-271.73 498,-263.54"/>
<polygon fill="black" stroke="black" points="501.5,-263.62 498,-253.62 494.5,-263.62 501.5,-263.62"/>
</g>
<!-- n4193598479 -->
<g id="node44" class="node">
<title>n4193598479</title>
<polygon fill="#e8f0fe" stroke="black" points="3111,-252 2783,-252 2783,-216 3111,-216 3111,-252"/>
<text text-anchor="middle" x="2947" y="-237.25" font-family="monospace" font-size="10.00">yadgar._shared.storage.client._ClientMixin._q_server</text>
<text text-anchor="middle" x="2947" y="-224.5" font-family="monospace" font-size="10.00">142ms x3</text>
</g>
<!-- n3038348633&#45;&gt;n4193598479 -->
<g id="edge53" class="edge">
<title>n3038348633&#45;&gt;n4193598479</title>
<path fill="none" stroke="black" d="M3186.33,-287.52C3141.14,-277.6 3084.43,-265.16 3037.56,-254.87"/>
<polygon fill="black" stroke="black" points="3038.48,-251.49 3027.97,-252.77 3036.98,-258.33 3038.48,-251.49"/>
</g>
<!-- n524547825 -->
<g id="node45" class="node">
<title>n524547825</title>
<polygon fill="#e8f0fe" stroke="black" points="3457,-252 3129,-252 3129,-216 3457,-216 3457,-252"/>
<text text-anchor="middle" x="3293" y="-237.25" font-family="monospace" font-size="10.00">yadgar._shared.storage.client._observe_query_metrics</text>
<text text-anchor="middle" x="3293" y="-224.5" font-family="monospace" font-size="10.00">0ms x3</text>
</g>
<!-- n3038348633&#45;&gt;n524547825 -->
<g id="edge45" class="edge">
<title>n3038348633&#45;&gt;n524547825</title>
<path fill="none" stroke="black" d="M3272.67,-287.7C3275.58,-280.15 3279.07,-271.12 3282.32,-262.68"/>
<polygon fill="black" stroke="black" points="3285.52,-264.11 3285.86,-253.52 3278.99,-261.59 3285.52,-264.11"/>
</g>
<!-- n771109979 -->
<g id="node46" class="node">
<title>n771109979</title>
<polygon fill="#e8f0fe" stroke="black" points="3761,-252 3475,-252 3475,-216 3761,-216 3761,-252"/>
<text text-anchor="middle" x="3618" y="-237.25" font-family="monospace" font-size="10.00">yadgar._shared.storage.client._normalize_rows</text>
<text text-anchor="middle" x="3618" y="-224.5" font-family="monospace" font-size="10.00">0ms x3</text>
</g>
<!-- n3038348633&#45;&gt;n771109979 -->
<g id="edge38" class="edge">
<title>n3038348633&#45;&gt;n771109979</title>
<path fill="none" stroke="black" d="M3353.92,-287.52C3404.1,-277.54 3467.14,-265 3519.05,-254.68"/>
<polygon fill="black" stroke="black" points="3519.68,-258.12 3528.81,-252.74 3518.31,-251.26 3519.68,-258.12"/>
</g>
<!-- n1273720441 -->
<g id="node47" class="node">
<title>n1273720441</title>
<polygon fill="#e8f0fe" stroke="black" points="1970,-252 1606,-252 1606,-216 1970,-216 1970,-252"/>
<text text-anchor="middle" x="1788" y="-237.25" font-family="monospace" font-size="10.00">yadgar.core.server.tools.project._scan_stale_wiki_slugs_db</text>
<text text-anchor="middle" x="1788" y="-224.5" font-family="monospace" font-size="10.00">34ms</text>
</g>
<!-- n3245387905&#45;&gt;n1273720441 -->
<g id="edge18" class="edge">
<title>n3245387905&#45;&gt;n1273720441</title>
<path fill="none" stroke="black" d="M1851.99,-287.7C1841.67,-279.2 1829.06,-268.81 1817.77,-259.51"/>
<polygon fill="black" stroke="black" points="1820.18,-256.96 1810.23,-253.31 1815.73,-262.37 1820.18,-256.96"/>
</g>
<!-- n554805404 -->
<g id="node48" class="node">
<title>n554805404</title>
<polygon fill="#e8f0fe" stroke="black" points="2741,-252 2455,-252 2455,-216 2741,-216 2741,-252"/>
<text text-anchor="middle" x="2598" y="-237.25" font-family="monospace" font-size="10.00">yadgar._shared.storage.client._ClientMixin._q</text>
<text text-anchor="middle" x="2598" y="-224.5" font-family="monospace" font-size="10.00">169ms x2</text>
</g>
<!-- n3813128825&#45;&gt;n554805404 -->
<g id="edge50" class="edge">
<title>n3813128825&#45;&gt;n554805404</title>
<path fill="none" stroke="black" d="M2324.91,-287.52C2376.91,-277.52 2442.28,-264.95 2496.02,-254.61"/>
<polygon fill="black" stroke="black" points="2496.65,-258.05 2505.81,-252.73 2495.33,-251.18 2496.65,-258.05"/>
</g>
<!-- n2445988570 -->
<g id="node49" class="node">
<title>n2445988570</title>
<polygon fill="#e8f0fe" stroke="black" points="2407,-252 2061,-252 2061,-216 2407,-216 2407,-252"/>
<text text-anchor="middle" x="2234" y="-237.25" font-family="monospace" font-size="10.00">yadgar._shared.storage.client._ClientMixin._row_to_dict</text>
<text text-anchor="middle" x="2234" y="-224.5" font-family="monospace" font-size="10.00">0ms x489</text>
</g>
<!-- n3813128825&#45;&gt;n2445988570 -->
<g id="edge8" class="edge">
<title>n3813128825&#45;&gt;n2445988570</title>
<path fill="none" stroke="black" d="M2234,-287.7C2234,-280.41 2234,-271.73 2234,-263.54"/>
<polygon fill="black" stroke="black" points="2237.5,-263.62 2234,-253.62 2230.5,-263.62 2237.5,-263.62"/>
</g>
<!-- n1993135171&#45;&gt;n554805404 -->
<g id="edge13" class="edge">
<title>n1993135171&#45;&gt;n554805404</title>
<path fill="none" stroke="black" d="M2598,-287.7C2598,-280.41 2598,-271.73 2598,-263.54"/>
<polygon fill="black" stroke="black" points="2601.5,-263.62 2598,-253.62 2594.5,-263.62 2601.5,-263.62"/>
</g>
<!-- n1993135171&#45;&gt;n2445988570 -->
<g id="edge49" class="edge">
<title>n1993135171&#45;&gt;n2445988570</title>
<path fill="none" stroke="black" d="M2507.09,-287.52C2455.09,-277.52 2389.72,-264.95 2335.98,-254.61"/>
<polygon fill="black" stroke="black" points="2336.67,-251.18 2326.19,-252.73 2335.35,-258.05 2336.67,-251.18"/>
</g>
<!-- n2337474928 -->
<g id="node50" class="node">
<title>n2337474928</title>
<polygon fill="#e8f0fe" stroke="black" points="3221,-180 3157,-180 3157,-144 3221,-144 3221,-180"/>
<text text-anchor="middle" x="3189" y="-165.25" font-family="monospace" font-size="10.00">POST</text>
<text text-anchor="middle" x="3189" y="-152.5" font-family="monospace" font-size="10.00">140ms x3</text>
</g>
<!-- n4193598479&#45;&gt;n2337474928 -->
<g id="edge31" class="edge">
<title>n4193598479&#45;&gt;n2337474928</title>
<path fill="none" stroke="black" d="M3023.12,-215.51C3058.28,-206.82 3100.66,-195.51 3146.22,-180.38"/>
<polygon fill="black" stroke="black" points="3147.13,-183.77 3155.49,-177.26 3144.9,-177.14 3147.13,-183.77"/>
</g>
<!-- n1513290608 -->
<g id="node51" class="node">
<title>n1513290608</title>
<polygon fill="#e8f0fe" stroke="black" points="1785,-180 1499,-180 1499,-144 1785,-144 1785,-180"/>
<text text-anchor="middle" x="1642" y="-165.25" font-family="monospace" font-size="10.00">yadgar._shared.storage.client._ClientMixin._q</text>
<text text-anchor="middle" x="1642" y="-152.5" font-family="monospace" font-size="10.00">33ms</text>
</g>
<!-- n1273720441&#45;&gt;n1513290608 -->
<g id="edge19" class="edge">
<title>n1273720441&#45;&gt;n1513290608</title>
<path fill="none" stroke="black" d="M1751.53,-215.52C1732.47,-206.38 1708.94,-195.09 1688.57,-185.33"/>
<polygon fill="black" stroke="black" points="1690.15,-182.2 1679.62,-181.04 1687.12,-188.52 1690.15,-182.2"/>
</g>
<!-- n857116387 -->
<g id="node52" class="node">
<title>n857116387</title>
<polygon fill="#e8f0fe" stroke="black" points="2489,-180 2161,-180 2161,-144 2489,-144 2489,-180"/>
<text text-anchor="middle" x="2325" y="-165.25" font-family="monospace" font-size="10.00">yadgar._shared.storage.client._ClientMixin._q_server</text>
<text text-anchor="middle" x="2325" y="-152.5" font-family="monospace" font-size="10.00">168ms x2</text>
</g>
<!-- n554805404&#45;&gt;n857116387 -->
<g id="edge55" class="edge">
<title>n554805404&#45;&gt;n857116387</title>
<path fill="none" stroke="black" d="M2529.81,-215.52C2491.56,-205.71 2443.66,-193.43 2403.8,-183.21"/>
<polygon fill="black" stroke="black" points="2404.81,-179.85 2394.25,-180.76 2403.07,-186.63 2404.81,-179.85"/>
</g>
<!-- n3630516677 -->
<g id="node53" class="node">
<title>n3630516677</title>
<polygon fill="#e8f0fe" stroke="black" points="2835,-180 2507,-180 2507,-144 2835,-144 2835,-180"/>
<text text-anchor="middle" x="2671" y="-165.25" font-family="monospace" font-size="10.00">yadgar._shared.storage.client._observe_query_metrics</text>
<text text-anchor="middle" x="2671" y="-152.5" font-family="monospace" font-size="10.00">0ms x2</text>
</g>
<!-- n554805404&#45;&gt;n3630516677 -->
<g id="edge29" class="edge">
<title>n554805404&#45;&gt;n3630516677</title>
<path fill="none" stroke="black" d="M2616.04,-215.7C2624.73,-207.37 2635.31,-197.22 2644.86,-188.07"/>
<polygon fill="black" stroke="black" points="2647.02,-190.84 2651.82,-181.39 2642.18,-185.79 2647.02,-190.84"/>
</g>
<!-- n3877078831 -->
<g id="node54" class="node">
<title>n3877078831</title>
<polygon fill="#e8f0fe" stroke="black" points="3139,-180 2853,-180 2853,-144 3139,-144 3139,-180"/>
<text text-anchor="middle" x="2996" y="-165.25" font-family="monospace" font-size="10.00">yadgar._shared.storage.client._normalize_rows</text>
<text text-anchor="middle" x="2996" y="-152.5" font-family="monospace" font-size="10.00">0ms x2</text>
</g>
<!-- n554805404&#45;&gt;n3877078831 -->
<g id="edge14" class="edge">
<title>n554805404&#45;&gt;n3877078831</title>
<path fill="none" stroke="black" d="M2697.41,-215.52C2754.62,-205.45 2826.63,-192.79 2885.6,-182.42"/>
<polygon fill="black" stroke="black" points="2886.09,-185.88 2895.34,-180.7 2884.88,-178.99 2886.09,-185.88"/>
</g>
<!-- n1509037908 -->
<g id="node55" class="node">
<title>n1509037908</title>
<polygon fill="#e8f0fe" stroke="black" points="2143,-180 1803,-180 1803,-144 2143,-144 2143,-180"/>
<text text-anchor="middle" x="1973" y="-165.25" font-family="monospace" font-size="10.00">yadgar._shared.storage.client._ClientMixin._extract_id</text>
<text text-anchor="middle" x="1973" y="-152.5" font-family="monospace" font-size="10.00">0ms x3</text>
</g>
<!-- n2445988570&#45;&gt;n1509037908 -->
<g id="edge40" class="edge">
<title>n2445988570&#45;&gt;n1509037908</title>
<path fill="none" stroke="black" d="M2168.81,-215.52C2132.39,-205.75 2086.83,-193.53 2048.83,-183.34"/>
<polygon fill="black" stroke="black" points="2049.84,-179.98 2039.27,-180.77 2048.02,-186.74 2049.84,-179.98"/>
</g>
<!-- n1763880717 -->
<g id="node56" class="node">
<title>n1763880717</title>
<polygon fill="#e8f0fe" stroke="black" points="1806,-108 1478,-108 1478,-72 1806,-72 1806,-108"/>
<text text-anchor="middle" x="1642" y="-93.25" font-family="monospace" font-size="10.00">yadgar._shared.storage.client._ClientMixin._q_server</text>
<text text-anchor="middle" x="1642" y="-80.5" font-family="monospace" font-size="10.00">33ms</text>
</g>
<!-- n1513290608&#45;&gt;n1763880717 -->
<g id="edge39" class="edge">
<title>n1513290608&#45;&gt;n1763880717</title>
<path fill="none" stroke="black" d="M1642,-143.7C1642,-136.41 1642,-127.73 1642,-119.54"/>
<polygon fill="black" stroke="black" points="1645.5,-119.62 1642,-109.62 1638.5,-119.62 1645.5,-119.62"/>
</g>
<!-- n2489136246 -->
<g id="node57" class="node">
<title>n2489136246</title>
<polygon fill="#e8f0fe" stroke="black" points="2152,-108 1824,-108 1824,-72 2152,-72 2152,-108"/>
<text text-anchor="middle" x="1988" y="-93.25" font-family="monospace" font-size="10.00">yadgar._shared.storage.client._observe_query_metrics</text>
<text text-anchor="middle" x="1988" y="-80.5" font-family="monospace" font-size="10.00">0ms</text>
</g>
<!-- n1513290608&#45;&gt;n2489136246 -->
<g id="edge35" class="edge">
<title>n1513290608&#45;&gt;n2489136246</title>
<path fill="none" stroke="black" d="M1728.42,-143.52C1777.74,-133.54 1839.72,-121 1890.74,-110.68"/>
<polygon fill="black" stroke="black" points="1891.19,-114.16 1900.3,-108.74 1889.81,-107.3 1891.19,-114.16"/>
</g>
<!-- n2735698400 -->
<g id="node58" class="node">
<title>n2735698400</title>
<polygon fill="#e8f0fe" stroke="black" points="1460,-108 1174,-108 1174,-72 1460,-72 1460,-108"/>
<text text-anchor="middle" x="1317" y="-93.25" font-family="monospace" font-size="10.00">yadgar._shared.storage.client._normalize_rows</text>
<text text-anchor="middle" x="1317" y="-80.5" font-family="monospace" font-size="10.00">0ms</text>
</g>
<!-- n1513290608&#45;&gt;n2735698400 -->
<g id="edge23" class="edge">
<title>n1513290608&#45;&gt;n2735698400</title>
<path fill="none" stroke="black" d="M1560.83,-143.52C1514.69,-133.58 1456.77,-121.1 1408.96,-110.81"/>
<polygon fill="black" stroke="black" points="1409.97,-107.45 1399.46,-108.76 1408.5,-114.29 1409.97,-107.45"/>
</g>
<!-- n3244239258 -->
<g id="node59" class="node">
<title>n3244239258</title>
<polygon fill="#e8f0fe" stroke="black" points="2357,-108 2293,-108 2293,-72 2357,-72 2357,-108"/>
<text text-anchor="middle" x="2325" y="-93.25" font-family="monospace" font-size="10.00">POST</text>
<text text-anchor="middle" x="2325" y="-80.5" font-family="monospace" font-size="10.00">163ms x2</text>
</g>
<!-- n857116387&#45;&gt;n3244239258 -->
<g id="edge43" class="edge">
<title>n857116387&#45;&gt;n3244239258</title>
<path fill="none" stroke="black" d="M2325,-143.7C2325,-136.41 2325,-127.73 2325,-119.54"/>
<polygon fill="black" stroke="black" points="2328.5,-119.62 2325,-109.62 2321.5,-119.62 2328.5,-119.62"/>
</g>
<!-- n7096053 -->
<g id="node60" class="node">
<title>n7096053</title>
<polygon fill="#e8f0fe" stroke="black" points="1669,-36 1615,-36 1615,0 1669,0 1669,-36"/>
<text text-anchor="middle" x="1642" y="-21.25" font-family="monospace" font-size="10.00">POST</text>
<text text-anchor="middle" x="1642" y="-8.5" font-family="monospace" font-size="10.00">33ms</text>
</g>
<!-- n1763880717&#45;&gt;n7096053 -->
<g id="edge54" class="edge">
<title>n1763880717&#45;&gt;n7096053</title>
<path fill="none" stroke="black" d="M1642,-71.7C1642,-64.41 1642,-55.73 1642,-47.54"/>
<polygon fill="black" stroke="black" points="1645.5,-47.62 1642,-37.62 1638.5,-47.62 1645.5,-47.62"/>
</g>
</g>
</svg>
